SplineFontDB: 3.0
FontName: RonsFont
FullName: Ron's Font
FamilyName: RonsFont
Weight: Medium
Copyright: Copr. 2014 by Nick Matavka.  Based on the distinctive script of Ron Hubbard.
Version: 1.20
ItalicAngle: 0
UnderlinePosition: -103
UnderlineWidth: 51
Ascent: 819
Descent: 205
sfntRevision: 0x00010000
LayerCount: 2
Layer: 0 1 "Back"  1
Layer: 1 1 "Fore"  0
XUID: [1021 127 2145120194 4581528]
FSType: 0
OS2Version: 2
OS2_WeightWidthSlopeOnly: 0
OS2_UseTypoMetrics: 1
CreationTime: 1277802766
ModificationTime: 1402553764
PfmFamily: 17
TTFWeight: 500
TTFWidth: 5
LineGap: 92
VLineGap: 0
Panose: 2 0 6 3 0 0 0 0 0 0
OS2TypoAscent: 819
OS2TypoAOffset: 0
OS2TypoDescent: -205
OS2TypoDOffset: 0
OS2TypoLinegap: 92
OS2WinAscent: 748
OS2WinAOffset: 0
OS2WinDescent: 140
OS2WinDOffset: 0
HheadAscent: 752
HheadAOffset: 0
HheadDescent: -148
HheadDOffset: 0
OS2SubXSize: 666
OS2SubYSize: 716
OS2SubXOff: 0
OS2SubYOff: 143
OS2SupXSize: 666
OS2SupYSize: 716
OS2SupXOff: 0
OS2SupYOff: 490
OS2StrikeYSize: 50
OS2StrikeYPos: 264
OS2Vendor: 'PfEd'
OS2CodePages: 00000001.00000000
OS2UnicodeRanges: 80000007.00000002.00000000.00000000
Lookup: 258 0 0 "'kern' Horizontal Kerning in Latin lookup 0"  {"'kern' Horizontal Kerning in Latin lookup 0 subtable" [153,0,0] } ['kern' ('DFLT' <'dflt' > 'latn' <'dflt' > ) ]
MarkAttachClasses: 1
DEI: 91125
KernClass2: 110 108 "'kern' Horizontal Kerning in Latin lookup 0 subtable" 
 6 exclam
 22 quotedbl quotedblright
 10 numbersign
 6 dollar
 7 percent
 9 ampersand
 11 quotesingle
 9 parenleft
 10 parenright
 8 asterisk
 4 plus
 5 comma
 6 hyphen
 6 period
 5 slash
 14 zero paragraph
 3 one
 3 two
 5 three
 4 four
 4 five
 3 six
 5 seven
 5 eight
 4 nine
 5 colon
 9 semicolon
 4 less
 5 equal
 7 greater
 8 question
 2 at
 1 A
 1 B
 1 C
 1 D
 1 E
 1 F
 1 G
 1 H
 1 I
 1 J
 1 K
 1 L
 1 M
 1 N
 1 O
 1 P
 1 Q
 1 R
 1 S
 1 T
 1 U
 1 V
 1 W
 1 X
 1 Y
 1 Z
 11 bracketleft
 9 backslash
 12 bracketright
 11 asciicircum
 1 a
 1 b
 1 c
 1 d
 1 e
 1 f
 1 g
 1 h
 1 i
 1 j

StartChar: .notdef
Encoding: 65536 -1 0
Width: 423
Flags: W
LayerCount: 2
Fore
SplineSet
75 0 m 1,0,-1
 75 682 l 1,1,-1
 346 682 l 1,2,-1
 346 0 l 1,3,-1
 75 0 l 1,0,-1
109 34 m 1,4,-1
 312 34 l 1,5,-1
 312 648 l 1,6,-1
 109 648 l 1,7,-1
 109 34 l 1,4,-1
EndSplineSet
Validated: 1
EndChar

StartChar: exclam
Encoding: 33 33 4
Width: 331
GlyphClass: 2
Flags: W
LayerCount: 2
Fore
SplineSet
280 670 m 0,0,1
 283 663 283 663 283 657 c 128,-1,2
 283 651 283 651 276 639.5 c 128,-1,3
 269 628 269 628 269 610 c 128,-1,4
 269 592 269 592 261 583 c 128,-1,5
 253 574 253 574 252.5 562.5 c 128,-1,6
 252 551 252 551 218 466.5 c 128,-1,7
 184 382 184 382 170 327 c 0,8,9
 147 235 147 235 107 235 c 0,10,11
 100 235 100 235 91 238 c 0,12,13
 80 243 80 243 85 250.5 c 128,-1,14
 90 258 90 258 100.5 270 c 128,-1,15
 111 282 111 282 123 326 c 0,16,17
 150 426 150 426 160.5 442 c 128,-1,18
 171 458 171 458 175 478 c 128,-1,19
 179 498 179 498 195.5 540.5 c 128,-1,20
 212 583 212 583 218 625 c 0,21,22
 224 669 224 669 234 678 c 0,23,24
 242 686 242 686 247 686 c 0,25,26
 249 686 l 0,27,28
 255 684 255 684 257 685 c 0,29,30
 260 687 260 687 263 687 c 0,31,32
 273 686 273 686 280 670 c 0,0,1
122 118 m 1,33,34
 122 87 122 87 99 87 c 1,35,36
 98 87 98 87 97 87 c 128,-1,37
 96 87 96 87 95 87 c 0,38,39
 82 87 82 87 66 98 c 0,40,41
 48 110 48 110 48 120 c 0,42,43
 48 130 48 130 58 141 c 0,44,45
 67 152 67 152 84.5 152 c 128,-1,46
 102 152 102 152 111.5 142.5 c 128,-1,47
 121 133 121 133 122 118 c 1,33,34
EndSplineSet
Validated: 1
EndChar

StartChar: quotedbl
Encoding: 34 34 5
Width: 448
GlyphClass: 2
Flags: W
LayerCount: 2
Fore
SplineSet
318 685 m 0,0,1
 318 683 318 683 318 681 c 0,2,3
 318 678 318 678 318 676 c 0,4,5
 317 672 317 672 287 622 c 0,6,7
 251 563 251 563 249 556 c 0,8,9
 235 518 235 518 223 518 c 0,10,11
 222 518 222 518 221 518 c 0,12,13
 209 518 209 518 209 540 c 0,14,15
 209 561 209 561 234 586 c 0,16,17
 241 593 241 593 260 630 c 0,18,19
 271 653 271 653 286 678 c 0,20,21
 291 686 291 686 303 690 c 0,22,23
 316 694 316 694 318 685 c 0,0,1
124 691 m 0,24,25
 134 707 134 707 142 709 c 1,26,-1
 147 709 l 2,27,28
 151 709 151 709 160 697 c 1,29,30
 165 693 165 693 165 688 c 128,-1,31
 165 683 165 683 160.5 674 c 128,-1,32
 156 665 156 665 144.5 655 c 128,-1,33
 133 645 133 645 120 624 c 128,-1,34
 107 603 107 603 102 575 c 128,-1,35
 97 547 97 547 83 544 c 0,36,37
 81 544 81 544 79 544 c 0,38,39
 68 544 68 544 68 560 c 0,40,41
 68 603 68 603 124 691 c 0,24,25
EndSplineSet
Validated: 1
EndChar

StartChar: numbersign
Encoding: 35 35 6
Width: 769
GlyphClass: 2
Flags: W
LayerCount: 2
Fore
SplineSet
629 340 m 1,0,1
 633 343 633 343 654 343 c 128,-1,2
 675 343 675 343 696 338 c 128,-1,3
 717 333 717 333 717 323 c 128,-1,4
 717 313 717 313 702 313 c 128,-1,5
 687 313 687 313 671 316 c 1,6,7
 630 327 630 327 629 340 c 1,0,1
49 483.5 m 128,-1,9
 49 492 49 492 66 492 c 128,-1,10
 83 492 83 492 83 483.5 c 128,-1,11
 83 475 83 475 66 475 c 128,-1,8
 49 475 49 475 49 483.5 c 128,-1,9
607 334 m 2,12,-1
 568 337 l 2,13,14
 559 337 559 337 552.5 334 c 128,-1,15
 546 331 546 331 531 310 c 0,16,17
 507 276 507 276 492.5 264.5 c 128,-1,18
 478 253 478 253 478 246 c 0,19,20
 478 235 478 235 527 219 c 128,-1,21
 576 203 576 203 644 196 c 128,-1,22
 712 189 712 189 712 173 c 0,23,24
 712 169 712 169 706 163 c 1,25,26
 702 156 702 156 694 157 c 128,-1,27
 686 158 686 158 682 161.5 c 128,-1,28
 678 165 678 165 665 169 c 128,-1,29
 652 173 652 173 635 173 c 0,30,31
 604 173 604 173 544.5 188 c 128,-1,32
 485 203 485 203 473 203 c 128,-1,33
 461 203 461 203 455.5 201 c 128,-1,34
 450 199 450 199 429 174 c 128,-1,35
 408 149 408 149 399 149 c 128,-1,36
 390 149 390 149 390 157.5 c 128,-1,37
 390 166 390 166 400 185 c 128,-1,38
 410 204 410 204 410 211.5 c 128,-1,39
 410 219 410 219 406 224.5 c 128,-1,40
 402 230 402 230 361 234 c 128,-1,41
 320 238 320 238 280.5 251.5 c 128,-1,42
 241 265 241 265 227 265 c 128,-1,43
 213 265 213 265 186 242 c 128,-1,44
 159 219 159 219 159 209 c 128,-1,45
 159 199 159 199 137.5 172 c 128,-1,46
 116 145 116 145 105 110 c 128,-1,47
 94 75 94 75 76 75 c 0,48,49
 72 75 72 75 72 82.5 c 128,-1,50
 72 90 72 90 78 122.5 c 128,-1,51
 84 155 84 155 101 169 c 1,52,53
 117 184 117 184 117 195 c 128,-1,54
 117 206 117 206 124.5 216 c 128,-1,55
 132 226 132 226 141 235 c 0,56,57
 162 256 162 256 162 266 c 128,-1,58
 162 276 162 276 143 284 c 128,-1,59
 124 292 124 292 124.5 298.5 c 128,-1,60
 125 305 125 305 151 307 c 1,61,-1
 167 307 l 2,62,63
 197 307 197 307 210 313 c 128,-1,64
 223 319 223 319 252 350 c 1,65,66
 287 385 287 385 287 398 c 0,67,68
 287 405 287 405 250.5 419.5 c 128,-1,69
 214 434 214 434 169 444 c 128,-1,70
 124 454 124 454 108 472 c 0,71,72
 104 477 104 477 108 479.5 c 128,-1,73
 112 482 112 482 119.5 482 c 128,-1,74
 127 482 127 482 144.5 475.5 c 128,-1,75
 162 469 162 469 202.5 453.5 c 128,-1,76
 243 438 243 438 284 434 c 1,77,-1
 340 430 l 1,78,-1
 397 495 l 2,79,80
 453 559 453 559 461 559 c 0,81,82
 461 559 l 1,83,84
 474 559 474 559 468.5 541 c 128,-1,85
 463 523 463 523 449.5 515.5 c 128,-1,86
 436 508 436 508 436 499 c 128,-1,87
 436 490 436 490 431.5 485.5 c 128,-1,88
 427 481 427 481 415 470.5 c 128,-1,89
 403 460 403 460 389 444 c 1,90,-1
 368 417 l 1,91,-1
 400 403 l 2,92,93
 423 394 423 394 435 394 c 2,94,-1
 451 394 l 2,95,96
 471 394 471 394 484 387 c 128,-1,97
 497 380 497 380 511.5 377 c 128,-1,98
 526 374 526 374 535.5 375.5 c 128,-1,99
 545 377 545 377 545 382.5 c 128,-1,100
 545 388 545 388 574 424 c 128,-1,101
 603 460 603 460 608 477 c 128,-1,102
 613 494 613 494 627 510.5 c 128,-1,103
 641 527 641 527 647 543 c 128,-1,104
 653 559 653 559 666 558.5 c 128,-1,105
 679 558 679 558 679 546 c 128,-1,106
 679 534 679 534 656.5 494.5 c 128,-1,107
 634 455 634 455 611.5 424.5 c 128,-1,108
 589 394 589 394 583.5 384 c 128,-1,109
 578 374 578 374 581.5 368 c 128,-1,110
 585 362 585 362 602.5 354 c 128,-1,111
 620 346 620 346 620 340 c 128,-1,112
 620 334 620 334 607 334 c 2,12,-1
503 341 m 0,113,114
 503 349 503 349 493.5 355 c 128,-1,115
 484 361 484 361 435 374 c 0,116,117
 378 388 378 388 356 388 c 2,118,-1
 348 388 l 1,119,120
 343 387 343 387 331 380.5 c 128,-1,121
 319 374 319 374 313 368 c 2,122,-1
 290 345 l 2,123,124
 247 301 247 301 247 293 c 128,-1,125
 247 285 247 285 292 275 c 128,-1,126
 337 265 337 265 365 265 c 128,-1,127
 393 265 393 265 398.5 256 c 128,-1,128
 404 247 404 247 412 247 c 0,129,130
 442 247 442 247 472 287 c 1,131,132
 503 323 503 323 503 341 c 0,113,114
EndSplineSet
Validated: 1
EndChar

StartChar: dollar
Encoding: 36 36 7
Width: 575
GlyphClass: 2
Flags: W
LayerCount: 2
Fore
SplineSet
464 682 m 0,0,1
 475 682 475 682 474.5 659.5 c 128,-1,2
 474 637 474 637 465 631.5 c 128,-1,3
 456 626 456 626 458.5 609.5 c 128,-1,4
 461 593 461 593 475 575.5 c 128,-1,5
 489 558 489 558 490 540.5 c 128,-1,6
 491 523 491 523 480.5 514.5 c 128,-1,7
 470 506 470 506 464 508 c 128,-1,8
 458 510 458 510 445.5 525.5 c 128,-1,9
 433 541 433 541 427.5 543 c 128,-1,10
 422 545 422 545 411 535.5 c 128,-1,11
 400 526 400 526 404 510 c 0,12,13
 405 507 405 507 405 498 c 128,-1,14
 405 489 405 489 396 455 c 128,-1,15
 387 421 387 421 377.5 401.5 c 128,-1,16
 368 382 368 382 368 376 c 2,17,-1
 368 367 l 1,18,19
 372 357 372 357 382 359 c 128,-1,20
 392 361 392 361 405.5 361 c 128,-1,21
 419 361 419 361 452 354.5 c 128,-1,22
 485 348 485 348 495.5 342 c 128,-1,23
 506 336 506 336 512.5 319 c 128,-1,24
 519 302 519 302 519 287 c 128,-1,25
 519 272 519 272 510.5 251.5 c 128,-1,26
 502 231 502 231 485 212 c 128,-1,27
 468 193 468 193 461.5 193 c 128,-1,28
 455 193 455 193 442.5 180.5 c 128,-1,29
 430 168 430 168 383 138 c 128,-1,30
 336 108 336 108 315 86.5 c 128,-1,31
 294 65 294 65 294 40.5 c 128,-1,32
 294 16 294 16 273 9 c 0,33,34
 269 7 269 7 266 7 c 0,35,36
 252 8 252 8 256 28 c 1,37,38
 257 34 257 34 257 39 c 0,39,40
 257 54 257 54 251 61 c 0,41,42
 241 72 241 72 228 69 c 0,43,44
 213 66 213 66 204.5 43 c 128,-1,45
 196 20 196 20 180 11 c 0,46,47
 176 8 176 8 172.5 8 c 128,-1,48
 169 8 169 8 166 15.5 c 128,-1,49
 163 23 163 23 163 37 c 128,-1,50
 163 51 163 51 137.5 59.5 c 128,-1,51
 112 68 112 68 80 97.5 c 128,-1,52
 48 127 48 127 48 141 c 128,-1,53
 48 155 48 155 65.5 166 c 128,-1,54
 83 177 83 177 127 195.5 c 128,-1,55
 171 214 171 214 196 226 c 0,56,57
 205 231 205 231 210.5 261 c 128,-1,58
 216 291 216 291 221.5 297.5 c 128,-1,59
 227 304 227 304 231.5 326 c 128,-1,60
 236 348 236 348 230.5 355 c 128,-1,61
 225 362 225 362 196 378 c 128,-1,62
 167 394 167 394 144.5 421.5 c 128,-1,63
 122 449 122 449 122 469 c 128,-1,64
 122 489 122 489 145.5 531 c 128,-1,65
 169 573 169 573 184 580.5 c 128,-1,66
 199 588 199 588 237 616 c 128,-1,67
 275 644 275 644 289.5 644 c 128,-1,68
 304 644 304 644 313 656.5 c 128,-1,69
 322 669 322 669 336 669 c 128,-1,70
 350 669 350 669 355 677 c 128,-1,71
 360 685 360 685 370.5 685 c 128,-1,72
 381 685 381 685 403 662 c 1,73,-1
 426 640 l 1,74,-1
 443 663 l 2,75,76
 457 682 457 682 464 682 c 0,0,1
313 515 m 1,77,-1
 315 499 l 1,78,79
 315 482 315 482 304.5 459.5 c 128,-1,80
 294 437 294 437 289.5 418 c 128,-1,81
 285 399 285 399 286 386.5 c 128,-1,82
 287 374 287 374 293 374 c 0,83,84
 310 374 310 374 325.5 384 c 128,-1,85
 341 394 341 394 338.5 404 c 128,-1,86
 336 414 336 414 337.5 416 c 128,-1,87
 339 418 339 418 345.5 434 c 128,-1,88
 352 450 352 450 356 472 c 0,89,90
 364 524 364 524 403 568 c 0,91,92
 414 580 414 580 415 587 c 128,-1,93
 416 594 416 594 407 611 c 128,-1,94
 398 628 398 628 389 628 c 128,-1,95
 380 628 380 628 357.5 597.5 c 128,-1,96
 335 567 335 567 335 559 c 128,-1,97
 335 551 335 551 322 538 c 1,98,99
 313 527 313 527 313 515 c 1,77,-1
306 562 m 128,-1,101
 319 573 319 573 325.5 584.5 c 128,-1,102
 332 596 332 596 330 601 c 128,-1,103
 328 606 328 606 317.5 611 c 128,-1,104
 307 616 307 616 304 616 c 2,105,-1
 303 616 l 1,106,107
 302 614 302 614 294.5 608.5 c 128,-1,108
 287 603 287 603 270.5 603 c 128,-1,109
 254 603 254 603 223 571 c 128,-1,110
 192 539 192 539 173.5 505 c 128,-1,111
 155 471 155 471 155 459.5 c 128,-1,112
 155 448 155 448 157.5 442 c 128,-1,113
 160 436 160 436 169.5 430.5 c 128,-1,114
 179 425 179 425 197 417.5 c 128,-1,115
 215 410 215 410 223.5 405.5 c 128,-1,116
 232 401 232 401 236.5 405 c 128,-1,117
 241 409 241 409 247.5 427 c 128,-1,118
 254 445 254 445 261.5 458.5 c 128,-1,119
 269 472 269 472 269 488.5 c 128,-1,120
 269 505 269 505 281 528 c 128,-1,100
 293 551 293 551 306 562 c 128,-1,101
286 210 m 0,121,122
 306 240 306 240 310 272 c 0,123,124
 313 296 313 296 313 308 c 0,125,126
 312 321 312 321 311 324 c 1,127,128
 306 332 306 332 287 332 c 128,-1,129
 268 332 268 332 264 319 c 2,130,-1
 252 284 l 1,131,132
 237 234 237 234 235.5 207 c 128,-1,133
 234 180 234 180 237 177 c 1,134,135
 265 177 265 177 286 210 c 0,121,122
472.5 250.5 m 128,-1,137
 491 275 491 275 491 286 c 128,-1,138
 491 297 491 297 466.5 313.5 c 128,-1,139
 442 330 442 330 402.5 330 c 128,-1,140
 363 330 363 330 354 304 c 0,141,142
 348 287 348 287 344.5 266.5 c 128,-1,143
 341 246 341 246 331 234 c 128,-1,144
 321 222 321 222 321 187.5 c 128,-1,145
 321 153 321 153 324.5 150.5 c 128,-1,146
 328 148 328 148 335.5 148 c 128,-1,147
 343 148 343 148 364.5 160 c 128,-1,148
 386 172 386 172 409 198 c 1,149,150
 437 226 437 226 445.5 226 c 128,-1,136
 454 226 454 226 472.5 250.5 c 128,-1,137
122 156 m 0,151,152
 122 144 122 144 109.5 144 c 128,-1,153
 97 144 97 144 97 137 c 128,-1,154
 97 130 97 130 115.5 113 c 128,-1,155
 134 96 134 96 151 96 c 2,156,-1
 156 96 l 1,157,158
 168 98 168 98 172 106 c 0,159,160
 178 119 178 119 178 147.5 c 128,-1,161
 178 176 178 176 170 176 c 2,162,-1
 169 176 l 1,163,164
 122 171 122 171 122 156 c 0,151,152
269 140 m 128,-1,166
 269 148 269 148 255.5 152.5 c 128,-1,167
 242 157 242 157 234.5 157 c 128,-1,168
 227 157 227 157 219.5 154.5 c 128,-1,169
 212 152 212 152 212 138 c 2,170,-1
 212 109 l 1,171,172
 214 95 214 95 219 95 c 0,173,174
 229 95 229 95 249 113.5 c 128,-1,165
 269 132 269 132 269 140 c 128,-1,166
EndSplineSet
Validated: 1
EndChar

StartChar: percent
Encoding: 37 37 8
Width: 912
GlyphClass: 2
Flags: W
LayerCount: 2
Fore
SplineSet
665.5 81 m 128,-1,1
 650 81 650 81 627.5 83.5 c 128,-1,2
 605 86 605 86 568.5 104.5 c 128,-1,3
 532 123 532 123 510 158.5 c 128,-1,4
 488 194 488 194 488 243.5 c 128,-1,5
 488 293 488 293 506 328 c 0,6,7
 535 384 535 384 620 426 c 0,8,9
 636 434 636 434 694 434 c 1,10,11
 698 436 698 436 703 434 c 1,12,13
 754 434 754 434 775 424 c 128,-1,14
 796 414 796 414 823 388 c 1,15,16
 845 369 845 369 850.5 356.5 c 128,-1,17
 856 344 856 344 856 321 c 128,-1,18
 856 298 856 298 848.5 286 c 128,-1,19
 841 274 841 274 837.5 241 c 128,-1,20
 834 208 834 208 805 167.5 c 128,-1,21
 776 127 776 127 743 111 c 2,22,-1
 696 88 l 2,23,0
 681 81 681 81 665.5 81 c 128,-1,1
822 331 m 1,24,25
 820 352 820 352 793 371.5 c 128,-1,26
 766 391 766 391 702 396 c 1,27,-1
 676 396 l 2,28,29
 593 396 593 396 545 334 c 0,30,31
 522 304 522 304 520 282 c 128,-1,32
 518 260 518 260 518 244 c 128,-1,33
 518 228 518 228 524.5 211 c 128,-1,34
 531 194 531 194 563 157 c 2,35,-1
 600 114 l 1,36,-1
 655 114 l 2,37,38
 693 114 693 114 706 118.5 c 128,-1,39
 719 123 719 123 745 146.5 c 128,-1,40
 771 170 771 170 785.5 194.5 c 128,-1,41
 800 219 800 219 811 261.5 c 128,-1,42
 822 304 822 304 822 316 c 2,43,-1
 822 331 l 1,24,25
400 293 m 128,-1,45
 232 114 232 114 220.5 114 c 128,-1,46
 209 114 209 114 209 123 c 128,-1,47
 209 132 209 132 229 156 c 128,-1,48
 249 180 249 180 313.5 245 c 128,-1,49
 378 310 378 310 378 314.5 c 128,-1,50
 378 319 378 319 429 373 c 0,51,52
 592 546 592 546 634 626 c 1,53,54
 645 650 645 650 657 650 c 1,55,-1
 670 646 l 1,56,57
 671 644 671 644 671 641 c 0,58,59
 671 626 671 626 635 577 c 1,60,-1
 592 510 l 2,61,44
 568 472 568 472 400 293 c 128,-1,45
418 608 m 1,62,63
 425 594 425 594 425 581 c 128,-1,64
 425 568 425 568 418.5 550.5 c 128,-1,65
 412 533 412 533 412 511 c 128,-1,66
 412 489 412 489 403.5 472 c 128,-1,67
 395 455 395 455 386.5 444 c 128,-1,68
 378 433 378 433 378 425 c 128,-1,69
 378 417 378 417 353 392 c 0,70,71
 298 337 298 337 221 333 c 1,72,-1
 210 333 l 2,73,74
 174 333 174 333 156.5 345 c 128,-1,75
 139 357 139 357 126.5 357 c 128,-1,76
 114 357 114 357 84 395 c 1,77,78
 68 419 68 419 62 438 c 0,79,80
 57 455 57 455 57 473 c 0,81,82
 57 475 57 475 57.5 476.5 c 128,-1,83
 58 478 58 478 58 517 c 0,84,85
 58 538 58 538 61 553.5 c 128,-1,86
 64 569 64 569 78 592.5 c 128,-1,87
 92 616 92 616 121.5 639 c 128,-1,88
 151 662 151 662 179.5 671.5 c 128,-1,89
 208 681 208 681 235.5 681 c 128,-1,90
 263 681 263 681 290 680 c 128,-1,91
 317 679 317 679 336 674 c 128,-1,92
 355 669 355 669 376 654 c 1,93,94
 407 635 407 635 418 608 c 1,62,63
369 483.5 m 128,-1,96
 378 506 378 506 381 534 c 128,-1,97
 384 562 384 562 384 573.5 c 128,-1,98
 384 585 384 585 382 592.5 c 128,-1,99
 380 600 380 600 364.5 614.5 c 128,-1,100
 349 629 349 629 338 634 c 128,-1,101
 327 639 327 639 318.5 640 c 128,-1,102
 310 641 310 641 284.5 642 c 128,-1,103
 259 643 259 643 238 646 c 128,-1,104
 217 649 217 649 210 649 c 0,105,106
 188 649 188 649 184 645 c 0,107,108
 172 633 172 633 154.5 626 c 128,-1,109
 137 619 137 619 118.5 595.5 c 128,-1,110
 100 572 100 572 96 556 c 128,-1,111
 92 540 92 540 92 504 c 2,112,-1
 91 446 l 1,113,-1
 130 410 l 2,114,115
 171 373 171 373 190 366.5 c 128,-1,116
 209 360 209 360 220 360 c 2,117,-1
 238 360 l 1,118,119
 283 369 283 369 336 422 c 0,120,121
 344 430 344 430 344 434 c 128,-1,122
 344 438 344 438 352 449.5 c 128,-1,95
 360 461 360 461 369 483.5 c 128,-1,96
EndSplineSet
Validated: 1
EndChar

StartChar: ampersand
Encoding: 38 38 9
Width: 417
GlyphClass: 2
Flags: W
LayerCount: 2
Fore
SplineSet
260 177 m 0,0,1
 298 177 298 177 298 213 c 0,2,3
 298 222 298 222 294 246 c 128,-1,4
 290 270 290 270 280 273 c 0,5,6
 279 273 279 273 278 273 c 0,7,8
 267 273 267 273 247 244.5 c 128,-1,9
 227 216 227 216 227 200 c 128,-1,10
 227 184 227 184 232 180.5 c 128,-1,11
 237 177 237 177 260 177 c 0,0,1
133 316 m 128,-1,13
 113 316 113 316 113 284 c 1,14,15
 112 277 112 277 112 274 c 0,16,17
 115 249 115 249 124 233 c 0,18,19
 138 209 138 209 145 214 c 0,20,21
 153 219 153 219 153 267.5 c 128,-1,12
 153 316 153 316 133 316 c 128,-1,13
218 494 m 0,22,23
 268 538 268 538 268 577 c 0,24,25
 268 589 268 589 259 600 c 128,-1,26
 250 611 250 611 228 611 c 2,27,-1
 226 611 l 1,28,29
 202 610 202 610 198 598 c 256,30,31
 194 586 194 586 185 576 c 0,32,33
 162 551 162 551 160 510 c 1,34,-1
 160 497 l 2,35,36
 160 468 160 468 170 466 c 1,37,-1
 173 466 l 2,38,39
 186 466 186 466 218 494 c 0,22,23
326 306 m 0,40,41
 326 297 326 297 334.5 285.5 c 128,-1,42
 343 274 343 274 352 256 c 128,-1,43
 361 238 361 238 361 214 c 128,-1,44
 361 190 361 190 354.5 177 c 128,-1,45
 348 164 348 164 317.5 131 c 128,-1,46
 287 98 287 98 278.5 82 c 128,-1,47
 270 66 270 66 259 64 c 0,48,49
 257 64 257 64 251.5 64 c 128,-1,50
 246 64 246 64 235 70 c 1,51,52
 223 80 223 80 199.5 100 c 128,-1,53
 176 120 176 120 152 126 c 0,54,55
 129 131 129 131 77 191 c 0,56,57
 55 216 55 216 51 276 c 1,58,59
 51 302 51 302 95 376 c 0,60,61
 106 395 106 395 110 400 c 128,-1,62
 114 405 114 405 116.5 413 c 128,-1,63
 119 421 119 421 118 426 c 0,64,65
 107 465 107 465 107 490 c 0,66,67
 107 538 107 538 131.5 582.5 c 128,-1,68
 156 627 156 627 175 644 c 0,69,70
 202 667 202 667 260 673 c 0,71,72
 261 673 261 673 262 673 c 0,73,74
 267 673 267 673 276 670 c 1,75,76
 282 666 282 666 285 662 c 1,77,78
 292 645 292 645 308 626 c 0,79,80
 326 606 326 606 326 588 c 0,81,-1
 326 587 l 0,82,83
 326 569 326 569 316 547 c 0,84,85
 293 496 293 496 239 449 c 0,86,87
 206 420 206 420 200.5 411 c 128,-1,88
 195 402 195 402 195.5 391 c 128,-1,89
 196 380 196 380 197 367 c 128,-1,90
 198 354 198 354 202 350 c 128,-1,91
 206 346 206 346 218 347 c 128,-1,92
 230 348 230 348 242 348 c 128,-1,93
 254 348 254 348 290 333 c 128,-1,94
 326 318 326 318 326 306 c 0,40,41
EndSplineSet
Validated: 1
EndChar

StartChar: quotesingle
Encoding: 39 39 10
Width: 242
GlyphClass: 2
Flags: W
LayerCount: 2
Fore
SplineSet
67 600 m 1,0,1
 68 606 68 606 76 610 c 0,2,3
 108 627 108 627 117.5 638.5 c 128,-1,4
 127 650 127 650 133 650 c 2,5,-1
 142 650 l 1,6,7
 154 645 154 645 170 612.5 c 128,-1,8
 186 580 186 580 186 556 c 128,-1,9
 186 532 186 532 183 518 c 0,10,11
 172 472 172 472 126 449 c 0,12,13
 99 436 99 436 83.5 421 c 128,-1,14
 68 406 68 406 61 406 c 0,15,16
 58 406 58 406 58 412 c 0,17,18
 58 430 58 430 90 462.5 c 128,-1,19
 122 495 122 495 130.5 511.5 c 128,-1,20
 139 528 139 528 139 538 c 128,-1,21
 139 548 139 548 134.5 569.5 c 128,-1,22
 130 591 130 591 126.5 595.5 c 128,-1,23
 123 600 123 600 110.5 592 c 128,-1,24
 98 584 98 584 82.5 587 c 128,-1,25
 67 590 67 590 67 600 c 1,0,1
EndSplineSet
Validated: 1
EndChar

StartChar: parenleft
Encoding: 40 40 11
Width: 600
GlyphClass: 2
Flags: W
LayerCount: 2
Fore
SplineSet
284 622 m 128,-1,1
 307 643 307 643 317 643 c 128,-1,2
 327 643 327 643 333 648 c 128,-1,3
 339 653 339 653 342 659.5 c 128,-1,4
 345 666 345 666 355 671.5 c 128,-1,5
 365 677 365 677 386 677 c 0,6,7
 408 677 408 677 442 694 c 128,-1,8
 476 711 476 711 497 711 c 0,9,10
 550 710 550 710 550 685 c 0,11,12
 550 676 550 676 541 663.5 c 128,-1,13
 532 651 532 651 508.5 644 c 128,-1,14
 485 637 485 637 450 627 c 128,-1,15
 415 617 415 617 385 596 c 1,16,17
 347 566 347 566 324 562 c 0,18,19
 315 560 315 560 308 555 c 128,-1,20
 301 550 301 550 301 546 c 0,21,22
 301 534 301 534 284.5 526.5 c 128,-1,23
 268 519 268 519 217.5 465.5 c 128,-1,24
 167 412 167 412 167 405 c 128,-1,25
 167 398 167 398 152 376 c 0,26,27
 118 329 118 329 117 238 c 1,28,-1
 117 233 l 2,29,30
 117 145 117 145 149.5 82 c 128,-1,31
 182 19 182 19 216 -4.5 c 128,-1,32
 250 -28 250 -28 307 -33.5 c 128,-1,33
 364 -39 364 -39 372 -45 c 0,34,35
 388 -58 388 -58 409 -58 c 128,-1,36
 430 -58 430 -58 458 -46 c 128,-1,37
 486 -34 486 -34 496 -33 c 0,38,39
 506 -33 506 -33 508 -34 c 0,40,41
 552 -50 552 -50 552 -81 c 0,42,43
 552 -92 552 -92 540 -106 c 0,44,45
 528 -120 528 -120 483 -122 c 128,-1,46
 438 -124 438 -124 402 -124 c 2,47,-1
 345 -124 l 1,48,49
 281 -121 281 -121 268.5 -110 c 128,-1,50
 256 -99 256 -99 229.5 -88.5 c 128,-1,51
 203 -78 203 -78 147 -24.5 c 128,-1,52
 91 29 91 29 91 40.5 c 128,-1,53
 91 52 91 52 77.5 81 c 128,-1,54
 64 110 64 110 61 138 c 128,-1,55
 58 166 58 166 58 249.5 c 128,-1,56
 58 333 58 333 60.5 355 c 128,-1,57
 63 377 63 377 77 389.5 c 128,-1,58
 91 402 91 402 91 414 c 128,-1,59
 91 426 91 426 116.5 459.5 c 128,-1,60
 142 493 142 493 167 514.5 c 128,-1,61
 192 536 192 536 192 545 c 128,-1,62
 192 554 192 554 220 577.5 c 128,-1,63
 248 601 248 601 254.5 601 c 128,-1,0
 261 601 261 601 284 622 c 128,-1,1
EndSplineSet
Validated: 1
EndChar

StartChar: parenright
Encoding: 41 41 12
Width: 568
GlyphClass: 2
Flags: W
LayerCount: 2
Fore
SplineSet
397 550 m 128,-1,1
 397 540 397 540 414 521.5 c 128,-1,2
 431 503 431 503 431 495 c 0,3,4
 431 470 431 470 470 425 c 0,5,6
 490 401 490 401 498 362.5 c 128,-1,7
 506 324 506 324 506 253 c 0,8,9
 505 77 505 77 412 -19 c 1,10,11
 337 -98 337 -98 295 -120 c 1,12,13
 258 -140 258 -140 241.5 -143.5 c 128,-1,14
 225 -147 225 -147 219.5 -148.5 c 128,-1,15
 214 -150 214 -150 209 -150 c 128,-1,16
 204 -150 204 -150 194.5 -148.5 c 128,-1,17
 185 -147 185 -147 181 -146 c 128,-1,18
 177 -145 177 -145 165 -142.5 c 128,-1,19
 153 -140 153 -140 131.5 -134.5 c 128,-1,20
 110 -129 110 -129 98 -121.5 c 128,-1,21
 86 -114 86 -114 65.5 -83.5 c 128,-1,22
 45 -53 45 -53 45 -37 c 128,-1,23
 45 -21 45 -21 61 -12 c 0,24,25
 67 -9 67 -9 79 -9 c 128,-1,26
 91 -9 91 -9 118.5 -24.5 c 128,-1,27
 146 -40 146 -40 154 -50 c 128,-1,28
 162 -60 162 -60 173.5 -60.5 c 128,-1,29
 185 -61 185 -61 194.5 -57.5 c 128,-1,30
 204 -54 204 -54 223 -44.5 c 128,-1,31
 242 -35 242 -35 255 -31 c 1,32,-1
 293 -14 l 2,33,34
 308 -8 308 -8 352.5 40 c 128,-1,35
 397 88 397 88 397 98 c 128,-1,36
 397 108 397 108 409 121.5 c 128,-1,37
 421 135 421 135 428.5 185.5 c 128,-1,38
 436 236 436 236 436 259 c 128,-1,39
 436 282 436 282 432.5 306 c 128,-1,40
 429 330 429 330 410 376.5 c 128,-1,41
 391 423 391 423 377.5 434 c 128,-1,42
 364 445 364 445 364 455 c 128,-1,43
 364 465 364 465 346 492 c 128,-1,44
 328 519 328 519 317 528.5 c 128,-1,45
 306 538 306 538 301.5 547 c 128,-1,46
 297 556 297 556 293 569.5 c 128,-1,47
 289 583 289 583 286.5 593.5 c 128,-1,48
 284 604 284 604 280.5 621 c 128,-1,49
 277 638 277 638 275.5 644.5 c 128,-1,50
 274 651 274 651 274 661 c 128,-1,51
 274 671 274 671 286 685 c 0,52,53
 294 694 294 694 311 700 c 0,54,55
 312 700 312 700 313 700 c 0,56,57
 315 700 315 700 318 698 c 0,58,59
 334 690 334 690 340 664 c 0,60,61
 347 636 347 636 372 598 c 128,-1,0
 397 560 397 560 397 550 c 128,-1,1
EndSplineSet
Validated: 1
EndChar

StartChar: asterisk
Encoding: 42 42 13
Width: 414
GlyphClass: 2
Flags: W
LayerCount: 2
Fore
SplineSet
227 456 m 0,0,1
 218 456 218 456 218 443.5 c 128,-1,2
 218 431 218 431 229.5 400 c 128,-1,3
 241 369 241 369 241 356 c 0,4,5
 241 355 l 0,6,7
 241 342 241 342 216 332 c 0,8,9
 206 328 206 328 199 328 c 0,10,11
 190 328 190 328 186 334 c 0,12,13
 178 346 178 346 177 386 c 128,-1,14
 176 426 176 426 166 434 c 0,15,16
 162 437 162 437 156.5 439 c 128,-1,17
 151 441 151 441 132.5 426.5 c 128,-1,18
 114 412 114 412 112 406 c 128,-1,19
 110 400 110 400 118 387.5 c 128,-1,20
 126 375 126 375 122 371 c 128,-1,21
 118 367 118 367 111.5 367 c 128,-1,22
 105 367 105 367 81 376 c 128,-1,23
 57 385 57 385 57 392.5 c 128,-1,24
 57 400 57 400 92 434 c 128,-1,25
 127 468 127 468 147 481 c 1,26,-1
 167 491 l 1,27,-1
 143 508 l 2,28,29
 119 525 119 525 100.5 534.5 c 128,-1,30
 82 544 82 544 75 554.5 c 128,-1,31
 68 565 68 565 70 574 c 128,-1,32
 72 583 72 583 83 585 c 0,33,34
 84 585 84 585 85 585 c 0,35,36
 97 585 97 585 135.5 561.5 c 128,-1,37
 174 538 174 538 177 538 c 128,-1,38
 180 538 180 538 180 568 c 128,-1,39
 180 598 180 598 183 610.5 c 128,-1,40
 186 623 186 623 191.5 634 c 128,-1,41
 197 645 197 645 200.5 657 c 128,-1,42
 204 669 204 669 216 669 c 0,43,44
 233 669 233 669 239 588 c 0,45,46
 241 560 241 560 252 558 c 0,47,48
 253 558 253 558 253 557 c 1,49,50
 264 557 264 557 289 578.5 c 128,-1,51
 314 600 314 600 329 600 c 128,-1,52
 344 600 344 600 344 586 c 0,53,54
 344 578 344 578 313 549.5 c 128,-1,55
 282 521 282 521 273 521 c 128,-1,56
 264 521 264 521 255 511 c 128,-1,57
 246 501 246 501 248.5 495 c 128,-1,58
 251 489 251 489 268 475 c 128,-1,59
 285 461 285 461 298.5 456 c 128,-1,60
 312 451 312 451 335 432 c 128,-1,61
 358 413 358 413 358 408.5 c 128,-1,62
 358 404 358 404 349 394 c 128,-1,63
 340 384 340 384 334.5 384.5 c 128,-1,64
 329 385 329 385 310 401.5 c 128,-1,65
 291 418 291 418 264.5 436.5 c 128,-1,66
 238 455 238 455 227 456 c 0,0,1
EndSplineSet
Validated: 1
EndChar

StartChar: plus
Encoding: 43 43 14
Width: 536
GlyphClass: 2
Flags: W
LayerCount: 2
Fore
SplineSet
143 370 m 128,-1,1
 154 358 154 358 190 357 c 1,2,-1
 226 357 l 1,3,-1
 255 418 l 2,4,5
 283 479 283 479 294 483 c 0,6,7
 301 486 301 486 314 487 c 0,8,9
 315 487 315 487 316 487 c 0,10,11
 324 487 324 487 329 481 c 0,12,13
 339 470 339 470 339 462 c 128,-1,14
 339 454 339 454 336 443 c 128,-1,15
 333 432 333 432 304 398.5 c 128,-1,16
 275 365 275 365 275 348.5 c 128,-1,17
 275 332 275 332 291 324.5 c 128,-1,18
 307 317 307 317 319 317 c 0,19,20
 358 317 358 317 386 337.5 c 128,-1,21
 414 358 414 358 432 358 c 0,22,23
 480 358 480 358 480 331 c 0,24,25
 480 312 480 312 461 293 c 128,-1,26
 442 274 442 274 428.5 270.5 c 128,-1,27
 415 267 415 267 349.5 267 c 128,-1,28
 284 267 284 267 267.5 273.5 c 128,-1,29
 251 280 251 280 242 280 c 128,-1,30
 233 280 233 280 229 271 c 0,31,32
 221 257 221 257 218 205 c 128,-1,33
 215 153 215 153 211.5 142 c 128,-1,34
 208 131 208 131 192 129 c 0,35,-1
 190 129 l 0,36,37
 189 129 l 0,38,39
 177 129 177 129 166 148 c 0,40,41
 157 164 157 164 155 181 c 0,42,43
 154 190 154 190 158 195 c 0,44,45
 168 208 168 208 168 228 c 0,46,47
 168 245 168 245 180 258.5 c 128,-1,48
 192 272 192 272 190.5 277 c 128,-1,49
 189 282 189 282 171 296.5 c 128,-1,50
 153 311 153 311 135.5 315.5 c 128,-1,51
 118 320 118 320 92 336 c 128,-1,52
 66 352 66 352 60 359 c 0,53,54
 55 365 55 365 55 372 c 0,55,56
 55 375 55 375 57 390 c 0,57,58
 58 400 58 400 70 408 c 128,-1,59
 82 416 82 416 89 412.5 c 128,-1,60
 96 409 96 409 100 402 c 0,61,62
 111 382 111 382 121.5 382 c 128,-1,0
 132 382 132 382 143 370 c 128,-1,1
EndSplineSet
Validated: 1
EndChar

StartChar: comma
Encoding: 44 44 15
Width: 242
GlyphClass: 2
Flags: W
LayerCount: 2
Fore
SplineSet
156 155 m 1,0,1
 171 149 171 149 171 92 c 128,-1,2
 171 35 171 35 169.5 23.5 c 128,-1,3
 168 12 168 12 154 0 c 128,-1,4
 140 -12 140 -12 140 -22.5 c 128,-1,5
 140 -33 140 -33 116.5 -55 c 128,-1,6
 93 -77 93 -77 86 -77 c 128,-1,7
 79 -77 79 -77 74 -74 c 0,8,9
 55 -62 55 -62 55 -46.5 c 128,-1,10
 55 -31 55 -31 76.5 -13 c 128,-1,11
 98 5 98 5 103.5 18 c 128,-1,12
 109 31 109 31 113 79 c 128,-1,13
 117 127 117 127 129 141 c 128,-1,14
 141 155 141 155 153 155 c 2,15,-1
 156 155 l 1,0,1
EndSplineSet
Validated: 1
EndChar

StartChar: hyphen
Encoding: 45 45 16
Width: 332
GlyphClass: 2
Flags: W
LayerCount: 2
Fore
SplineSet
95 228 m 0,0,1
 72 228 72 228 64 248 c 0,2,3
 62 253 62 253 62 259.5 c 128,-1,4
 62 266 62 266 68 272 c 0,5,6
 76 282 76 282 140 282 c 128,-1,7
 204 282 204 282 235 267.5 c 128,-1,8
 266 253 266 253 266 239 c 0,9,10
 266 233 266 233 261 228 c 128,-1,11
 256 223 256 223 246 223 c 128,-1,12
 236 223 236 223 211 231.5 c 128,-1,13
 186 240 186 240 178 240 c 0,14,15
 163 240 l 0,16,17
 162 241 l 0,18,19
 153 241 153 241 131 234.5 c 128,-1,20
 109 228 109 228 95 228 c 0,0,1
EndSplineSet
Validated: 1
EndChar

StartChar: period
Encoding: 46 46 17
Width: 206
GlyphClass: 2
Flags: W
LayerCount: 2
Fore
SplineSet
118 162 m 0,0,1
 119 162 119 162 120 162 c 0,2,3
 134 162 134 162 137 137 c 1,4,-1
 137 118 l 2,5,6
 137 104 137 104 122.5 77 c 128,-1,7
 108 50 108 50 94.5 50 c 128,-1,8
 81 50 81 50 70 61.5 c 128,-1,9
 59 73 59 73 59 90 c 128,-1,10
 59 107 59 107 81.5 134.5 c 128,-1,11
 104 162 104 162 118 162 c 0,0,1
EndSplineSet
Validated: 1
EndChar

StartChar: slash
Encoding: 47 47 18
Width: 563
GlyphClass: 2
Flags: W
LayerCount: 2
Fore
SplineSet
55 136 m 0,0,1
 49 136 49 136 49 145 c 128,-1,2
 49 154 49 154 124.5 239.5 c 128,-1,3
 200 325 200 325 287 413 c 1,4,5
 356 485 356 485 356 490 c 128,-1,6
 356 495 356 495 364 502 c 0,7,8
 396 532 396 532 444.5 604.5 c 128,-1,9
 493 677 493 677 503 677 c 0,10,11
 516 677 516 677 516 668 c 0,12,13
 516 664 516 664 514 659.5 c 128,-1,14
 512 655 512 655 482.5 611 c 128,-1,15
 453 567 453 567 435.5 539 c 128,-1,16
 418 511 418 511 322.5 407 c 128,-1,17
 227 303 227 303 217 291 c 1,18,19
 201 269 201 269 136 202.5 c 128,-1,20
 71 136 71 136 55 136 c 0,0,1
EndSplineSet
Validated: 1
EndChar

StartChar: zero
Encoding: 48 48 19
Width: 544
GlyphClass: 2
Flags: W
LayerCount: 2
Fore
SplineSet
116 395 m 1,0,1
 134 429 134 429 134 433.5 c 128,-1,2
 134 438 134 438 150.5 466 c 128,-1,3
 167 494 167 494 167 518 c 128,-1,4
 167 542 167 542 184.5 578 c 128,-1,5
 202 614 202 614 223 636.5 c 128,-1,6
 244 659 244 659 257 659 c 0,7,8
 260 659 260 659 262 658 c 0,9,10
 276 652 276 652 276 638 c 0,11,12
 276 621 276 621 255 592 c 0,13,14
 237 566 237 566 232 541 c 128,-1,15
 227 516 227 516 209.5 477.5 c 128,-1,16
 192 439 192 439 182.5 427.5 c 128,-1,17
 173 416 173 416 165 376 c 128,-1,18
 157 336 157 336 147 324.5 c 128,-1,19
 137 313 137 313 122.5 268.5 c 128,-1,20
 108 224 108 224 108 205.5 c 128,-1,21
 108 187 108 187 135 169 c 128,-1,22
 162 151 162 151 186.5 151 c 128,-1,23
 211 151 211 151 225 160 c 1,24,25
 236 169 236 169 249.5 171 c 128,-1,26
 263 173 263 173 274.5 180.5 c 128,-1,27
 286 188 286 188 297.5 210.5 c 128,-1,28
 309 233 309 233 318 247.5 c 128,-1,29
 327 262 327 262 332.5 267.5 c 128,-1,30
 338 273 338 273 341 278.5 c 128,-1,31
 344 284 344 284 344 288.5 c 128,-1,32
 344 293 344 293 355.5 307 c 128,-1,33
 367 321 367 321 371.5 342.5 c 128,-1,34
 376 364 376 364 393 391.5 c 128,-1,35
 410 419 410 419 410 427.5 c 128,-1,36
 410 436 410 436 421.5 468 c 128,-1,37
 433 500 433 500 438.5 505.5 c 128,-1,38
 444 511 444 511 444 540.5 c 128,-1,39
 444 570 444 570 439 580.5 c 128,-1,40
 434 591 434 591 412.5 608.5 c 128,-1,41
 391 626 391 626 367 626 c 128,-1,42
 343 626 343 626 328.5 633.5 c 128,-1,43
 314 641 314 641 310.5 659.5 c 128,-1,44
 307 678 307 678 313.5 685 c 128,-1,45
 320 692 320 692 335.5 692 c 128,-1,46
 351 692 351 692 379 689 c 128,-1,47
 407 686 407 686 421 679.5 c 128,-1,48
 435 673 435 673 455 651.5 c 128,-1,49
 475 630 475 630 483.5 621 c 128,-1,50
 492 612 492 612 492 601 c 2,51,-1
 492 588 l 1,52,53
 487 572 487 572 482.5 518 c 128,-1,54
 478 464 478 464 469 447 c 128,-1,55
 460 430 460 430 460 401.5 c 128,-1,56
 460 373 460 373 440 335.5 c 128,-1,57
 420 298 420 298 395 262.5 c 128,-1,58
 370 227 370 227 365 210 c 128,-1,59
 360 193 360 193 321.5 153 c 128,-1,60
 283 113 283 113 269.5 105 c 128,-1,61
 256 97 256 97 237 97 c 128,-1,62
 218 97 218 97 206 93 c 128,-1,63
 194 89 194 89 191.5 85.5 c 128,-1,64
 189 82 189 82 184 82 c 1,65,-1
 183 81 l 1,66,67
 178 81 178 81 174 87 c 1,68,69
 164 97 164 97 142 97 c 0,70,71
 141 97 141 97 140 97 c 0,72,73
 120 97 120 97 99 116 c 0,74,75
 53 156 53 156 52 211 c 1,76,-1
 52 230 l 1,77,78
 56 273 56 273 69 296 c 128,-1,79
 82 319 82 319 91 339 c 2,80,-1
 116 395 l 1,0,1
EndSplineSet
Validated: 1
EndChar

StartChar: one
Encoding: 49 49 20
Width: 523
GlyphClass: 2
Flags: W
LayerCount: 2
Fore
SplineSet
288 587 m 128,-1,1
 330 618 330 618 381.5 643.5 c 128,-1,2
 433 669 433 669 454.5 669 c 128,-1,3
 476 669 476 669 476 656 c 0,4,5
 476 651 476 651 460 632.5 c 128,-1,6
 444 614 444 614 440.5 597.5 c 128,-1,7
 437 581 437 581 415 544 c 128,-1,8
 393 507 393 507 383.5 481.5 c 128,-1,9
 374 456 374 456 366.5 441 c 128,-1,10
 359 426 359 426 352 417 c 128,-1,11
 345 408 345 408 345 387 c 128,-1,12
 345 366 345 366 336.5 361 c 128,-1,13
 328 356 328 356 316 327 c 128,-1,14
 304 298 304 298 304 285.5 c 128,-1,15
 304 273 304 273 291.5 258.5 c 128,-1,16
 279 244 279 244 275 221 c 128,-1,17
 271 198 271 198 265 177.5 c 128,-1,18
 259 157 259 157 255.5 147 c 128,-1,19
 252 137 252 137 250.5 127.5 c 128,-1,20
 249 118 249 118 255.5 110.5 c 128,-1,21
 262 103 262 103 292.5 94.5 c 128,-1,22
 323 86 323 86 332 80.5 c 128,-1,23
 341 75 341 75 341 66 c 0,24,25
 342 50 342 50 324 48 c 0,26,27
 322 48 322 48 312 48 c 0,28,29
 311 47 l 0,30,31
 301 47 301 47 282 59 c 1,32,33
 263 68 263 68 256 68 c 0,34,35
 251 69 251 69 238 58 c 0,36,37
 220 43 220 43 94 43 c 0,38,39
 88 43 88 43 82 43 c 0,40,41
 77 43 77 43 73 43 c 0,42,43
 49 43 49 43 47 48 c 0,44,45
 44 53 44 53 44 58 c 0,46,47
 44 64 44 64 48 68 c 0,48,49
 56 76 56 76 71 77 c 128,-1,50
 86 78 86 78 138 83.5 c 128,-1,51
 190 89 190 89 201.5 93.5 c 128,-1,52
 213 98 213 98 221 114.5 c 128,-1,53
 229 131 229 131 237.5 184 c 128,-1,54
 246 237 246 237 255.5 251.5 c 128,-1,55
 265 266 265 266 275.5 299.5 c 128,-1,56
 286 333 286 333 310.5 388.5 c 128,-1,57
 335 444 335 444 367 507.5 c 128,-1,58
 399 571 399 571 408.5 589.5 c 128,-1,59
 418 608 418 608 418 614 c 128,-1,60
 418 620 418 620 410.5 620 c 128,-1,61
 403 620 403 620 386.5 611 c 128,-1,62
 370 602 370 602 346 582 c 128,-1,63
 322 562 322 562 315.5 562 c 128,-1,64
 309 562 309 562 293.5 547 c 128,-1,65
 278 532 278 532 263 532 c 2,66,-1
 262 532 l 2,67,68
 246 532 246 532 246 544 c 128,-1,0
 246 556 246 556 288 587 c 128,-1,1
EndSplineSet
Validated: 1
EndChar

StartChar: two
Encoding: 50 50 21
Width: 461
GlyphClass: 2
Flags: W
LayerCount: 2
Fore
SplineSet
211.5 647 m 128,-1,1
 247 680 247 680 261 685 c 128,-1,2
 275 690 275 690 293 692 c 1,3,-1
 318 692 l 2,4,5
 358 692 358 692 370 685 c 1,6,7
 407 667 407 667 407 571 c 0,8,9
 407 515 407 515 398.5 495.5 c 128,-1,10
 390 476 390 476 378 432.5 c 128,-1,11
 366 389 366 389 359.5 385.5 c 128,-1,12
 353 382 353 382 353 350 c 128,-1,13
 353 318 353 318 319 256.5 c 128,-1,14
 285 195 285 195 281.5 180.5 c 128,-1,15
 278 166 278 166 288.5 159.5 c 128,-1,16
 299 153 299 153 341 149 c 0,17,18
 381 145 381 145 381 135 c 0,19,20
 381 134 l 1,21,22
 381 128 381 128 366.5 118.5 c 128,-1,23
 352 109 352 109 341 109 c 128,-1,24
 330 109 330 109 302.5 115.5 c 128,-1,25
 275 122 275 122 260.5 122.5 c 128,-1,26
 246 123 246 123 234 123 c 128,-1,27
 222 123 222 123 209 118 c 0,28,29
 180 108 180 108 170 96.5 c 128,-1,30
 160 85 160 85 149.5 85 c 128,-1,31
 139 85 139 85 131 89 c 1,32,33
 108 97 108 97 108.5 105.5 c 128,-1,34
 109 114 109 114 90 121.5 c 128,-1,35
 71 129 71 129 61 161 c 128,-1,36
 51 193 51 193 51 211.5 c 128,-1,37
 51 230 51 230 54 249 c 128,-1,38
 57 268 57 268 81.5 300.5 c 128,-1,39
 106 333 106 333 120.5 333 c 128,-1,40
 135 333 135 333 172.5 288 c 128,-1,41
 210 243 210 243 210 225.5 c 128,-1,42
 210 208 210 208 222 199 c 0,43,44
 225 197 225 197 229 197 c 0,45,46
 240 197 240 197 259 224 c 128,-1,47
 278 251 278 251 282 269 c 128,-1,48
 286 287 286 287 302.5 315.5 c 128,-1,49
 319 344 319 344 319 358 c 0,50,51
 319 377 319 377 337 418 c 128,-1,52
 355 459 355 459 367 572 c 0,53,54
 368 581 368 581 368 590 c 0,55,56
 368 637 368 637 340 664 c 0,57,58
 326 677 326 677 311.5 677 c 128,-1,59
 297 677 297 677 282 660 c 128,-1,60
 267 643 267 643 254 643 c 128,-1,61
 241 643 241 643 208.5 598.5 c 128,-1,62
 176 554 176 554 176 540.5 c 128,-1,63
 176 527 176 527 163 508.5 c 128,-1,64
 150 490 150 490 152 483.5 c 128,-1,65
 154 477 154 477 156 477 c 0,66,67
 167 477 167 477 216 522 c 128,-1,68
 265 567 265 567 269.5 567 c 128,-1,69
 274 567 274 567 279.5 561.5 c 128,-1,70
 285 556 285 556 284 545.5 c 128,-1,71
 283 535 283 535 263.5 522.5 c 128,-1,72
 244 510 244 510 210 477.5 c 128,-1,73
 176 445 176 445 175.5 437 c 128,-1,74
 175 429 175 429 147 395 c 1,75,-1
 127 377 l 1,76,-1
 109 385 l 2,77,78
 104 387 104 387 104 411.5 c 128,-1,79
 104 436 104 436 113 475.5 c 128,-1,80
 122 515 122 515 149 555.5 c 128,-1,81
 176 596 176 596 176 605 c 128,-1,0
 176 614 176 614 211.5 647 c 128,-1,1
149 250 m 1,82,83
 124 281 124 281 114.5 281 c 128,-1,84
 105 281 105 281 95 265.5 c 128,-1,85
 85 250 85 250 85 225.5 c 128,-1,86
 85 201 85 201 110 162.5 c 128,-1,87
 135 124 135 124 155 124 c 0,88,89
 165 124 165 124 173.5 132 c 128,-1,90
 182 140 182 140 182 154 c 0,91,92
 182 205 182 205 149 250 c 1,82,83
EndSplineSet
Validated: 1
EndChar

StartChar: three
Encoding: 51 51 22
Width: 595
GlyphClass: 2
Flags: W
LayerCount: 2
Fore
SplineSet
290.5 415.5 m 128,-1,1
 286 423 286 423 278 423 c 128,-1,2
 270 423 270 423 266.5 415 c 128,-1,3
 263 407 263 407 270.5 402.5 c 128,-1,4
 278 398 278 398 286.5 403 c 128,-1,0
 295 408 295 408 290.5 415.5 c 128,-1,1
475 630 m 128,-1,6
 475 635 475 635 451 635 c 128,-1,7
 427 635 427 635 342 628 c 0,8,9
 255 620 255 620 242 614 c 0,10,11
 227 607 227 607 215 607 c 0,12,13
 206 607 206 607 200 611 c 0,14,15
 187 620 187 620 189.5 635 c 128,-1,16
 192 650 192 650 203 653 c 128,-1,17
 214 656 214 656 256.5 657.5 c 128,-1,18
 299 659 299 659 320.5 663.5 c 128,-1,19
 342 668 342 668 380 668 c 0,20,21
 542 668 542 668 546 656 c 0,22,23
 547 653 547 653 547 650 c 128,-1,24
 547 647 547 647 542 644 c 0,25,26
 507 624 507 624 488 599.5 c 128,-1,27
 469 575 469 575 401 505 c 0,28,29
 372 474 372 474 372 461 c 0,30,31
 372 458 372 458 373 456 c 1,32,33
 376 454 376 454 393 448 c 0,34,35
 431 436 431 436 477 391 c 2,36,-1
 516 354 l 1,37,-1
 516 295 l 2,38,39
 516 237 516 237 499.5 216 c 128,-1,40
 483 195 483 195 483 183.5 c 128,-1,41
 483 172 483 172 444.5 133 c 128,-1,42
 406 94 406 94 374 72.5 c 128,-1,43
 342 51 342 51 330.5 48.5 c 128,-1,44
 319 46 319 46 301.5 46 c 128,-1,45
 284 46 284 46 248 48 c 128,-1,46
 212 50 212 50 194.5 52.5 c 128,-1,47
 177 55 177 55 161 64.5 c 128,-1,48
 145 74 145 74 125.5 81 c 128,-1,49
 106 88 106 88 77.5 113 c 128,-1,50
 49 138 49 138 49 150 c 0,51,52
 50 172 50 172 118 182 c 0,53,54
 160 188 160 188 211 188 c 128,-1,55
 262 188 262 188 310 186 c 0,56,57
 330 185 330 185 338.5 175 c 128,-1,58
 347 165 347 165 342.5 153 c 128,-1,59
 338 141 338 141 333.5 141 c 128,-1,60
 329 141 329 141 310.5 150.5 c 128,-1,61
 292 160 292 160 254 160 c 0,62,63
 92 160 92 160 92 136 c 0,64,65
 92 126 92 126 130 109 c 128,-1,66
 168 92 168 92 189.5 87.5 c 128,-1,67
 211 83 211 83 262 83 c 2,68,-1
 340 83 l 1,69,-1
 389 123 l 2,70,71
 438 162 438 162 448.5 179 c 128,-1,72
 459 196 459 196 469 207 c 128,-1,73
 479 218 479 218 482.5 234 c 128,-1,74
 486 250 486 250 486 289 c 128,-1,75
 486 328 486 328 482.5 342 c 128,-1,76
 479 356 479 356 463.5 373 c 128,-1,77
 448 390 448 390 440.5 390 c 128,-1,78
 433 390 433 390 427 396 c 0,79,80
 405 417 405 417 378 420 c 0,81,82
 354 423 354 423 344 423 c 0,83,84
 343 423 343 423 342 422 c 0,85,86
 334 422 334 422 327 421 c 0,87,88
 312 419 312 419 290.5 376.5 c 128,-1,89
 269 334 269 334 262 333 c 1,90,91
 244 333 244 333 241 379 c 1,92,-1
 241 392 l 2,93,94
 241 428 241 428 252.5 442 c 128,-1,95
 264 456 264 456 299.5 456 c 128,-1,96
 335 456 335 456 342 468.5 c 128,-1,97
 349 481 349 481 382.5 519 c 128,-1,98
 416 557 416 557 445.5 591 c 128,-1,5
 475 625 475 625 475 630 c 128,-1,6
EndSplineSet
Validated: 1
EndChar

StartChar: four
Encoding: 52 52 23
Width: 448
GlyphClass: 2
Flags: W
LayerCount: 2
Fore
SplineSet
443 338 m 0,0,1
 443 337 443 337 443 336 c 128,-1,2
 443 335 443 335 443 334 c 0,3,4
 443 326 443 326 426 308 c 0,5,6
 405 286 405 286 380 280 c 0,7,8
 354 273 354 273 347.5 263 c 128,-1,9
 341 253 341 253 331.5 216.5 c 128,-1,10
 322 180 322 180 315 144.5 c 128,-1,11
 308 109 308 109 304.5 96 c 128,-1,12
 301 83 301 83 294.5 78 c 128,-1,13
 288 73 288 73 284 73 c 0,14,15
 277 73 277 73 277 87 c 0,16,17
 277 108 277 108 291 154 c 0,18,19
 320 250 320 250 320 268 c 0,20,21
 320 269 320 269 320 270 c 1,22,23
 320 285 320 285 314 294 c 0,24,25
 288 333 288 333 247 368 c 0,26,27
 189 417 189 417 189 449 c 0,28,29
 189 458 189 458 194 466 c 0,30,31
 216 501 216 501 249 534 c 0,32,33
 267 552 267 552 274 573 c 0,34,35
 276 579 276 579 288 598 c 0,36,37
 311 634 311 634 311 652 c 1,38,-1
 311 674 l 1,39,40
 311 688 311 688 319 694 c 128,-1,41
 327 700 327 700 331 701 c 1,42,43
 342 701 342 701 342 672 c 0,44,45
 342 644 342 644 311 589 c 128,-1,46
 280 534 280 534 246.5 497 c 128,-1,47
 213 460 213 460 213 444 c 128,-1,48
 213 428 213 428 234 423 c 0,49,50
 242 421 242 421 248 415.5 c 128,-1,51
 254 410 254 410 254 404 c 0,52,53
 254 388 254 388 283 359 c 128,-1,54
 312 330 312 330 322 330 c 0,55,56
 351 330 351 330 351 521 c 0,57,58
 351 667 351 667 390 667 c 1,59,-1
 398 665 l 1,60,61
 407 659 407 659 393 642 c 128,-1,62
 379 625 379 625 379 565.5 c 128,-1,63
 379 506 379 506 369 434 c 0,64,65
 358 357 358 357 345 324 c 0,66,67
 343 319 343 319 343 314 c 0,68,69
 343 303 343 303 359 303 c 0,70,71
 393 303 393 303 419 339 c 1,72,73
 431 352 431 352 437 352 c 0,74,75
 443 352 443 352 443 338 c 0,0,1
EndSplineSet
Validated: 1
EndChar

StartChar: five
Encoding: 53 53 24
Width: 739
GlyphClass: 2
Flags: W
LayerCount: 2
Fore
SplineSet
60 215 m 1,0,1
 68 218 68 218 79 218 c 128,-1,2
 90 218 90 218 138.5 203.5 c 128,-1,3
 187 189 187 189 201 189 c 128,-1,4
 215 189 215 189 251 177 c 128,-1,5
 287 165 287 165 313 165 c 128,-1,6
 339 165 339 165 348 170.5 c 128,-1,7
 357 176 357 176 370 198 c 1,8,9
 394 234 394 234 394 288 c 128,-1,10
 394 342 394 342 375 371 c 1,11,12
 357 402 357 402 325.5 423 c 128,-1,13
 294 444 294 444 272.5 446 c 128,-1,14
 251 448 251 448 242.5 448 c 128,-1,15
 234 448 234 448 225 445.5 c 128,-1,16
 216 443 216 443 200 428 c 1,17,18
 180 412 180 412 172.5 412 c 128,-1,19
 165 412 165 412 161.5 415.5 c 128,-1,20
 158 419 158 419 158 424 c 0,21,22
 157 433 157 433 165 439.5 c 128,-1,23
 173 446 173 446 185 469 c 128,-1,24
 197 492 197 492 222.5 521.5 c 128,-1,25
 248 551 248 551 269 575 c 128,-1,26
 290 599 290 599 290 603.5 c 128,-1,27
 290 608 290 608 312.5 620 c 128,-1,28
 335 632 335 632 341 631.5 c 128,-1,29
 347 631 347 631 359 622 c 1,30,31
 370 611 370 611 386 611 c 0,32,33
 409 611 409 611 435 615 c 0,34,35
 581 637 581 637 640 675 c 0,36,37
 671 695 671 695 684 695 c 0,38,39
 693 695 693 695 693 685 c 0,40,41
 693 682 693 682 690 672 c 0,42,43
 682 640 682 640 595 616 c 128,-1,44
 508 592 508 592 430.5 589.5 c 128,-1,45
 353 587 353 587 339.5 583.5 c 128,-1,46
 326 580 326 580 319 565.5 c 128,-1,47
 312 551 312 551 303 551 c 128,-1,48
 294 551 294 551 284 532.5 c 128,-1,49
 274 514 274 514 274 501 c 0,50,51
 274 496 274 496 303 487 c 128,-1,52
 332 478 332 478 347.5 465 c 128,-1,53
 363 452 363 452 389 418 c 2,54,-1
 434 361 l 1,55,-1
 430 203 l 1,56,-1
 453 200 l 2,57,58
 477 197 477 197 475 185 c 0,59,60
 473 170 473 170 434 163 c 128,-1,61
 395 156 395 156 366 123 c 0,62,63
 304 54 304 54 234.5 54 c 128,-1,64
 165 54 165 54 88 137 c 0,65,66
 55 173 55 173 51.5 182.5 c 128,-1,67
 48 192 48 192 48 199 c 128,-1,68
 48 206 48 206 60 215 c 1,0,1
247 144 m 1,69,70
 234 149 234 149 205 156 c 128,-1,71
 176 163 176 163 161 163 c 0,72,73
 153 163 153 163 149 145 c 1,74,75
 149 132 149 132 176.5 112 c 128,-1,76
 204 92 204 92 250 92 c 0,77,78
 268 92 268 92 287 98.5 c 128,-1,79
 306 105 306 105 306 114 c 0,80,81
 306 128 306 128 247 144 c 1,69,70
EndSplineSet
Validated: 1
EndChar

StartChar: six
Encoding: 54 54 25
Width: 472
GlyphClass: 2
Flags: W
LayerCount: 2
Fore
SplineSet
146 522 m 0,0,1
 164 552 164 552 231.5 625.5 c 128,-1,2
 299 699 299 699 310 699 c 2,3,-1
 311 699 l 1,4,5
 322 696 322 696 320.5 672 c 128,-1,6
 319 648 319 648 308 648 c 0,7,8
 294 648 294 648 246 597 c 128,-1,9
 198 546 198 546 181.5 517.5 c 128,-1,10
 165 489 165 489 154.5 474 c 128,-1,11
 144 459 144 459 139 454 c 0,12,13
 129 442 129 442 122.5 408.5 c 128,-1,14
 116 375 116 375 94 331 c 0,15,16
 86 317 86 317 86 280 c 128,-1,17
 86 243 86 243 95 243 c 256,18,19
 103 243 103 243 103 250.5 c 128,-1,20
 103 258 103 258 139 297 c 128,-1,21
 175 336 175 336 191 347 c 128,-1,22
 207 358 207 358 227 361.5 c 128,-1,23
 247 365 247 365 261.5 373.5 c 128,-1,24
 276 382 276 382 312 382 c 128,-1,25
 348 382 348 382 358 378.5 c 128,-1,26
 368 375 368 375 378.5 359 c 128,-1,27
 389 343 389 343 395.5 312.5 c 128,-1,28
 402 282 402 282 409.5 277.5 c 128,-1,29
 417 273 417 273 417 262 c 0,30,31
 417 228 417 228 341 143 c 2,32,-1
 291 87 l 1,33,-1
 194 87 l 2,34,35
 102 87 102 87 82 104 c 0,36,37
 77 108 77 108 70 126 c 0,38,39
 62 146 62 146 58 184 c 0,40,41
 54 233 54 233 54 237 c 0,42,43
 54 238 l 0,44,45
 54 265 54 265 85 402 c 0,46,47
 92 433 92 433 146 522 c 0,0,1
341 329 m 0,48,49
 319 340 319 340 296 340 c 0,50,51
 217 340 217 340 177 304 c 0,52,53
 155 284 155 284 122 238 c 0,54,55
 86 189 86 189 86 178 c 128,-1,56
 86 167 86 167 104 143 c 1,57,58
 116 124 116 124 124 122.5 c 128,-1,59
 132 121 132 121 147 121 c 128,-1,60
 162 121 162 121 209 123.5 c 128,-1,61
 256 126 256 126 279.5 136 c 128,-1,62
 303 146 303 146 342.5 189.5 c 128,-1,63
 382 233 382 233 382 270 c 0,64,65
 382 308 382 308 341 329 c 0,48,49
EndSplineSet
Validated: 1
EndChar

StartChar: seven
Encoding: 55 55 26
Width: 500
GlyphClass: 2
Flags: W
LayerCount: 2
Fore
SplineSet
107.5 585 m 128,-1,1
 117 609 117 609 128 609 c 128,-1,2
 139 609 139 609 176.5 643 c 128,-1,3
 214 677 214 677 216 677 c 128,-1,4
 218 677 218 677 249 651.5 c 128,-1,5
 280 626 280 626 289.5 622 c 128,-1,6
 299 618 299 618 308.5 618 c 128,-1,7
 318 618 318 618 334.5 620 c 128,-1,8
 351 622 351 622 377.5 632 c 128,-1,9
 404 642 404 642 423 650.5 c 128,-1,10
 442 659 442 659 447 659.5 c 128,-1,11
 452 660 452 660 452 644 c 128,-1,12
 452 628 452 628 438.5 609.5 c 128,-1,13
 425 591 425 591 411.5 558.5 c 128,-1,14
 398 526 398 526 394 521 c 128,-1,15
 390 516 390 516 381.5 479.5 c 128,-1,16
 373 443 373 443 358.5 416.5 c 128,-1,17
 344 390 344 390 343.5 373 c 128,-1,18
 343 356 343 356 326.5 320 c 128,-1,19
 310 284 310 284 310 268 c 128,-1,20
 310 252 310 252 302 243.5 c 128,-1,21
 294 235 294 235 285 200 c 128,-1,22
 276 165 276 165 274 137 c 128,-1,23
 272 109 272 109 257 108 c 1,24,-1
 251 108 l 2,25,26
 242 108 242 108 242 137.5 c 128,-1,27
 242 167 242 167 247.5 185 c 128,-1,28
 253 203 253 203 267 236.5 c 128,-1,29
 281 270 281 270 292 307.5 c 128,-1,30
 303 345 303 345 322.5 397 c 128,-1,31
 342 449 342 449 348 477 c 128,-1,32
 354 505 354 505 366 525 c 0,33,34
 385 557 385 557 385 579 c 128,-1,35
 385 601 385 601 372 601 c 0,36,37
 364 601 364 601 358.5 595.5 c 128,-1,38
 353 590 353 590 338 590 c 128,-1,39
 323 590 323 590 304 592 c 0,40,41
 260 595 260 595 240.5 615 c 128,-1,42
 221 635 221 635 210.5 635 c 128,-1,43
 200 635 200 635 158 586.5 c 128,-1,44
 116 538 116 538 112 519 c 0,45,46
 100 461 100 461 87 433.5 c 128,-1,47
 74 406 74 406 70 394 c 128,-1,48
 66 382 66 382 59 382 c 1,49,50
 52 384 52 384 52 392.5 c 128,-1,51
 52 401 52 401 54 407.5 c 128,-1,52
 56 414 56 414 62 444 c 128,-1,53
 68 474 68 474 74 485.5 c 128,-1,54
 80 497 80 497 89 529 c 128,-1,0
 98 561 98 561 107.5 585 c 128,-1,1
EndSplineSet
Validated: 1
EndChar

StartChar: eight
Encoding: 56 56 27
Width: 409
GlyphClass: 2
Flags: W
LayerCount: 2
Fore
SplineSet
172 654 m 0,0,1
 205 676 205 676 238 676 c 128,-1,2
 271 676 271 676 281 664 c 128,-1,3
 291 652 291 652 308 645 c 0,4,5
 347 628 347 628 358 577 c 0,6,7
 359 572 359 572 359 566 c 0,8,9
 359 546 359 546 343 543 c 1,10,11
 323 537 323 537 263 461 c 1,12,13
 237 431 237 431 220 415 c 2,14,-1
 195 391 l 1,15,-1
 217 354 l 2,16,17
 238 318 238 318 238 286 c 0,18,19
 238 177 238 177 165 126 c 0,20,21
 135 106 135 106 122.5 106 c 128,-1,22
 110 106 110 106 91.5 116 c 128,-1,23
 73 126 73 126 64 142.5 c 128,-1,24
 55 159 55 159 55 199 c 128,-1,25
 55 239 55 239 58 260 c 128,-1,26
 61 281 61 281 71 302 c 128,-1,27
 81 323 81 323 93 336 c 0,28,29
 113 359 113 359 116 362 c 0,30,31
 139 385 139 385 139 399 c 0,32,33
 138 399 l 0,34,35
 138 413 138 413 122 433 c 128,-1,36
 106 453 106 453 105.5 463 c 128,-1,37
 105 473 105 473 83 500 c 1,38,-1
 75 526 l 1,39,-1
 83 552 l 1,40,41
 105 577 105 577 105 587 c 0,42,43
 105 588 l 1,44,45
 105 607 105 607 172 654 c 0,0,1
230 464 m 0,46,47
 273 506 273 506 292 531 c 0,48,49
 313 560 313 560 313 583 c 128,-1,50
 313 606 313 606 287 626 c 128,-1,51
 261 646 261 646 253 647.5 c 128,-1,52
 245 649 245 649 235.5 649 c 128,-1,53
 226 649 226 649 201.5 645.5 c 128,-1,54
 177 642 177 642 145 601.5 c 128,-1,55
 113 561 113 561 113 537 c 128,-1,56
 113 513 113 513 117.5 505 c 128,-1,57
 122 497 122 497 132 484 c 128,-1,58
 142 471 142 471 149 456.5 c 128,-1,59
 156 442 156 442 164.5 434 c 128,-1,60
 173 426 173 426 181 426 c 0,61,-1
 181 425 l 0,62,63
 190 425 190 425 230 464 c 0,46,47
129 145 m 2,64,65
 147 145 147 145 171 171 c 128,-1,66
 195 197 195 197 199.5 212.5 c 128,-1,67
 204 228 204 228 204 266.5 c 128,-1,68
 204 305 204 305 200.5 317 c 128,-1,69
 197 329 197 329 182 344 c 2,70,-1
 158 366 l 1,71,-1
 133 339 l 2,72,73
 107 311 107 311 98 292 c 128,-1,74
 89 273 89 273 82 260.5 c 128,-1,75
 75 248 75 248 75 232 c 0,76,77
 75 145 75 145 128 145 c 2,78,-1
 129 145 l 2,64,65
EndSplineSet
Validated: 1
EndChar

StartChar: nine
Encoding: 57 57 28
Width: 505
GlyphClass: 2
Flags: W
LayerCount: 2
Fore
SplineSet
118 598 m 1,0,1
 237 694 237 694 329 694 c 0,2,3
 372 694 372 694 410 673 c 1,4,-1
 445 652 l 1,5,-1
 450 591 l 2,6,7
 452 567 452 567 452 546.5 c 128,-1,8
 452 526 452 526 448.5 503 c 128,-1,9
 445 480 445 480 435.5 472 c 128,-1,10
 426 464 426 464 415 460.5 c 128,-1,11
 404 457 404 457 396 449.5 c 128,-1,12
 388 442 388 442 388 422.5 c 128,-1,13
 388 403 388 403 375 334.5 c 128,-1,14
 362 266 362 266 362 252 c 128,-1,15
 362 238 362 238 354 227 c 128,-1,16
 346 216 346 216 345.5 182 c 128,-1,17
 345 148 345 148 330.5 100 c 128,-1,18
 316 52 316 52 306 49 c 0,19,20
 303 48 303 48 301 48 c 0,21,22
 291 48 291 48 291 67.5 c 128,-1,23
 291 87 291 87 300.5 127.5 c 128,-1,24
 310 168 310 168 317 250 c 128,-1,25
 324 332 324 332 332 349 c 128,-1,26
 340 366 340 366 334.5 370 c 128,-1,27
 329 374 329 374 312 358 c 0,28,29
 244 298 244 298 217 284.5 c 128,-1,30
 190 271 190 271 172.5 271 c 128,-1,31
 155 271 155 271 134.5 276 c 128,-1,32
 114 281 114 281 96 300.5 c 128,-1,33
 78 320 78 320 69 346 c 128,-1,34
 60 372 60 372 60 422 c 128,-1,35
 60 472 60 472 63 489.5 c 128,-1,36
 66 507 66 507 68 521 c 128,-1,37
 70 535 70 535 75.5 545.5 c 128,-1,38
 81 556 81 556 84 563 c 128,-1,39
 87 570 87 570 93 578 c 1,40,-1
 102 586 l 2,41,42
 114 598 114 598 118 598 c 1,0,1
337.5 428 m 128,-1,44
 353 452 353 452 365 497 c 0,45,46
 385 572 385 572 385 613 c 0,47,48
 385 626 385 626 366.5 638.5 c 128,-1,49
 348 651 348 651 320 651 c 128,-1,50
 292 651 292 651 279.5 643 c 128,-1,51
 267 635 267 635 246 635 c 128,-1,52
 225 635 225 635 185 603 c 128,-1,53
 145 571 145 571 127 545.5 c 128,-1,54
 109 520 109 520 104.5 502.5 c 128,-1,55
 100 485 100 485 100 464 c 2,56,-1
 100 439 l 2,57,58
 100 396 100 396 110.5 372 c 128,-1,59
 121 348 121 348 149 329 c 0,60,61
 161 321 161 321 171 321 c 2,62,-1
 172 321 l 1,63,64
 182 322 182 322 212.5 331.5 c 128,-1,65
 243 341 243 341 282.5 372.5 c 128,-1,43
 322 404 322 404 337.5 428 c 128,-1,44
EndSplineSet
Validated: 1
EndChar

StartChar: colon
Encoding: 58 58 29
Width: 448
GlyphClass: 2
Flags: W
LayerCount: 2
Fore
SplineSet
138 400 m 0,0,1
 137 408 137 408 137 413 c 0,2,3
 137 434 137 434 155 434 c 2,4,-1
 168 434 l 2,5,6
 183 434 183 434 197 422 c 0,7,8
 202 417 202 417 202 411 c 128,-1,9
 202 405 202 405 201 401 c 0,10,11
 198 386 198 386 170 386 c 0,12,13
 169 386 169 386 168 385 c 0,14,15
 166 385 166 385 165 385 c 0,16,17
 140 385 140 385 138 400 c 0,0,1
87 81 m 1,18,19
 73 85 73 85 68 94 c 0,20,21
 55 116 55 116 55 130 c 0,22,23
 55 153 55 153 71 153 c 0,24,25
 76 153 76 153 83 150 c 0,26,27
 112 138 112 138 112 115 c 0,28,29
 112 96 112 96 102 88 c 0,30,31
 94 81 94 81 88 81 c 0,32,33
 87 81 l 1,18,19
EndSplineSet
Validated: 1
EndChar

StartChar: semicolon
Encoding: 59 59 30
Width: 314
GlyphClass: 2
Flags: W
LayerCount: 2
Fore
SplineSet
219 386 m 128,-1,1
 203 394 203 394 196 414 c 0,2,3
 193 422 193 422 193 428 c 0,4,5
 194 436 194 436 198 440 c 0,6,7
 205 447 205 447 210 447 c 0,8,9
 211 447 l 1,10,11
 220 443 220 443 234 434 c 0,12,13
 253 423 253 423 253 398 c 2,14,-1
 253 393 l 2,15,16
 253 385 253 385 248 380 c 0,17,18
 246 378 246 378 242 378 c 0,19,0
 235 378 235 378 219 386 c 128,-1,1
121 117 m 1,20,21
 129 134 129 134 143.5 143 c 128,-1,22
 158 152 158 152 165 152 c 2,23,-1
 166 152 l 2,24,25
 177 152 177 152 177 138 c 128,-1,26
 177 124 177 124 170.5 107 c 128,-1,27
 164 90 164 90 147 57 c 128,-1,28
 130 24 130 24 125 13 c 0,29,30
 102 -39 102 -39 73 -50 c 0,31,32
 69 -52 69 -52 65 -52 c 0,33,34
 54 -52 54 -52 50 -40 c 0,35,36
 50 -38 l 0,37,38
 50 -36 l 1,39,40
 50 -12 50 -12 121 117 c 1,20,21
EndSplineSet
Validated: 1
EndChar

StartChar: less
Encoding: 60 60 31
Width: 597
GlyphClass: 2
Flags: W
LayerCount: 2
Fore
SplineSet
146 360 m 0,0,1
 192 333 192 333 219.5 308.5 c 128,-1,2
 247 284 247 284 256.5 284 c 128,-1,3
 266 284 266 284 288.5 267.5 c 128,-1,4
 311 251 311 251 326 251 c 128,-1,5
 341 251 341 251 359 235 c 128,-1,6
 377 219 377 219 408.5 212 c 128,-1,7
 440 205 440 205 453 205 c 128,-1,8
 466 205 466 205 475.5 211 c 128,-1,9
 485 217 485 217 491 217 c 128,-1,10
 497 217 497 217 507.5 208.5 c 128,-1,11
 518 200 518 200 516.5 192 c 128,-1,12
 515 184 515 184 498 164.5 c 128,-1,13
 481 145 481 145 474.5 142.5 c 128,-1,14
 468 140 468 140 459 140 c 128,-1,15
 450 140 450 140 427 143 c 128,-1,16
 404 146 404 146 358.5 165 c 128,-1,17
 313 184 313 184 313 193 c 0,18,19
 313 199 313 199 292.5 210 c 128,-1,20
 272 221 272 221 241 236 c 128,-1,21
 210 251 210 251 189 267.5 c 128,-1,22
 168 284 168 284 158 284 c 128,-1,23
 148 284 148 284 143.5 295.5 c 128,-1,24
 139 307 139 307 95 332 c 128,-1,25
 51 357 51 357 51 374.5 c 128,-1,26
 51 392 51 392 96 413 c 0,27,28
 255 489 255 489 260 498 c 1,29,30
 264 501 264 501 303.5 515 c 128,-1,31
 343 529 343 529 397 558 c 128,-1,32
 451 587 451 587 463 587 c 128,-1,33
 475 587 475 587 485 599 c 128,-1,34
 495 611 495 611 509 611 c 1,35,-1
 510 610 l 1,36,37
 526 610 526 610 536 600 c 0,38,39
 547 589 547 589 548 584 c 0,40,41
 548 578 548 578 529 562 c 0,42,43
 510 546 510 546 491.5 546 c 128,-1,44
 473 546 473 546 433 521.5 c 128,-1,45
 393 497 393 497 391 497 c 128,-1,46
 389 497 389 497 343.5 476.5 c 128,-1,47
 298 456 298 456 290 456 c 128,-1,48
 282 456 282 456 257.5 439.5 c 128,-1,49
 233 423 233 423 222.5 422.5 c 128,-1,50
 212 422 212 422 173 400.5 c 128,-1,51
 134 379 134 379 134 373.5 c 128,-1,52
 134 368 134 368 146 360 c 0,0,1
EndSplineSet
Validated: 1
EndChar

StartChar: equal
Encoding: 61 61 32
Width: 638
GlyphClass: 2
Flags: W
LayerCount: 2
Fore
SplineSet
62 426 m 0,0,1
 66 430 66 430 129 430 c 0,2,3
 170 430 170 430 236 428 c 0,4,5
 404 424 404 424 470.5 413 c 128,-1,6
 537 402 537 402 556.5 396.5 c 128,-1,7
 576 391 576 391 576 381.5 c 128,-1,8
 576 372 576 372 556 372 c 128,-1,9
 536 372 536 372 491 385 c 128,-1,10
 446 398 446 398 298 398 c 128,-1,11
 150 398 150 398 110 401 c 128,-1,12
 70 404 70 404 64.5 410.5 c 128,-1,13
 59 417 59 417 59 420 c 128,-1,14
 59 423 59 423 62 426 c 0,0,1
225.5 271.5 m 128,-1,16
 185 275 185 275 152 275 c 128,-1,17
 119 275 119 275 107 265.5 c 128,-1,18
 95 256 95 256 84 262 c 0,19,20
 73 267 73 267 73 273 c 2,21,-1
 74 284 l 1,22,23
 76 300 76 300 90.5 306 c 128,-1,24
 105 312 105 312 112 312 c 2,25,-1
 122 312 l 1,26,27
 135 310 135 310 138 311 c 1,28,29
 152 307 152 307 246 299 c 0,30,31
 334 291 334 291 359 291 c 0,32,-1
 362 292 l 0,33,34
 384 292 384 292 386 292 c 2,35,-1
 394 292 l 2,36,37
 432 292 432 292 488 286 c 128,-1,38
 544 280 544 280 550 275 c 1,39,40
 554 270 554 270 554 266 c 0,41,42
 554 264 554 264 552 262 c 1,43,44
 544 246 544 246 525 246 c 2,45,-1
 518 246 l 1,46,47
 487 252 487 252 376.5 260 c 128,-1,15
 266 268 266 268 225.5 271.5 c 128,-1,16
EndSplineSet
Validated: 1
EndChar

StartChar: greater
Encoding: 62 62 33
Width: 544
GlyphClass: 2
Flags: W
LayerCount: 2
Fore
SplineSet
403 280.5 m 128,-1,1
 399 278 399 278 391 268.5 c 128,-1,2
 383 259 383 259 371.5 259 c 128,-1,3
 360 259 360 259 324 242.5 c 128,-1,4
 288 226 288 226 278.5 226 c 128,-1,5
 269 226 269 226 249.5 214 c 128,-1,6
 230 202 230 202 210 202 c 128,-1,7
 190 202 190 202 180 190 c 128,-1,8
 170 178 170 178 124 177 c 0,9,10
 120 177 120 177 116 177 c 128,-1,11
 112 177 112 177 109 177 c 0,12,13
 74 177 74 177 66 186 c 0,14,15
 56 196 56 196 56 211 c 0,16,17
 56 230 56 230 66 231 c 0,18,19
 67 231 67 231 73 231 c 128,-1,20
 79 231 79 231 115 221 c 0,21,22
 126 218 126 218 135 226 c 128,-1,23
 144 234 144 234 163 234.5 c 128,-1,24
 182 235 182 235 209.5 247 c 128,-1,25
 237 259 237 259 258.5 271.5 c 128,-1,26
 280 284 280 284 295 284 c 128,-1,27
 310 284 310 284 371.5 317 c 128,-1,28
 433 350 433 350 433 363 c 0,29,30
 432 380 432 380 396 414.5 c 128,-1,31
 360 449 360 449 318 477 c 128,-1,32
 276 505 276 505 266 505.5 c 128,-1,33
 256 506 256 506 240 516 c 0,34,35
 186 549 186 549 152 551.5 c 128,-1,36
 118 554 118 554 89 573.5 c 128,-1,37
 60 593 60 593 59 606 c 0,38,39
 59 609 59 609 61 611 c 0,40,41
 66 618 66 618 74 618 c 0,42,43
 100 616 100 616 123 606 c 0,44,45
 177 579 177 579 196 579 c 128,-1,46
 215 579 215 579 229 566.5 c 128,-1,47
 243 554 243 554 254 554 c 128,-1,48
 265 554 265 554 273.5 551.5 c 128,-1,49
 282 549 282 549 288 546 c 128,-1,50
 294 543 294 543 313.5 532 c 128,-1,51
 333 521 333 521 357 508 c 128,-1,52
 381 495 381 495 416.5 457.5 c 128,-1,53
 452 420 452 420 473 381 c 2,54,-1
 492 345 l 1,55,-1
 457 315 l 2,56,57
 423 285 423 285 415 284 c 128,-1,0
 407 283 407 283 403 280.5 c 128,-1,1
EndSplineSet
Validated: 1
EndChar

StartChar: question
Encoding: 63 63 34
Width: 371
GlyphClass: 2
Flags: W
LayerCount: 2
Fore
SplineSet
104 570 m 128,-1,1
 108 584 108 584 109.5 594.5 c 128,-1,2
 111 605 111 605 119 622 c 128,-1,3
 127 639 127 639 147.5 658 c 128,-1,4
 168 677 168 677 193 677 c 0,5,6
 194 677 194 677 195 677 c 0,7,8
 236 677 236 677 266 643 c 0,9,10
 298 608 298 608 298 582 c 0,11,12
 298 574 298 574 292.5 560 c 128,-1,13
 287 546 287 546 289.5 540.5 c 128,-1,14
 292 535 292 535 292 533 c 0,15,16
 292 522 292 522 266.5 500.5 c 128,-1,17
 241 479 241 479 200.5 455.5 c 128,-1,18
 160 432 160 432 136 403 c 128,-1,19
 112 374 112 374 103 341.5 c 128,-1,20
 94 309 94 309 94 296.5 c 128,-1,21
 94 284 94 284 101.5 275.5 c 128,-1,22
 109 267 109 267 131.5 267.5 c 128,-1,23
 154 268 154 268 156 268 c 0,24,25
 204 268 204 268 248 280 c 0,26,27
 294 293 294 293 307 293 c 0,28,29
 312 293 312 293 313 291 c 0,30,31
 315 289 315 289 315 280 c 0,32,33
 315 257 315 257 282 246.5 c 128,-1,34
 249 236 249 236 174 235 c 2,35,-1
 82 234 l 1,36,-1
 66 258 l 2,37,38
 53 276 53 276 53 294 c 0,39,40
 54 352 54 352 106 415 c 0,41,42
 144 460 144 460 164.5 478 c 128,-1,43
 185 496 185 496 206 501.5 c 128,-1,44
 227 507 227 507 240.5 525 c 128,-1,45
 254 543 254 543 256 553 c 128,-1,46
 258 563 258 563 254 579 c 0,47,48
 235 644 235 644 197 644 c 0,49,50
 175 644 175 644 165 631.5 c 128,-1,51
 155 619 155 619 144 576.5 c 128,-1,52
 133 534 133 534 127.5 523.5 c 128,-1,53
 122 513 122 513 111.5 513 c 128,-1,54
 101 513 101 513 97 517 c 128,-1,55
 93 521 93 521 94 529.5 c 128,-1,56
 95 538 95 538 97.5 547 c 128,-1,0
 100 556 100 556 104 570 c 128,-1,1
143 80 m 0,57,58
 124 80 124 80 108 96 c 0,59,60
 92 112 92 112 92 119 c 0,61,62
 92 125 92 125 102 135 c 0,63,64
 111 144 111 144 120 144 c 128,-1,65
 129 144 129 144 137 144 c 128,-1,66
 145 144 145 144 158 132 c 0,67,68
 171 121 171 121 171 113 c 2,69,-1
 170 101 l 1,70,71
 168 82 168 82 147 80 c 0,72,73
 145 80 145 80 143 80 c 0,57,58
EndSplineSet
Validated: 1
EndChar

StartChar: at
Encoding: 64 64 35
Width: 917
GlyphClass: 2
Flags: W
LayerCount: 2
Fore
SplineSet
119 371.5 m 128,-1,1
 145 402 145 402 233 493 c 1,2,3
 319 584 319 584 335 584 c 0,4,5
 343 584 343 584 355.5 600.5 c 128,-1,6
 368 617 368 617 375.5 617 c 128,-1,7
 383 617 383 617 408 634.5 c 128,-1,8
 433 652 433 652 451.5 655.5 c 128,-1,9
 470 659 470 659 478 664 c 128,-1,10
 486 669 486 669 494 673 c 128,-1,11
 502 677 502 677 591 677 c 2,12,-1
 605 677 l 2,13,14
 674 677 674 677 695 669.5 c 128,-1,15
 716 662 716 662 775 615 c 1,16,-1
 788 606 l 1,17,18
 831 573 831 573 844.5 536.5 c 128,-1,19
 858 500 858 500 858 434 c 0,20,21
 858 426 858 426 861 408 c 0,22,23
 862 402 862 402 862 394 c 0,24,25
 862 381 862 381 858 364 c 0,26,27
 852 338 852 338 839 326 c 128,-1,28
 826 314 826 314 826 305 c 128,-1,29
 826 296 826 296 813.5 282 c 128,-1,30
 801 268 801 268 801 257.5 c 128,-1,31
 801 247 801 247 771.5 194.5 c 128,-1,32
 742 142 742 142 742 135 c 0,33,34
 742 121 742 121 705.5 92 c 128,-1,35
 669 63 669 63 647.5 63 c 128,-1,36
 626 63 626 63 594 48 c 128,-1,37
 562 33 562 33 512.5 8 c 128,-1,38
 463 -17 463 -17 424.5 -28.5 c 128,-1,39
 386 -40 386 -40 369.5 -47 c 128,-1,40
 353 -54 353 -54 342.5 -58 c 128,-1,41
 332 -62 332 -62 302 -62 c 2,42,-1
 267 -62 l 2,43,44
 222 -62 222 -62 203 -58 c 128,-1,45
 184 -54 184 -54 150 -36.5 c 128,-1,46
 116 -19 116 -19 85 11 c 2,47,-1
 54 42 l 1,48,-1
 54 151 l 2,49,50
 54 227 54 227 57.5 250 c 128,-1,51
 61 273 61 273 77 307 c 128,-1,0
 93 341 93 341 119 371.5 c 128,-1,1
314 434 m 128,-1,53
 298 422 298 422 297.5 414 c 128,-1,54
 297 406 297 406 280 381 c 128,-1,55
 263 356 263 356 263 340.5 c 128,-1,56
 263 325 263 325 254.5 319 c 128,-1,57
 246 313 246 313 246 296 c 0,58,59
 246 234 246 234 260 221 c 0,60,61
 276 207 276 207 290 207 c 0,62,63
 299 207 299 207 307 214 c 0,64,65
 327 231 327 231 335 231 c 0,66,67
 363 231 363 231 433.5 298.5 c 128,-1,68
 504 366 504 366 510 393.5 c 128,-1,69
 516 421 516 421 533 450.5 c 128,-1,70
 550 480 550 480 558 484.5 c 128,-1,71
 566 489 566 489 581.5 486 c 128,-1,72
 597 483 597 483 603.5 485.5 c 128,-1,73
 610 488 610 488 614.5 500 c 128,-1,74
 619 512 619 512 666 555 c 128,-1,75
 713 598 713 598 715 602 c 0,76,77
 715 603 l 0,78,79
 714 608 714 608 694 628 c 0,80,81
 672 650 672 650 614 650 c 0,82,83
 613 650 613 650 612 650 c 0,84,85
 553 650 553 650 502.5 636 c 128,-1,86
 452 622 452 622 431 597 c 0,87,88
 421 584 421 584 415 584 c 128,-1,89
 409 584 409 584 382 567 c 128,-1,90
 355 550 355 550 330.5 531.5 c 128,-1,91
 306 513 306 513 308 511 c 0,92,93
 311 508 311 508 318.5 513.5 c 128,-1,94
 326 519 326 519 341.5 526.5 c 128,-1,95
 357 534 357 534 375 534 c 128,-1,96
 393 534 393 534 407 526.5 c 128,-1,97
 421 519 421 519 445 499 c 1,98,99
 479 467 479 467 479 450 c 0,100,101
 479 448 479 448 479 446 c 1,102,103
 477 428 477 428 460 428 c 0,104,105
 458 428 458 428 456 428 c 0,106,107
 435 430 435 430 421 459.5 c 128,-1,108
 407 489 407 489 388 489 c 2,109,-1
 387 489 l 2,110,111
 375 489 375 489 352 477.5 c 128,-1,112
 329 466 329 466 329 456 c 0,113,52
 330 446 330 446 314 434 c 128,-1,53
824 429 m 0,114,115
 824 485 824 485 801 532 c 1,116,117
 781 567 781 567 768 567 c 0,118,119
 739 567 739 567 678 505 c 128,-1,120
 617 443 617 443 607.5 409 c 128,-1,121
 598 375 598 375 585.5 354 c 128,-1,122
 573 333 573 333 568 317.5 c 128,-1,123
 563 302 563 302 563 285 c 128,-1,124
 563 268 563 268 564 248 c 0,125,126
 566 207 566 207 579 188 c 1,127,128
 591 174 591 174 591 167.5 c 128,-1,129
 591 161 591 161 604.5 142 c 128,-1,130
 618 123 618 123 624 123 c 128,-1,131
 630 123 630 123 654.5 140 c 128,-1,132
 679 157 679 157 719 205 c 128,-1,133
 759 253 759 253 759 272 c 0,134,135
 759 279 759 279 776 307 c 128,-1,136
 793 335 793 335 798 357 c 128,-1,137
 803 379 803 379 813.5 391 c 128,-1,138
 824 403 824 403 824 429 c 0,114,115
271.5 475 m 128,-1,140
 263 475 263 475 263 465.5 c 128,-1,141
 263 456 263 456 271.5 462.5 c 128,-1,142
 280 469 280 469 280 472 c 128,-1,139
 280 475 280 475 271.5 475 c 128,-1,140
248 430 m 0,143,144
 260 445 260 445 252.5 445 c 128,-1,145
 245 445 245 445 211 410 c 1,146,147
 171 372 171 372 157 349 c 0,148,149
 121 291 121 291 113 262.5 c 128,-1,150
 105 234 105 234 103 160 c 2,151,-1
 101 62 l 1,152,-1
 125 42 l 2,153,154
 170 5 170 5 196.5 -7.5 c 128,-1,155
 223 -20 223 -20 259.5 -20 c 128,-1,156
 296 -20 296 -20 309.5 -12 c 128,-1,157
 323 -4 323 -4 350.5 0 c 128,-1,158
 378 4 378 4 419.5 21.5 c 128,-1,159
 461 39 461 39 472 39 c 128,-1,160
 483 39 483 39 508.5 56.5 c 128,-1,161
 534 74 534 74 550 77.5 c 128,-1,162
 566 81 566 81 572 83.5 c 128,-1,163
 578 86 578 86 578 94 c 128,-1,164
 578 102 578 102 562 118 c 258,165,-1
 540 140 l 1,166,167
 521 161 521 161 509.5 186 c 128,-1,168
 498 211 498 211 489.5 221 c 128,-1,169
 481 231 481 231 477 236 c 128,-1,170
 473 241 473 241 472 241.5 c 128,-1,171
 471 242 471 242 466.5 244.5 c 128,-1,172
 462 247 462 247 459 246 c 128,-1,173
 456 245 456 245 449 243.5 c 128,-1,174
 442 242 442 242 434 236.5 c 128,-1,175
 426 231 426 231 414.5 223.5 c 128,-1,176
 403 216 403 216 383 201.5 c 128,-1,177
 363 187 363 187 337.5 177.5 c 128,-1,178
 312 168 312 168 304 160 c 1,179,180
 297 150 297 150 275.5 153 c 128,-1,181
 254 156 254 156 240 167.5 c 128,-1,182
 226 179 226 179 211 184 c 0,183,184
 189 191 189 191 187 238 c 0,185,186
 187 242 187 242 187 246 c 0,187,188
 187 290 187 290 203.5 343 c 128,-1,189
 220 396 220 396 248 430 c 0,143,144
498 273.5 m 128,-1,191
 498 282 498 282 490 282 c 128,-1,192
 482 282 482 282 482 273.5 c 128,-1,193
 482 265 482 265 490 265 c 128,-1,190
 498 265 498 265 498 273.5 c 128,-1,191
EndSplineSet
Validated: 1
EndChar

StartChar: A
Encoding: 65 65 36
Width: 625
GlyphClass: 2
Flags: W
LayerCount: 2
Fore
SplineSet
547 694 m 1,0,1
 561 671 561 671 561 611 c 128,-1,2
 561 551 561 551 543.5 551 c 128,-1,3
 526 551 526 551 526 567 c 0,4,5
 526 576 526 576 530 588 c 128,-1,6
 534 600 534 600 534 613 c 128,-1,7
 534 626 534 626 524.5 649 c 128,-1,8
 515 672 515 672 499 680 c 128,-1,9
 483 688 483 688 443 688 c 128,-1,10
 403 688 403 688 388.5 690 c 128,-1,11
 374 692 374 692 361 689.5 c 128,-1,12
 348 687 348 687 315.5 671 c 128,-1,13
 283 655 283 655 270.5 647 c 128,-1,14
 258 639 258 639 246 626 c 128,-1,15
 234 613 234 613 228.5 606 c 128,-1,16
 223 599 223 599 206.5 574 c 128,-1,17
 190 549 190 549 178 531 c 0,18,19
 118 445 118 445 105 327 c 0,20,21
 102 301 102 301 102 278 c 0,22,23
 102 199 102 199 137 165 c 1,24,25
 162 139 162 139 184 139 c 128,-1,26
 206 139 206 139 244.5 157 c 128,-1,27
 283 175 283 175 307.5 199 c 128,-1,28
 332 223 332 223 338.5 235 c 128,-1,29
 345 247 345 247 345 272.5 c 128,-1,30
 345 298 345 298 358.5 332.5 c 128,-1,31
 372 367 372 367 397.5 417 c 128,-1,32
 423 467 423 467 428 467 c 128,-1,33
 433 467 433 467 456 442.5 c 128,-1,34
 479 418 479 418 479 398.5 c 128,-1,35
 479 379 479 379 467 367 c 1,36,37
 454 357 454 357 454 335.5 c 128,-1,38
 454 314 454 314 392 228 c 0,39,40
 384 217 384 217 391 202.5 c 128,-1,41
 398 188 398 188 416 181 c 0,42,43
 442 172 442 172 442 157 c 0,44,45
 442 153 442 153 440 148 c 0,46,47
 433 131 433 131 411 131 c 0,48,49
 410 131 410 131 409 131 c 0,50,51
 387 131 387 131 368 157 c 0,52,53
 365 161 365 161 365 162 c 0,54,55
 357 168 357 168 355 167.5 c 128,-1,56
 353 167 353 167 349.5 168 c 128,-1,57
 346 169 346 169 342 167 c 0,58,59
 340 164 340 164 334 162 c 0,60,61
 318 154 318 154 290 128 c 1,62,63
 268 110 268 110 230.5 101.5 c 128,-1,64
 193 93 193 93 175.5 93 c 128,-1,65
 158 93 158 93 147 97 c 0,66,67
 123 106 123 106 100 142 c 0,68,69
 75 180 75 180 69 214 c 128,-1,70
 63 248 63 248 63 272 c 0,71,72
 63 277 l 0,73,74
 64 305 64 305 64 342 c 0,75,76
 64 392 64 392 76 414 c 0,77,78
 108 489 108 489 118 508 c 0,79,80
 150 569 150 569 172 602 c 0,81,82
 195 636 195 636 246.5 681.5 c 128,-1,83
 298 727 298 727 312 727 c 128,-1,84
 326 727 326 727 349.5 739 c 128,-1,85
 373 751 373 751 395 751 c 0,86,87
 471 751 471 751 516 721 c 1,88,89
 541 706 541 706 547 694 c 1,0,1
EndSplineSet
Validated: 1
EndChar

StartChar: B
Encoding: 66 66 37
Width: 758
GlyphClass: 2
Flags: W
LayerCount: 2
Fore
SplineSet
113 388 m 1,0,1
 100 366 100 366 100 272 c 0,2,3
 100 230 100 230 109 230 c 128,-1,4
 118 230 118 230 126 250.5 c 128,-1,5
 134 271 134 271 134 298.5 c 128,-1,6
 134 326 134 326 145 343 c 128,-1,7
 156 360 156 360 170 354 c 0,8,9
 190 346 190 346 190 330 c 0,10,11
 191 329 191 329 191 328 c 0,12,13
 191 312 191 312 180 291 c 0,14,15
 170 272 170 272 154 227 c 0,16,17
 140 185 140 185 131 161.5 c 128,-1,18
 122 138 122 138 113.5 130.5 c 128,-1,19
 105 123 105 123 99 125 c 128,-1,20
 93 127 93 127 81 144 c 128,-1,21
 69 161 69 161 66 183.5 c 128,-1,22
 63 206 63 206 63 240 c 0,23,24
 63 506 63 506 144 584 c 0,25,26
 216 654 216 654 240.5 673.5 c 128,-1,27
 265 693 265 693 279 693 c 128,-1,28
 293 693 293 693 311 705 c 128,-1,29
 329 717 329 717 348.5 724 c 128,-1,30
 368 731 368 731 399 731 c 128,-1,31
 430 731 430 731 457 728 c 0,32,33
 533 722 533 722 544.5 708 c 128,-1,34
 556 694 556 694 571 693.5 c 128,-1,35
 586 693 586 693 628.5 650 c 128,-1,36
 671 607 671 607 683 584 c 128,-1,37
 695 561 695 561 695 547.5 c 128,-1,38
 695 534 695 534 689 527 c 0,39,40
 667 501 667 501 661.5 476.5 c 128,-1,41
 656 452 656 452 646 441.5 c 128,-1,42
 636 431 636 431 628.5 425.5 c 128,-1,43
 621 420 621 420 621 412.5 c 128,-1,44
 621 405 621 405 587.5 378.5 c 128,-1,45
 554 352 554 352 554 344 c 128,-1,46
 554 336 554 336 596 291 c 128,-1,47
 638 246 638 246 645 231 c 128,-1,48
 652 216 652 216 652 203 c 2,49,-1
 652 184 l 1,50,51
 648 140 648 140 624.5 108.5 c 128,-1,52
 601 77 601 77 556 51 c 128,-1,53
 511 25 511 25 463 25 c 0,54,55
 391 25 391 25 331 70 c 0,56,57
 313 83 313 83 307.5 92.5 c 128,-1,58
 302 102 302 102 302 125.5 c 128,-1,59
 302 149 302 149 306 159 c 128,-1,60
 310 169 310 169 324 179 c 128,-1,61
 338 189 338 189 387 190 c 1,62,-1
 390 190 l 2,63,64
 435 190 435 190 443 180 c 128,-1,65
 451 170 451 170 486 160.5 c 128,-1,66
 521 151 521 151 535 138 c 1,67,68
 555 123 555 123 567.5 123 c 128,-1,69
 580 123 580 123 587.5 143.5 c 128,-1,70
 595 164 595 164 595 178 c 2,71,-1
 595 198 l 1,72,73
 591 224 591 224 582.5 238 c 128,-1,74
 574 252 574 252 548 281 c 1,75,76
 521 307 521 307 504.5 317 c 128,-1,77
 488 327 488 327 468 330 c 0,78,79
 412 338 412 338 412 361 c 0,80,81
 412 375 412 375 472 381 c 1,82,-1
 533 381 l 1,83,-1
 576 428 l 2,84,85
 621 476 621 476 621 495 c 128,-1,86
 621 514 621 514 628.5 532 c 128,-1,87
 636 550 636 550 636 555 c 0,88,89
 636 576 636 576 578 637 c 2,90,-1
 529 689 l 1,91,-1
 329 689 l 1,92,-1
 288 649 l 1,93,94
 245 609 245 609 232 609 c 0,95,96
 209 609 209 609 172.5 552.5 c 128,-1,97
 136 496 136 496 131 451 c 128,-1,98
 126 406 126 406 113 388 c 1,0,1
507 108 m 1,99,100
 487 120 487 120 451 127.5 c 128,-1,101
 415 135 415 135 401 138.5 c 128,-1,102
 387 142 387 142 376.5 142 c 128,-1,103
 366 142 366 142 359.5 135.5 c 128,-1,104
 353 129 353 129 353 123.5 c 128,-1,105
 353 118 353 118 357 111 c 128,-1,106
 361 104 361 104 389 89.5 c 128,-1,107
 417 75 417 75 458 73 c 1,108,-1
 469 73 l 2,109,110
 501 73 501 73 513.5 82 c 128,-1,111
 526 91 526 91 526 95.5 c 128,-1,112
 526 100 526 100 507 108 c 1,99,100
EndSplineSet
Validated: 1
EndChar

StartChar: C
Encoding: 67 67 38
Width: 748
GlyphClass: 2
Flags: W
LayerCount: 2
Fore
SplineSet
398 661 m 0,0,1
 426 680 426 680 440 685 c 0,2,3
 455 690 455 690 487 714 c 1,4,5
 502 724 502 724 533 724 c 128,-1,6
 564 724 564 724 584.5 723 c 128,-1,7
 605 722 605 722 616.5 717 c 128,-1,8
 628 712 628 712 640 696 c 0,9,10
 684 643 684 643 684 603 c 0,11,12
 684 581 684 581 671.5 549 c 128,-1,13
 659 517 659 517 618 452.5 c 128,-1,14
 577 388 577 388 500 320 c 0,15,16
 393 224 393 224 337 224 c 2,17,-1
 326 224 l 1,18,19
 302 228 302 228 299 244 c 1,20,-1
 299 250 l 2,21,22
 299 267 299 267 314 311 c 128,-1,23
 329 355 329 355 343 373 c 1,24,25
 358 389 358 389 370 384 c 1,26,27
 379 379 379 379 367.5 364 c 128,-1,28
 356 349 356 349 346 315.5 c 128,-1,29
 336 282 336 282 336 274 c 128,-1,30
 336 266 336 266 337 264 c 1,31,32
 340 262 340 262 350 262 c 0,33,34
 362 262 362 262 410 290 c 0,35,36
 513 350 513 350 595 476 c 0,37,38
 650 560 650 560 650 587.5 c 128,-1,39
 650 615 650 615 634 650 c 128,-1,40
 618 685 618 685 597 694 c 0,41,42
 585 699 585 699 568 699 c 128,-1,43
 551 699 551 699 519 693 c 128,-1,44
 487 687 487 687 456.5 669 c 128,-1,45
 426 651 426 651 360.5 593 c 128,-1,46
 295 535 295 535 271.5 517 c 128,-1,47
 248 499 248 499 248 484.5 c 128,-1,48
 248 470 248 470 225.5 438 c 128,-1,49
 203 406 203 406 165 354 c 0,50,51
 90 251 90 251 90 213 c 2,52,-1
 90 204 l 1,53,54
 95 182 95 182 121.5 157 c 128,-1,55
 148 132 148 132 160.5 127.5 c 128,-1,56
 173 123 173 123 218.5 123 c 128,-1,57
 264 123 264 123 265 111 c 1,58,59
 265 90 265 90 222 90 c 0,60,61
 150 90 150 90 109.5 125 c 128,-1,62
 69 160 69 160 60 195 c 1,63,64
 58 207 58 207 58 224.5 c 128,-1,65
 58 242 58 242 72 272 c 128,-1,66
 86 302 86 302 110.5 333.5 c 128,-1,67
 135 365 135 365 164.5 404 c 128,-1,68
 194 443 194 443 207.5 474 c 128,-1,69
 221 505 221 505 296.5 573.5 c 128,-1,70
 372 642 372 642 398 661 c 0,0,1
EndSplineSet
Validated: 1
EndChar

StartChar: D
Encoding: 68 68 39
Width: 676
GlyphClass: 2
Flags: W
LayerCount: 2
Fore
SplineSet
360 606 m 0,0,1
 361 604 361 604 361 595.5 c 128,-1,2
 361 587 361 587 350 536 c 128,-1,3
 339 485 339 485 339 463.5 c 128,-1,4
 339 442 339 442 318 377 c 128,-1,5
 297 312 297 312 297 291 c 128,-1,6
 297 270 297 270 285 260.5 c 128,-1,7
 273 251 273 251 264 260.5 c 128,-1,8
 255 270 255 270 258.5 285.5 c 128,-1,9
 262 301 262 301 266 315 c 0,10,11
 297 424 297 424 305.5 506.5 c 128,-1,12
 314 589 314 589 318 602.5 c 128,-1,13
 322 616 322 616 338.5 617 c 128,-1,14
 355 618 355 618 360 606 c 0,0,1
206 106 m 0,15,16
 206 115 206 115 217 131 c 128,-1,17
 228 147 228 147 256 164 c 128,-1,18
 284 181 284 181 328.5 223.5 c 128,-1,19
 373 266 373 266 373 272.5 c 128,-1,20
 373 279 373 279 387 296 c 128,-1,21
 401 313 401 313 434.5 349.5 c 128,-1,22
 468 386 468 386 499.5 423 c 128,-1,23
 531 460 531 460 540 476.5 c 128,-1,24
 549 493 549 493 549 517 c 0,25,26
 549 564 549 564 516.5 601.5 c 128,-1,27
 484 639 484 639 441.5 646.5 c 128,-1,28
 399 654 399 654 313.5 685 c 128,-1,29
 228 716 228 716 174 716 c 2,30,-1
 164 716 l 1,31,32
 154 713 154 713 137.5 697.5 c 128,-1,33
 121 682 121 682 121 672 c 0,34,35
 121 654 121 654 173.5 609 c 128,-1,36
 226 564 226 564 227 555 c 0,37,38
 228 551 228 551 221.5 547 c 128,-1,39
 215 543 215 543 207 549 c 2,40,-1
 187 565 l 2,41,42
 175 575 175 575 164 578 c 0,43,44
 141 584 141 584 99 631 c 1,45,-1
 59 678 l 1,46,-1
 77 695 l 2,47,48
 91 709 91 709 131 733 c 0,49,50
 136 736 136 736 171 747 c 0,51,52
 179 747 l 0,53,54
 184 747 184 747 187 747 c 1,55,-1
 239 739 l 2,56,57
 288 732 288 732 359.5 709.5 c 128,-1,58
 431 687 431 687 476.5 664 c 128,-1,59
 522 641 522 641 536.5 628 c 128,-1,60
 551 615 551 615 569 581.5 c 128,-1,61
 587 548 587 548 587 525 c 128,-1,62
 587 502 587 502 583 489 c 0,63,64
 571 446 571 446 514 389 c 0,65,66
 496 371 496 371 427 283.5 c 128,-1,67
 358 196 358 196 332 182 c 0,68,69
 314 172 314 172 314 165 c 128,-1,70
 314 158 314 158 337 155.5 c 128,-1,71
 360 153 360 153 359 140 c 128,-1,72
 358 127 358 127 333.5 120.5 c 128,-1,73
 309 114 309 114 287.5 102 c 128,-1,74
 266 90 266 90 236 90 c 0,75,76
 235 90 235 90 234 89 c 1,77,78
 206 89 206 89 206 106 c 0,15,16
EndSplineSet
Validated: 1
EndChar

StartChar: E
Encoding: 69 69 40
Width: 730
GlyphClass: 2
Flags: W
LayerCount: 2
Fore
SplineSet
131 128 m 0,0,1
 131 124 131 124 146 124 c 0,2,3
 173 124 173 124 260 132.5 c 128,-1,4
 347 141 347 141 427 141 c 0,5,6
 463 141 463 141 463 131 c 128,-1,7
 463 121 463 121 399 116.5 c 128,-1,8
 335 112 335 112 263.5 108 c 128,-1,9
 192 104 192 104 178.5 96.5 c 128,-1,10
 165 89 165 89 110.5 89 c 128,-1,11
 56 89 56 89 56 100.5 c 128,-1,12
 56 112 56 112 85.5 140 c 128,-1,13
 115 168 115 168 115 183.5 c 128,-1,14
 115 199 115 199 136.5 244 c 128,-1,15
 158 289 158 289 170 299 c 1,16,17
 181 310 181 310 181 321.5 c 128,-1,18
 181 333 181 333 198 367.5 c 128,-1,19
 215 402 215 402 215 411 c 128,-1,20
 215 420 215 420 257 477.5 c 128,-1,21
 299 535 299 535 332 568.5 c 128,-1,22
 365 602 365 602 378 609.5 c 128,-1,23
 391 617 391 617 416 617 c 128,-1,24
 441 617 441 617 460 627.5 c 128,-1,25
 479 638 479 638 493.5 638 c 128,-1,26
 508 638 508 638 524 636 c 0,27,28
 532 635 532 635 609 628 c 0,29,30
 675 622 675 622 675 615 c 0,31,32
 675 609 675 609 655 606 c 0,33,34
 646 605 646 605 636 604 c 0,35,36
 616 602 616 602 600 602 c 0,37,38
 583 602 583 602 566 604 c 128,-1,39
 549 606 549 606 524 606 c 0,40,41
 470 606 470 606 421 590 c 0,42,43
 379 576 379 576 343 532 c 0,44,45
 307 490 307 490 307 485 c 128,-1,46
 307 480 307 480 278 445 c 128,-1,47
 249 410 249 410 249 397 c 128,-1,48
 249 384 249 384 234 361.5 c 128,-1,49
 219 339 219 339 218.5 323.5 c 128,-1,50
 218 308 218 308 230 304 c 1,51,-1
 237 304 l 2,52,53
 268 304 268 304 293 375 c 0,54,55
 307 414 307 414 307 434 c 128,-1,56
 307 454 307 454 310 460.5 c 128,-1,57
 313 467 313 467 322 465 c 0,58,59
 340 462 340 462 340 431 c 0,60,61
 340 418 340 418 334 404 c 128,-1,62
 328 390 328 390 322.5 366.5 c 128,-1,63
 317 343 317 343 312 331 c 128,-1,64
 307 319 307 319 309 317.5 c 128,-1,65
 311 316 311 316 317 316 c 128,-1,66
 323 316 323 316 362 323 c 128,-1,67
 401 330 401 330 461.5 330 c 128,-1,68
 522 330 522 330 566 325 c 128,-1,69
 610 320 610 320 610 313 c 0,70,71
 610 303 610 303 506.5 302 c 128,-1,72
 403 301 403 301 357 293.5 c 128,-1,73
 311 286 311 286 278 266 c 0,74,75
 249 249 249 249 188 190 c 0,76,77
 131 135 131 135 131 128 c 0,0,1
203 286 m 0,78,79
 199 286 199 286 193.5 280.5 c 128,-1,80
 188 275 188 275 185.5 266.5 c 128,-1,81
 183 258 183 258 183 255 c 128,-1,82
 183 252 183 252 184 250 c 1,83,-1
 187 250 l 2,84,85
 190 250 190 250 201 256 c 128,-1,86
 212 262 212 262 212 274 c 128,-1,87
 212 286 212 286 203 286 c 0,78,79
EndSplineSet
Validated: 1
EndChar

StartChar: F
Encoding: 70 70 41
Width: 818
GlyphClass: 2
Flags: W
LayerCount: 2
Fore
SplineSet
728 640 m 2,0,-1
 686 641 l 2,1,2
 668 641 668 641 608 625 c 128,-1,3
 548 609 548 609 542 609 c 0,4,5
 534 609 534 609 452.5 573 c 128,-1,6
 371 537 371 537 353 523.5 c 128,-1,7
 335 510 335 510 310.5 505 c 128,-1,8
 286 500 286 500 275.5 487.5 c 128,-1,9
 265 475 265 475 274 465 c 0,10,11
 276 463 276 463 276 453 c 128,-1,12
 276 443 276 443 250 394 c 1,13,14
 222 337 222 337 222 326.5 c 128,-1,15
 222 316 222 316 243.5 315.5 c 128,-1,16
 265 315 265 315 271.5 322 c 128,-1,17
 278 329 278 329 313.5 333.5 c 128,-1,18
 349 338 349 338 365 338.5 c 128,-1,19
 381 339 381 339 394 339 c 128,-1,20
 407 339 407 339 411 335 c 1,21,22
 411 328 411 328 349 313.5 c 128,-1,23
 287 299 287 299 254.5 299 c 128,-1,24
 222 299 222 299 203.5 283 c 128,-1,25
 185 267 185 267 160 219 c 0,26,27
 98 98 98 98 72 98 c 0,28,29
 71 98 71 98 70 98 c 0,30,31
 58 98 58 98 58 120 c 128,-1,32
 58 142 58 142 76 179 c 128,-1,33
 94 216 94 216 102.5 250.5 c 128,-1,34
 111 285 111 285 145 349.5 c 128,-1,35
 179 414 179 414 214 461.5 c 128,-1,36
 249 509 249 509 264 509 c 0,37,38
 278 509 278 509 301 524 c 0,39,40
 384 578 384 578 550 637 c 1,41,-1
 600 651 l 1,42,43
 638 667 638 667 734 667 c 0,44,45
 757 667 757 667 759.5 663.5 c 128,-1,46
 762 660 762 660 762 656 c 0,47,48
 762 648 762 648 750 644 c 0,49,50
 737 640 737 640 728 640 c 2,0,-1
234 416.5 m 128,-1,52
 234 425 234 425 226 425 c 128,-1,53
 218 425 218 425 218 416.5 c 128,-1,54
 218 408 218 408 226 408 c 128,-1,51
 234 408 234 408 234 416.5 c 128,-1,52
195.5 345.5 m 128,-1,56
 218 384 218 384 218 392.5 c 128,-1,57
 218 401 218 401 213 401 c 0,58,59
 203 401 203 401 175 355.5 c 128,-1,60
 147 310 147 310 142 265 c 1,61,-1
 142 258 l 2,62,63
 142 252 142 252 145 252 c 2,64,-1
 150 251 l 1,65,66
 152 252 152 252 155.5 255 c 128,-1,67
 159 258 159 258 159 278 c 128,-1,68
 159 298 159 298 166 302.5 c 128,-1,55
 173 307 173 307 195.5 345.5 c 128,-1,56
EndSplineSet
Validated: 1
EndChar

StartChar: G
Encoding: 71 71 42
Width: 556
GlyphClass: 2
Flags: W
LayerCount: 2
Fore
SplineSet
408 723 m 2,0,1
 423 723 423 723 429 722 c 2,2,-1
 464 719 l 2,3,4
 474 718 474 718 486.5 694.5 c 128,-1,5
 499 671 499 671 499 656 c 0,6,7
 499 642 499 642 491 605.5 c 128,-1,8
 483 569 483 569 462 534 c 128,-1,9
 441 499 441 499 425 479.5 c 128,-1,10
 409 460 409 460 409 452.5 c 128,-1,11
 409 445 409 445 377.5 414 c 128,-1,12
 346 383 346 383 336.5 383 c 128,-1,13
 327 383 327 383 327 389 c 0,14,15
 328 398 328 398 352 423.5 c 128,-1,16
 376 449 376 449 376 455 c 128,-1,17
 376 461 376 461 412.5 512.5 c 128,-1,18
 449 564 449 564 463 594 c 128,-1,19
 477 624 477 624 477 649 c 128,-1,20
 477 674 477 674 471.5 681.5 c 128,-1,21
 466 689 466 689 447.5 698 c 128,-1,22
 429 707 429 707 419 706.5 c 128,-1,23
 409 706 409 706 381 692 c 128,-1,24
 353 678 353 678 329 657 c 128,-1,25
 305 636 305 636 290.5 622.5 c 128,-1,26
 276 609 276 609 270 609 c 128,-1,27
 264 609 264 609 215 552 c 128,-1,28
 166 495 166 495 166 487 c 128,-1,29
 166 479 166 479 140 429 c 128,-1,30
 114 379 114 379 104.5 367.5 c 128,-1,31
 95 356 95 356 95 267 c 1,32,-1
 96 179 l 1,33,-1
 124 155 l 2,34,35
 153 130 153 130 194 130 c 0,36,37
 260 130 260 130 304 181 c 1,38,39
 325 207 325 207 325 227 c 0,40,41
 325 252 325 252 296 255 c 0,42,43
 279 257 279 257 239 282 c 128,-1,44
 199 307 199 307 199 316.5 c 128,-1,45
 199 326 199 326 213.5 326 c 128,-1,46
 228 326 228 326 283 300.5 c 128,-1,47
 338 275 338 275 351 273 c 1,48,-1
 354 273 l 2,49,50
 361 273 361 273 394.5 293.5 c 128,-1,51
 428 314 428 314 442 314 c 2,52,-1
 445 314 l 1,53,54
 457 312 457 312 457 308.5 c 128,-1,55
 457 305 457 305 444 290 c 0,56,57
 420 262 420 262 391.5 257 c 128,-1,58
 363 252 363 252 361 236 c 0,59,60
 356 203 356 203 324 156 c 0,61,62
 307 131 307 131 257 122 c 0,63,64
 240 119 240 119 236 112.5 c 128,-1,65
 232 106 232 106 200 106 c 128,-1,66
 168 106 168 106 134 116.5 c 128,-1,67
 100 127 100 127 85.5 150 c 128,-1,68
 71 173 71 173 66 229 c 128,-1,69
 61 285 61 285 61 305 c 128,-1,70
 61 325 61 325 64.5 342 c 128,-1,71
 68 359 68 359 89 400 c 128,-1,72
 110 441 110 441 125 455 c 128,-1,73
 140 469 140 469 141 481 c 1,74,75
 141 504 141 504 188 560 c 0,76,77
 236 617 236 617 300 670 c 128,-1,78
 364 723 364 723 399 723 c 0,79,80
 400 723 l 2,81,-1
 408 723 l 2,0,1
EndSplineSet
Validated: 1
EndChar

StartChar: H
Encoding: 72 72 43
Width: 488
GlyphClass: 2
Flags: W
LayerCount: 2
Fore
SplineSet
69 15 m 0,0,1
 57 15 57 15 57 36.5 c 128,-1,2
 57 58 57 58 61 82 c 1,3,4
 68 142 68 142 86.5 183.5 c 128,-1,5
 105 225 105 225 105 237 c 128,-1,6
 105 249 105 249 118.5 289 c 128,-1,7
 132 329 132 329 133 339 c 0,8,9
 133 340 133 340 133 341 c 0,10,11
 133 357 133 357 108 371 c 0,12,13
 97 376 97 376 91 377 c 0,14,15
 75 380 75 380 75 395 c 0,16,17
 75 405 75 405 82 409 c 128,-1,18
 89 413 89 413 118.5 413.5 c 128,-1,19
 148 414 148 414 155 421 c 128,-1,20
 162 428 162 428 173 485.5 c 128,-1,21
 184 543 184 543 194.5 558.5 c 128,-1,22
 205 574 205 574 205 617.5 c 128,-1,23
 205 661 205 661 223 673 c 0,24,25
 228 676 228 676 234 671 c 1,26,27
 239 664 239 664 239 634.5 c 128,-1,28
 239 605 239 605 227 580 c 128,-1,29
 215 555 215 555 206.5 500.5 c 128,-1,30
 198 446 198 446 198 430.5 c 128,-1,31
 198 415 198 415 200 411 c 0,32,33
 204 399 204 399 220.5 399 c 128,-1,34
 237 399 237 399 255 394.5 c 128,-1,35
 273 390 273 390 288 386 c 0,36,37
 313 378 313 378 324 378 c 0,38,39
 348 378 348 378 348 403 c 0,40,41
 348 414 348 414 365 473 c 128,-1,42
 382 532 382 532 384.5 570.5 c 128,-1,43
 387 609 387 609 388.5 623.5 c 128,-1,44
 390 638 390 638 392.5 650.5 c 128,-1,45
 395 663 395 663 395.5 666 c 128,-1,46
 396 669 396 669 400.5 680.5 c 128,-1,47
 405 692 405 692 409 704.5 c 128,-1,48
 413 717 413 717 421 717 c 1,49,-1
 426 714 l 1,50,51
 431 708 431 708 431 695 c 128,-1,52
 431 682 431 682 427 652 c 128,-1,53
 423 622 423 622 403 522.5 c 128,-1,54
 383 423 383 423 382.5 388.5 c 128,-1,55
 382 354 382 354 378 342 c 128,-1,56
 374 330 374 330 370 326 c 0,57,58
 348 304 348 304 345 229 c 0,59,60
 342 151 342 151 337.5 131.5 c 128,-1,61
 333 112 333 112 324 102 c 1,62,63
 311 90 311 90 304 90 c 0,64,65
 292 90 292 90 292 119 c 1,66,-1
 295 168 l 2,67,68
 295 179 295 179 293 190 c 128,-1,69
 291 201 291 201 269.5 235 c 128,-1,70
 248 269 248 269 210 301 c 2,71,-1
 172 333 l 1,72,-1
 155 297 l 2,73,74
 139 261 139 261 139 244 c 128,-1,75
 139 227 139 227 135 217 c 128,-1,76
 131 207 131 207 125 200 c 0,77,78
 110 181 110 181 106.5 110.5 c 128,-1,79
 103 40 103 40 87 26 c 1,80,81
 77 15 77 15 69 15 c 0,0,1
207.5 347 m 128,-1,83
 218 333 218 333 224.5 333 c 128,-1,84
 231 333 231 333 268.5 295 c 128,-1,85
 306 257 306 257 310 257 c 128,-1,86
 314 257 314 257 320.5 282.5 c 128,-1,87
 327 308 327 308 327 318 c 0,88,89
 327 344 327 344 293 354 c 0,90,91
 236 371 236 371 217 371 c 128,-1,92
 198 371 198 371 197 370 c 1,93,82
 197 361 197 361 207.5 347 c 128,-1,83
EndSplineSet
Validated: 1
EndChar

StartChar: I
Encoding: 73 73 44
Width: 729
GlyphClass: 2
Flags: W
LayerCount: 2
Fore
SplineSet
120 636 m 128,-1,1
 163 677 163 677 174.5 677 c 128,-1,2
 186 677 186 677 217 689.5 c 128,-1,3
 248 702 248 702 287 720.5 c 128,-1,4
 326 739 326 739 334 742 c 0,5,6
 344 747 344 747 364 747 c 0,7,8
 372 747 372 747 380 747 c 0,9,10
 385 747 385 747 390 747 c 0,11,12
 392 747 392 747 396 747 c 0,13,14
 397 747 397 747 401 747 c 0,15,16
 408 747 408 747 422 746 c 0,17,18
 462 742 462 742 478 732 c 0,19,20
 495 719 495 719 510 719 c 0,21,22
 533 719 533 719 597 664 c 0,23,24
 613 650 613 650 636.5 600.5 c 128,-1,25
 660 551 660 551 660 514.5 c 128,-1,26
 660 478 660 478 645.5 429.5 c 128,-1,27
 631 381 631 381 601.5 344.5 c 128,-1,28
 572 308 572 308 572 304 c 128,-1,29
 572 300 572 300 620 297.5 c 128,-1,30
 668 295 668 295 668 284 c 0,31,32
 668 282 668 282 667 281 c 0,33,34
 659 258 659 258 529 232 c 0,35,36
 482 222 482 222 460 199 c 128,-1,37
 438 176 438 176 419.5 167.5 c 128,-1,38
 401 159 401 159 389 155.5 c 128,-1,39
 377 152 377 152 372 144 c 0,40,41
 363 132 363 132 355 135 c 1,42,-1
 352 135 l 1,43,44
 341 134 341 134 309 112 c 128,-1,45
 277 90 277 90 245 88 c 1,46,-1
 238 88 l 2,47,48
 212 88 212 88 203 105 c 128,-1,49
 194 122 194 122 183 122.5 c 128,-1,50
 172 123 172 123 154 148.5 c 128,-1,51
 136 174 136 174 136 189 c 0,52,53
 136 225 136 225 149 256.5 c 128,-1,54
 162 288 162 288 184 301 c 128,-1,55
 206 314 206 314 228 314 c 0,56,57
 254 314 254 314 314 300 c 0,58,59
 378 285 378 285 424 285 c 0,60,61
 481 285 481 285 508 308 c 0,62,63
 531 328 531 328 531 333 c 1,64,65
 526 338 526 338 465 342.5 c 128,-1,66
 404 347 404 347 323 363 c 128,-1,67
 242 379 242 379 223 389 c 128,-1,68
 204 399 204 399 187 399 c 128,-1,69
 170 399 170 399 135.5 416.5 c 128,-1,70
 101 434 101 434 85 448 c 128,-1,71
 69 462 69 462 64.5 474 c 128,-1,72
 60 486 60 486 60 518 c 128,-1,73
 60 550 60 550 70 573 c 1,74,0
 77 595 77 595 120 636 c 128,-1,1
622 503 m 0,75,76
 622 558 622 558 559 647 c 0,77,78
 536 678 536 678 478 690.5 c 128,-1,79
 420 703 420 703 392 703 c 0,80,81
 306 703 306 703 301.5 695.5 c 128,-1,82
 297 688 297 688 287 685 c 0,83,84
 248 673 248 673 225.5 656 c 128,-1,85
 203 639 203 639 178.5 626 c 128,-1,86
 154 613 154 613 141 605.5 c 128,-1,87
 128 598 128 598 128 589.5 c 128,-1,88
 128 581 128 581 112.5 548.5 c 128,-1,89
 97 516 97 516 97 508.5 c 128,-1,90
 97 501 97 501 106 488 c 128,-1,91
 115 475 115 475 162.5 454.5 c 128,-1,92
 210 434 210 434 227.5 434 c 128,-1,93
 245 434 245 434 256.5 427.5 c 128,-1,94
 268 421 268 421 282 413.5 c 128,-1,95
 296 406 296 406 343 398 c 128,-1,96
 390 390 390 390 462.5 387.5 c 128,-1,97
 535 385 535 385 549 379 c 128,-1,98
 563 373 563 373 571.5 381 c 128,-1,99
 580 389 580 389 601 428.5 c 128,-1,100
 622 468 622 468 622 503 c 0,75,76
225 271 m 0,101,102
 195 271 195 271 195 198 c 1,103,104
 196 166 196 166 217.5 148.5 c 128,-1,105
 239 131 239 131 258.5 131 c 128,-1,106
 278 131 278 131 287.5 143 c 128,-1,107
 297 155 297 155 312.5 155.5 c 128,-1,108
 328 156 328 156 368.5 180 c 128,-1,109
 409 204 409 204 409 216 c 0,110,111
 409 223 409 223 396 227 c 128,-1,112
 383 231 383 231 363 236 c 128,-1,113
 343 241 343 241 333.5 246 c 128,-1,114
 324 251 324 251 283 261 c 128,-1,115
 242 271 242 271 225 271 c 0,101,102
EndSplineSet
Validated: 1
EndChar

StartChar: J
Encoding: 74 74 45
Width: 624
GlyphClass: 2
Flags: W
LayerCount: 2
Fore
SplineSet
292 634 m 2,0,1
 274 634 l 2,2,3
 261 634 261 634 223.5 642 c 128,-1,4
 186 650 186 650 176 658.5 c 128,-1,5
 166 667 166 667 129.5 676 c 128,-1,6
 93 685 93 685 84.5 693 c 128,-1,7
 76 701 76 701 80.5 713 c 128,-1,8
 85 725 85 725 92 726 c 1,9,-1
 95 726 l 2,10,11
 104 725 104 725 127 706 c 0,12,13
 151 685 151 685 170.5 685 c 128,-1,14
 190 685 190 685 249 667 c 128,-1,15
 308 649 308 649 341.5 644.5 c 128,-1,16
 375 640 375 640 465.5 639.5 c 128,-1,17
 556 639 556 639 562 634.5 c 128,-1,18
 568 630 568 630 568 622 c 0,19,20
 568 604 568 604 556 608 c 0,21,22
 549 610 549 610 518.5 610 c 128,-1,23
 488 610 488 610 436 610 c 0,24,25
 380 609 380 609 368 606 c 0,26,27
 332 597 332 597 308 512 c 0,28,29
 293 461 293 461 291 435 c 128,-1,30
 289 409 289 409 289 382 c 0,31,32
 289 222 289 222 298 210 c 1,33,34
 301 200 301 200 298.5 199 c 128,-1,35
 296 198 296 198 292 179 c 128,-1,36
 288 160 288 160 288 128.5 c 128,-1,37
 288 97 288 97 277.5 72 c 128,-1,38
 267 47 267 47 253 47 c 0,39,40
 249 47 249 47 197.5 94 c 128,-1,41
 146 141 146 141 101.5 188.5 c 128,-1,42
 57 236 57 236 57 247 c 0,43,44
 57 253 57 253 67.5 253 c 128,-1,45
 78 253 78 253 104 237 c 0,46,47
 129 221 129 221 189 220 c 2,48,-1
 250 219 l 1,49,-1
 255 315 l 2,50,51
 259 400 259 400 273.5 464 c 128,-1,52
 288 528 288 528 288 545 c 0,53,54
 288 560 288 560 303 581.5 c 128,-1,55
 318 603 318 603 318 616 c 0,56,57
 318 634 318 634 292 634 c 2,0,1
179 167 m 0,58,59
 179 154 179 154 205 128 c 128,-1,60
 231 102 231 102 242 102 c 128,-1,61
 253 102 253 102 253 138.5 c 128,-1,62
 253 175 253 175 243 182 c 0,63,64
 239 185 239 185 228 185 c 0,65,66
 179 185 179 185 179 167 c 0,58,59
EndSplineSet
Validated: 1
EndChar

StartChar: K
Encoding: 75 75 46
Width: 663
GlyphClass: 2
Flags: W
LayerCount: 2
Fore
SplineSet
223 645 m 128,-1,1
 230 669 230 669 245 693.5 c 128,-1,2
 260 718 260 718 263 720 c 128,-1,3
 266 722 266 722 269.5 722 c 128,-1,4
 273 722 273 722 280 716 c 0,5,6
 292 704 292 704 286 696 c 0,7,8
 272 677 272 677 266 642 c 0,9,10
 259 605 259 605 244.5 561 c 128,-1,11
 230 517 230 517 224.5 483.5 c 128,-1,12
 219 450 219 450 219 442 c 2,13,-1
 219 434 l 1,14,15
 221 426 221 426 240 408 c 1,16,17
 266 388 266 388 266 378.5 c 128,-1,18
 266 369 266 369 278 357.5 c 128,-1,19
 290 346 290 346 299 345 c 1,20,-1
 303 345 l 2,21,22
 312 346 312 346 336 354 c 0,23,24
 412 380 412 380 449 416 c 1,25,26
 467 432 467 432 467 437.5 c 128,-1,27
 467 443 467 443 504.5 495 c 128,-1,28
 542 547 542 547 542 558 c 128,-1,29
 542 569 542 569 561 597.5 c 128,-1,30
 580 626 580 626 589 626 c 0,31,32
 606 626 606 626 606 607 c 0,33,34
 606 593 606 593 591 568.5 c 128,-1,35
 576 544 576 544 576 533 c 128,-1,36
 576 522 576 522 559.5 509 c 128,-1,37
 543 496 543 496 538.5 477.5 c 128,-1,38
 534 459 534 459 477 399 c 1,39,40
 419 341 419 341 402 341 c 0,41,42
 374 341 374 341 340 326 c 1,43,44
 319 315 319 315 316 308 c 128,-1,45
 313 301 313 301 314 279 c 0,46,47
 316 244 316 244 330 210 c 0,48,49
 350 162 350 162 350 144 c 0,50,51
 350 127 350 127 339.5 120.5 c 128,-1,52
 329 114 329 114 323.5 115.5 c 128,-1,53
 318 117 318 117 310 126 c 1,54,55
 302 138 302 138 297.5 162 c 128,-1,56
 293 186 293 186 279.5 215.5 c 128,-1,57
 266 245 266 245 265.5 267.5 c 128,-1,58
 265 290 265 290 243.5 315.5 c 128,-1,59
 222 341 222 341 205 341 c 0,60,61
 194 341 194 341 175 306 c 128,-1,62
 156 271 156 271 156 256 c 0,63,64
 156 232 156 232 148.5 228 c 128,-1,65
 141 224 141 224 130 188 c 0,66,67
 113 130 113 130 105 125.5 c 128,-1,68
 97 121 97 121 97 105.5 c 128,-1,69
 97 90 97 90 88.5 86 c 128,-1,70
 80 82 80 82 73.5 82 c 128,-1,71
 67 82 67 82 61.5 87 c 128,-1,72
 56 92 56 92 56 96 c 0,73,74
 56 102 56 102 66.5 122.5 c 128,-1,75
 77 143 77 143 87.5 185 c 128,-1,76
 98 227 98 227 122.5 282.5 c 128,-1,77
 147 338 147 338 147 350.5 c 128,-1,78
 147 363 147 363 154 378 c 0,79,80
 177 428 177 428 198 525 c 1,81,0
 216 621 216 621 223 645 c 128,-1,1
EndSplineSet
Validated: 1
EndChar

StartChar: L
Encoding: 76 76 47
Width: 659
GlyphClass: 2
Flags: W
LayerCount: 2
Fore
SplineSet
434 709 m 1,0,1
 454 704 454 704 454 679.5 c 128,-1,2
 454 655 454 655 443.5 603.5 c 128,-1,3
 433 552 433 552 426.5 541 c 128,-1,4
 420 530 420 530 384.5 464.5 c 128,-1,5
 349 399 349 399 321.5 367 c 128,-1,6
 294 335 294 335 294 326 c 128,-1,7
 294 317 294 317 243.5 263 c 128,-1,8
 193 209 193 209 193 195 c 0,9,10
 193 189 193 189 199 189 c 0,11,12
 216 189 216 189 262 227.5 c 128,-1,13
 308 266 308 266 317.5 266 c 128,-1,14
 327 266 327 266 351.5 214 c 128,-1,15
 376 162 376 162 387 148 c 128,-1,16
 398 134 398 134 432.5 120 c 128,-1,17
 467 106 467 106 499 106 c 2,18,-1
 502 106 l 2,19,20
 536 106 536 106 548 118 c 128,-1,21
 560 130 560 130 568 130 c 2,22,-1
 577 130 l 1,23,24
 596 128 596 128 596 110 c 0,25,26
 596 95 596 95 567 83.5 c 128,-1,27
 538 72 538 72 489 72 c 128,-1,28
 440 72 440 72 412.5 87.5 c 128,-1,29
 385 103 385 103 353 146 c 128,-1,30
 321 189 321 189 305 199 c 128,-1,31
 289 209 289 209 282 204 c 128,-1,32
 275 199 275 199 266.5 190 c 128,-1,33
 258 181 258 181 249 181 c 128,-1,34
 240 181 240 181 191 140 c 128,-1,35
 142 99 142 99 112 83 c 128,-1,36
 82 67 82 67 72 67 c 128,-1,37
 62 67 62 67 58 72.5 c 128,-1,38
 54 78 54 78 54 81.5 c 128,-1,39
 54 85 54 85 57 88 c 0,40,41
 86 107 86 107 86 117 c 128,-1,42
 86 127 86 127 174 228 c 128,-1,43
 262 329 262 329 262 337.5 c 128,-1,44
 262 346 262 346 286 376 c 0,45,46
 364 475 364 475 375 509 c 1,47,48
 396 551 396 551 408 590.5 c 128,-1,49
 420 630 420 630 420 641 c 2,50,-1
 420 655 l 1,51,52
 419 664 419 664 419 673 c 0,53,54
 419 709 419 709 434 709 c 1,0,1
EndSplineSet
Validated: 1
EndChar

StartChar: M
Encoding: 77 77 48
Width: 782
GlyphClass: 2
Flags: W
LayerCount: 2
Fore
SplineSet
340 355 m 2,0,-1
 343 450 l 1,1,2
 343 515 343 515 329 515 c 0,3,4
 325 515 325 515 317 510 c 1,5,6
 304 499 304 499 304 485 c 128,-1,7
 304 471 304 471 291.5 444.5 c 128,-1,8
 279 418 279 418 279 407 c 0,9,10
 279 373 279 373 210 249 c 1,11,12
 188 204 188 204 139.5 160.5 c 128,-1,13
 91 117 91 117 74 117 c 0,14,15
 69 117 69 117 64.5 121.5 c 128,-1,16
 60 126 60 126 60 156 c 2,17,-1
 60 188 l 2,18,19
 60 234 60 234 66 250 c 128,-1,20
 72 266 72 266 108 321.5 c 128,-1,21
 144 377 144 377 183 417 c 128,-1,22
 222 457 222 457 242 457 c 0,23,24
 243 457 243 457 249 456 c 128,-1,25
 255 455 255 455 260.5 459.5 c 128,-1,26
 266 464 266 464 272 483.5 c 128,-1,27
 278 503 278 503 293 534 c 2,28,-1
 316 584 l 2,29,30
 325 605 325 605 344 605 c 2,31,-1
 352 605 l 2,32,33
 358 605 358 605 364 598 c 0,34,35
 377 583 377 583 386 417 c 2,36,-1
 392 311 l 1,37,-1
 428 309 l 2,38,39
 436 308 436 308 446 308 c 128,-1,40
 456 308 456 308 464.5 311.5 c 128,-1,41
 473 315 473 315 490 336 c 128,-1,42
 507 357 507 357 512.5 370.5 c 128,-1,43
 518 384 518 384 532.5 397.5 c 128,-1,44
 547 411 547 411 547 423.5 c 128,-1,45
 547 436 547 436 564 454 c 128,-1,46
 581 472 581 472 581 478 c 128,-1,47
 581 484 581 484 609.5 522 c 128,-1,48
 638 560 638 560 664 615.5 c 128,-1,49
 690 671 690 671 690 698.5 c 128,-1,50
 690 726 690 726 703 726 c 0,51,52
 723 726 723 726 723 625 c 0,53,54
 723 606 723 606 720.5 593.5 c 128,-1,55
 718 581 718 581 705 563 c 128,-1,56
 692 545 692 545 689 511.5 c 128,-1,57
 686 478 686 478 686 321.5 c 128,-1,58
 686 165 686 165 683.5 125 c 128,-1,59
 681 85 681 85 673.5 85 c 128,-1,60
 666 85 666 85 661 108 c 0,61,62
 650 156 650 156 643.5 312 c 128,-1,63
 637 468 637 468 631 471.5 c 128,-1,64
 625 475 625 475 611 458.5 c 128,-1,65
 597 442 597 442 586 415.5 c 128,-1,66
 575 389 575 389 526.5 335.5 c 128,-1,67
 478 282 478 282 459 271.5 c 128,-1,68
 440 261 440 261 427.5 261 c 128,-1,69
 415 261 415 261 397 266.5 c 128,-1,70
 379 272 379 272 361.5 292.5 c 128,-1,71
 344 313 344 313 342 325.5 c 128,-1,72
 340 338 340 338 340 355 c 2,0,-1
128 286 m 128,-1,74
 128 280 128 280 115 265.5 c 128,-1,75
 102 251 102 251 96.5 225 c 128,-1,76
 91 199 91 199 91 187 c 128,-1,77
 91 175 91 175 99 175 c 0,78,79
 112 175 112 175 138.5 209 c 128,-1,80
 165 243 165 243 198 310 c 128,-1,81
 231 377 231 377 231 390 c 128,-1,82
 231 403 231 403 228 403 c 0,83,84
 219 403 219 403 194.5 377 c 128,-1,85
 170 351 170 351 149 321.5 c 128,-1,73
 128 292 128 292 128 286 c 128,-1,74
EndSplineSet
Validated: 1
EndChar

StartChar: N
Encoding: 78 78 49
Width: 730
GlyphClass: 2
Flags: W
LayerCount: 2
Fore
SplineSet
81 105 m 0,0,1
 58 105 58 105 58 128 c 0,2,3
 58 135 58 135 67 152 c 128,-1,4
 76 169 76 169 76 181 c 128,-1,5
 76 193 76 193 103 252 c 128,-1,6
 130 311 130 311 135 333 c 0,7,8
 169 478 169 478 177 486.5 c 128,-1,9
 185 495 185 495 185.5 530 c 128,-1,10
 186 565 186 565 191 569.5 c 128,-1,11
 196 574 196 574 200 574 c 0,12,13
 209 574 209 574 214 550 c 256,14,15
 219 526 219 526 219 493.5 c 128,-1,16
 219 461 219 461 208 442 c 1,17,18
 200 433 200 433 190 387.5 c 128,-1,19
 180 342 180 342 162 301 c 128,-1,20
 144 260 144 260 140 245 c 128,-1,21
 136 230 136 230 144 218 c 128,-1,22
 152 206 152 206 152 196.5 c 128,-1,23
 152 187 152 187 120 146 c 128,-1,24
 88 105 88 105 81 105 c 0,0,1
674 681 m 1,25,26
 671 640 671 640 654.5 617 c 128,-1,27
 638 594 638 594 638 583 c 128,-1,28
 638 572 638 572 621 534.5 c 128,-1,29
 604 497 604 497 604 486 c 0,30,31
 603 474 603 474 593 455 c 0,32,33
 557 386 557 386 551 346 c 0,34,35
 541 276 541 276 519 244 c 128,-1,36
 497 212 497 212 496.5 199 c 128,-1,37
 496 186 496 186 470 165 c 0,38,39
 433 134 433 134 413 134 c 2,40,-1
 402 134 l 1,41,42
 376 136 376 136 348 155.5 c 128,-1,43
 320 175 320 175 320 188.5 c 128,-1,44
 320 202 320 202 312 211 c 0,45,46
 295 228 295 228 278 309 c 128,-1,47
 261 390 261 390 256.5 459 c 128,-1,48
 252 528 252 528 241 558 c 128,-1,49
 230 588 230 588 230 607 c 128,-1,50
 230 626 230 626 243 626 c 0,51,52
 252 626 252 626 267 599.5 c 128,-1,53
 282 573 282 573 288 543 c 128,-1,54
 294 513 294 513 298 496 c 2,55,-1
 310 441 l 2,56,57
 318 403 318 403 318.5 358.5 c 128,-1,58
 319 314 319 314 337 266 c 0,59,60
 368 184 368 184 413 175 c 0,61,62
 419 174 419 174 428.5 174 c 128,-1,63
 438 174 438 174 450 181 c 128,-1,64
 462 188 462 188 462 200 c 128,-1,65
 462 212 462 212 478.5 238 c 128,-1,66
 495 264 495 264 501 299.5 c 128,-1,67
 507 335 507 335 533 412 c 128,-1,68
 559 489 559 489 581.5 533 c 128,-1,69
 604 577 604 577 604 597 c 128,-1,70
 604 617 604 617 607 622.5 c 128,-1,71
 610 628 610 628 617 638 c 128,-1,72
 624 648 624 648 627.5 661.5 c 128,-1,73
 631 675 631 675 635.5 693 c 128,-1,74
 640 711 640 711 643.5 718 c 128,-1,75
 647 725 647 725 653 725 c 2,76,-1
 661 725 l 1,77,78
 674 722 674 722 674 692 c 2,79,-1
 674 681 l 1,25,26
EndSplineSet
Validated: 1
EndChar

StartChar: O
Encoding: 79 79 50
Width: 769
GlyphClass: 2
Flags: W
LayerCount: 2
Fore
SplineSet
244 513 m 128,-1,1
 268 538 268 538 268.5 546.5 c 128,-1,2
 269 555 269 555 312 600 c 0,3,4
 388 679 388 679 453.5 708.5 c 128,-1,5
 519 738 519 738 549 739 c 1,6,-1
 554 739 l 1,7,8
 615 730 615 730 630.5 723 c 128,-1,9
 646 716 646 716 679.5 677.5 c 128,-1,10
 713 639 713 639 713 623.5 c 128,-1,11
 713 608 713 608 628 449 c 0,12,13
 618 432 618 432 560.5 373 c 128,-1,14
 503 314 503 314 439.5 260.5 c 128,-1,15
 376 207 376 207 359.5 207 c 128,-1,16
 343 207 343 207 338.5 195 c 128,-1,17
 334 183 334 183 285 157 c 128,-1,18
 236 131 236 131 222.5 131 c 128,-1,19
 209 131 209 131 177 114.5 c 128,-1,20
 145 98 145 98 137 98 c 2,21,-1
 128 98 l 1,22,23
 113 99 113 99 91 117 c 128,-1,24
 69 135 69 135 63.5 146 c 128,-1,25
 58 157 58 157 58 184 c 128,-1,26
 58 211 58 211 75.5 255.5 c 128,-1,27
 93 300 93 300 111 313 c 1,28,29
 124 324 124 324 135 352 c 128,-1,30
 146 380 146 380 183 434 c 128,-1,0
 220 488 220 488 244 513 c 128,-1,1
288 337 m 1,31,-1
 292 258 l 1,32,33
 292 229 292 229 285 215 c 128,-1,34
 278 201 278 201 283 197 c 128,-1,35
 288 193 288 193 305.5 202 c 128,-1,36
 323 211 323 211 394.5 264.5 c 128,-1,37
 466 318 466 318 473.5 328 c 128,-1,38
 481 338 481 338 491 342 c 0,39,40
 516 353 516 353 574 434 c 128,-1,41
 632 515 632 515 661 579 c 2,42,-1
 679 618 l 1,43,-1
 662 652 l 2,44,45
 645 685 645 685 621 694 c 0,46,47
 610 699 610 699 579 703 c 128,-1,48
 548 707 548 707 538 707 c 0,49,50
 510 707 510 707 510 693 c 0,51,52
 510 683 510 683 527 660.5 c 128,-1,53
 544 638 544 638 544 604 c 128,-1,54
 544 570 544 570 521 520.5 c 128,-1,55
 498 471 498 471 481 471 c 0,56,57
 480 471 480 471 479 471 c 0,58,59
 473 471 473 471 473 481 c 128,-1,60
 473 491 473 491 487.5 512.5 c 128,-1,61
 502 534 502 534 507 550 c 128,-1,62
 512 566 512 566 512 602 c 0,63,64
 512 664 512 664 467 664 c 0,65,66
 431 664 431 664 384 622.5 c 128,-1,67
 337 581 337 581 331 555 c 128,-1,68
 325 529 325 529 313.5 515.5 c 128,-1,69
 302 502 302 502 295 439 c 128,-1,70
 288 376 288 376 288 337 c 1,31,-1
260 486 m 1,71,72
 254 486 254 486 227.5 448.5 c 128,-1,73
 201 411 201 411 201 403.5 c 128,-1,74
 201 396 201 396 180 374.5 c 128,-1,75
 159 353 159 353 159 347 c 128,-1,76
 159 341 159 341 144 316.5 c 128,-1,77
 129 292 129 292 107 253 c 128,-1,78
 85 214 85 214 84 177 c 1,79,80
 84 130 84 130 127 130 c 0,81,82
 138 130 138 130 161 136 c 0,83,84
 215 150 215 150 241 187 c 1,85,86
 264 217 264 217 264 390 c 0,87,88
 264 483 264 483 260 486 c 1,71,72
EndSplineSet
Validated: 1
EndChar

StartChar: P
Encoding: 80 80 51
Width: 570
GlyphClass: 2
Flags: W
LayerCount: 2
Fore
SplineSet
131 641 m 16,0,1
 133 641 133 641 134 641 c 0,2,3
 146 641 146 641 155 623 c 1,4,5
 164 602 164 602 174 602 c 128,-1,6
 184 602 184 602 197.5 627.5 c 128,-1,7
 211 653 211 653 227 673 c 128,-1,8
 243 693 243 693 249.5 693 c 128,-1,9
 256 693 256 693 275.5 710 c 128,-1,10
 295 727 295 727 311 728.5 c 128,-1,11
 327 730 327 730 350 730 c 0,12,13
 476 730 476 730 505 685 c 0,14,15
 514 671 514 671 514 650 c 0,16,17
 514 630 514 630 488 594 c 24,18,19
 483 587 483 587 412 545 c 0,20,21
 367 518 367 518 323 498 c 0,22,23
 284 480 284 480 268 468 c 0,24,25
 253 456 253 456 213 437 c 2,26,-1
 173 418 l 1,27,-1
 167 366 l 0,28,29
 162 322 162 322 154 305 c 0,30,31
 144 286 144 286 144 253 c 0,32,33
 144 182 144 182 110 130 c 0,34,35
 94 106 94 106 84.5 106 c 128,-1,36
 75 106 75 106 67.5 113.5 c 128,-1,37
 60 121 60 121 60 151 c 2,38,-1
 60 192 l 1,39,40
 62 261 62 261 74.5 292.5 c 128,-1,41
 87 324 87 324 98.5 369.5 c 128,-1,42
 110 415 110 415 127 453 c 128,-1,43
 144 491 144 491 144 522.5 c 128,-1,44
 144 554 144 554 130.5 568.5 c 128,-1,45
 117 583 117 583 117 610.5 c 128,-1,46
 117 638 117 638 131 641 c 16,0,1
191 499 m 0,47,48
 192 483 192 483 202 483 c 0,49,50
 205 483 205 483 207 483 c 0,51,52
 224 483 224 483 239 494 c 0,53,54
 253 504 253 504 278 512 c 0,55,56
 301 521 301 521 329.5 540 c 128,-1,57
 358 559 358 559 380 559 c 128,-1,58
 402 559 402 559 427 583 c 128,-1,59
 452 607 452 607 460.5 630 c 128,-1,60
 469 653 469 653 469 664 c 0,61,62
 469 677 469 677 462 685 c 0,63,64
 454 694 454 694 397 694 c 0,65,66
 394 694 394 694 391 694 c 0,67,68
 328 693 328 693 313 689 c 128,-1,69
 298 685 298 685 272 664 c 1,70,71
 237 633 237 633 237 618.5 c 128,-1,72
 237 604 237 604 228 596 c 0,73,74
 223 591 223 591 206 546 c 0,75,76
 191 506 191 506 191 499 c 0,47,48
EndSplineSet
Validated: 1
EndChar

StartChar: Q
Encoding: 81 81 52
Width: 502
GlyphClass: 2
Flags: W
LayerCount: 2
Fore
SplineSet
311 -103 m 2,0,1
 294 -103 294 -103 294 -82 c 128,-1,2
 294 -61 294 -61 302 -20.5 c 128,-1,3
 310 20 310 20 310 97 c 128,-1,4
 310 174 310 174 304 269 c 2,5,-1
 297 379 l 1,6,-1
 254 383 l 2,7,8
 211 386 211 386 183 410 c 0,9,10
 174 418 174 418 166 417 c 1,11,12
 136 417 136 417 98 465.5 c 128,-1,13
 60 514 60 514 60 540 c 0,14,15
 60 545 60 545 61 549 c 0,16,17
 91 642 91 642 130.5 681.5 c 128,-1,18
 170 721 170 721 243 727 c 0,19,20
 274 730 274 730 299 730 c 0,21,22
 376 730 376 730 403 705 c 0,23,24
 423 687 423 687 433.5 647 c 128,-1,25
 444 607 444 607 444 588 c 128,-1,26
 444 569 444 569 441 548 c 128,-1,27
 438 527 438 527 412 477 c 128,-1,28
 386 427 386 427 364 412 c 1,29,30
 348 397 348 397 345.5 382 c 128,-1,31
 343 367 343 367 343 335 c 2,32,-1
 348 119 l 2,33,34
 348 107 348 107 348 95 c 0,35,36
 348 9 348 9 330 -86 c 0,37,38
 327 -101 327 -101 314 -103 c 1,39,-1
 311 -103 l 2,0,1
409 622 m 0,40,41
 386 685 386 685 352 698 c 0,42,43
 329 707 329 707 288.5 707 c 128,-1,44
 248 707 248 707 216 697.5 c 128,-1,45
 184 688 184 688 153.5 658.5 c 128,-1,46
 123 629 123 629 111 589 c 0,47,48
 104 568 104 568 104 550.5 c 128,-1,49
 104 533 104 533 110.5 516.5 c 128,-1,50
 117 500 117 500 139 475.5 c 128,-1,51
 161 451 161 451 169.5 450.5 c 128,-1,52
 178 450 178 450 188 442 c 0,53,54
 216 418 216 418 256 418 c 0,55,56
 258 418 258 418 260 417 c 1,57,58
 296 417 296 417 306 429 c 128,-1,59
 316 441 316 441 322 485.5 c 128,-1,60
 328 530 328 530 352 558 c 0,61,62
 367 577 367 577 373.5 580.5 c 128,-1,63
 380 584 380 584 392 578 c 128,-1,64
 404 572 404 572 408 572 c 0,65,66
 417 572 417 572 417 586 c 128,-1,67
 417 600 417 600 409 622 c 0,40,41
377 542 m 0,68,69
 376 542 376 542 375 542 c 0,70,71
 369 542 369 542 365 530 c 0,72,73
 355 497 355 497 355 478 c 128,-1,74
 355 459 355 459 359 459 c 0,75,76
 360 459 l 0,77,78
 369 459 369 459 380 484 c 0,79,80
 392 510 392 510 393 518 c 0,81,82
 393 538 393 538 377 542 c 0,68,69
EndSplineSet
Validated: 1
EndChar

StartChar: R
Encoding: 82 82 53
Width: 669
GlyphClass: 2
Flags: W
LayerCount: 2
Fore
SplineSet
453.5 401.5 m 128,-1,1
 478 426 478 426 478 434 c 128,-1,2
 478 442 478 442 495 466 c 128,-1,3
 512 490 512 490 512 500 c 128,-1,4
 512 510 512 510 534 552 c 128,-1,5
 556 594 556 594 557 628 c 0,6,7
 557 662 557 662 529 663 c 2,8,-1
 526 663 l 1,9,10
 509 662 509 662 455.5 627.5 c 128,-1,11
 402 593 402 593 402 584 c 0,12,13
 402 580 402 580 376 558 c 0,14,15
 294 491 294 491 286.5 471.5 c 128,-1,16
 279 452 279 452 266 437 c 128,-1,17
 253 422 253 422 243.5 412 c 128,-1,18
 234 402 234 402 234 396 c 128,-1,19
 234 390 234 390 196 313.5 c 128,-1,20
 158 237 158 237 148.5 225 c 128,-1,21
 139 213 139 213 128.5 183 c 128,-1,22
 118 153 118 153 117.5 138.5 c 128,-1,23
 117 124 117 124 102.5 115 c 128,-1,24
 88 106 88 106 73 113 c 128,-1,25
 58 120 58 120 58 139 c 128,-1,26
 58 158 58 158 77 198 c 128,-1,27
 96 238 96 238 113 257 c 0,28,29
 120 266 120 266 161 344 c 128,-1,30
 202 422 202 422 231 464.5 c 128,-1,31
 260 507 260 507 260 529.5 c 128,-1,32
 260 552 260 552 273.5 566.5 c 128,-1,33
 287 581 287 581 303 584 c 0,34,35
 350 593 350 593 360 609 c 0,36,37
 368 626 368 626 378 626 c 128,-1,38
 388 626 388 626 395 634 c 0,39,40
 421 666 421 666 459 685 c 0,41,42
 496 704 496 704 520 722 c 128,-1,43
 544 740 544 740 570 740 c 0,44,-1
 582 740 l 0,45,46
 594 740 594 740 603 732 c 128,-1,47
 612 724 612 724 612 681 c 128,-1,48
 612 638 612 638 597.5 601 c 128,-1,49
 583 564 583 564 568.5 536 c 128,-1,50
 554 508 554 508 554 489 c 128,-1,51
 554 470 554 470 533 452.5 c 128,-1,52
 512 435 512 435 512 422.5 c 128,-1,53
 512 410 512 410 497.5 393 c 128,-1,54
 483 376 483 376 449.5 340.5 c 128,-1,55
 416 305 416 305 386.5 269 c 128,-1,56
 357 233 357 233 351 219.5 c 128,-1,57
 345 206 345 206 345 194 c 2,58,-1
 345 179 l 1,59,-1
 348 143 l 1,60,-1
 390 146 l 2,61,62
 425 148 425 148 439.5 156.5 c 128,-1,63
 454 165 454 165 464.5 165 c 128,-1,64
 475 165 475 165 499 182 c 1,65,-1
 521 201 l 1,66,-1
 540 183 l 2,67,68
 550 173 550 173 550 166 c 128,-1,69
 550 159 550 159 544.5 150 c 128,-1,70
 539 141 539 141 506 122 c 128,-1,71
 473 103 473 103 453.5 98.5 c 128,-1,72
 434 94 434 94 378 94 c 128,-1,73
 322 94 322 94 312 100 c 128,-1,74
 302 106 302 106 302 161 c 128,-1,75
 302 216 302 216 306.5 231.5 c 128,-1,76
 311 247 311 247 333 276.5 c 128,-1,77
 355 306 355 306 392 341.5 c 128,-1,0
 429 377 429 377 453.5 401.5 c 128,-1,1
EndSplineSet
Validated: 1
EndChar

StartChar: S
Encoding: 83 83 54
Width: 839
GlyphClass: 2
Flags: W
LayerCount: 2
Fore
SplineSet
419 712 m 1,0,-1
 416 717 l 1,1,2
 417 718 417 718 426 714 c 0,3,4
 428 713 428 713 431 713 c 0,5,-1
 434 713 l 0,6,-1
 435 713 l 0,7,-1
 436 713 l 0,8,-1
 437 713 l 0,9,10
 438 713 l 0,11,12
 439 713 l 0,13,14
 440 713 l 0,15,16
 441 713 l 0,17,18
 445 712 445 712 470 725 c 0,19,20
 502 742 502 742 554 746 c 0,21,22
 604 750 604 750 640 752 c 0,23,24
 644 753 644 753 649 753 c 0,25,26
 688 751 688 751 727 736 c 1,27,28
 751 725 751 725 759.5 717.5 c 128,-1,29
 768 710 768 710 775 685 c 128,-1,30
 782 660 782 660 782 643.5 c 128,-1,31
 782 627 782 627 778 617 c 1,32,33
 768 583 768 583 678 501 c 0,34,35
 657 482 657 482 645.5 476 c 128,-1,36
 634 470 634 470 606.5 456 c 128,-1,37
 579 442 579 442 537.5 418 c 128,-1,38
 496 394 496 394 455 382 c 128,-1,39
 414 370 414 370 400 358 c 1,40,-1
 379 343 l 1,41,-1
 402 303 l 2,42,43
 415 279 415 279 420.5 257 c 128,-1,44
 426 235 426 235 426 192.5 c 128,-1,45
 426 150 426 150 418 133 c 128,-1,46
 410 116 410 116 371 97 c 128,-1,47
 332 78 332 78 298 77 c 0,48,49
 267 77 267 77 226.5 85.5 c 128,-1,50
 186 94 186 94 159 99 c 128,-1,51
 132 104 132 104 103.5 125.5 c 128,-1,52
 75 147 75 147 66 172.5 c 128,-1,53
 57 198 57 198 57 205.5 c 128,-1,54
 57 213 57 213 70.5 224 c 128,-1,55
 84 235 84 235 101.5 237.5 c 128,-1,56
 119 240 119 240 143 240 c 2,57,-1
 182 240 l 1,58,59
 241 239 241 239 259 235.5 c 128,-1,60
 277 232 277 232 282 222 c 128,-1,61
 287 212 287 212 294.5 210 c 128,-1,62
 302 208 302 208 318 211 c 128,-1,63
 334 214 334 214 343.5 211.5 c 128,-1,64
 353 209 353 209 355 202.5 c 128,-1,65
 357 196 357 196 348 185 c 128,-1,66
 339 174 339 174 322 174 c 2,67,-1
 319 174 l 1,68,69
 300 175 300 175 265.5 186.5 c 128,-1,70
 231 198 231 198 200 202 c 128,-1,71
 169 206 169 206 137 206 c 128,-1,72
 105 206 105 206 105 195 c 0,73,74
 105 178 105 178 135 157 c 0,75,76
 187 121 187 121 290 121 c 0,77,78
 366 121 366 121 385 151.5 c 128,-1,79
 404 182 404 182 404 202.5 c 128,-1,80
 404 223 404 223 388 255 c 128,-1,81
 372 287 372 287 363.5 302 c 128,-1,82
 355 317 355 317 344 326 c 128,-1,83
 333 335 333 335 325 332.5 c 128,-1,84
 317 330 317 330 287 316 c 128,-1,85
 257 302 257 302 231.5 302 c 128,-1,86
 206 302 206 302 199 309 c 0,87,88
 189 321 189 321 199.5 327.5 c 128,-1,89
 210 334 210 334 265 348 c 1,90,91
 319 364 319 364 328 372 c 1,92,93
 333 378 333 378 333 397 c 1,94,-1
 331 426 l 1,95,96
 328 449 328 449 328 484 c 128,-1,97
 328 519 328 519 342.5 576.5 c 128,-1,98
 357 634 357 634 388 668 c 128,-1,99
 419 702 419 702 419 712 c 1,0,-1
741 678.5 m 128,-1,101
 730 693 730 693 712 693.5 c 128,-1,102
 694 694 694 694 684 706.5 c 128,-1,103
 674 719 674 719 630 719 c 128,-1,104
 586 719 586 719 520 692 c 0,105,106
 504 686 504 686 482 680 c 0,107,108
 443 670 443 670 412.5 632.5 c 128,-1,109
 382 595 382 595 382 566 c 128,-1,110
 382 537 382 537 374.5 529.5 c 128,-1,111
 367 522 367 522 367 503 c 128,-1,112
 367 484 367 484 371.5 445.5 c 128,-1,113
 376 407 376 407 387 402 c 1,114,115
 393 401 393 401 396 401 c 128,-1,116
 399 401 399 401 402 402 c 128,-1,117
 405 403 405 403 416.5 410 c 128,-1,118
 428 417 428 417 445 421.5 c 128,-1,119
 462 426 462 426 538.5 464 c 128,-1,120
 615 502 615 502 642.5 521 c 128,-1,121
 670 540 670 540 696 568 c 0,122,123
 752 627 752 627 752 645.5 c 128,-1,100
 752 664 752 664 741 678.5 c 128,-1,101
EndSplineSet
Validated: 1
EndChar

StartChar: T
Encoding: 84 84 55
Width: 743
GlyphClass: 2
Flags: W
LayerCount: 2
Fore
SplineSet
674 724 m 1,0,1
 681 723 681 723 686 714 c 0,2,3
 687 712 687 712 687 710 c 0,4,5
 687 698 687 698 668.5 678.5 c 128,-1,6
 650 659 650 659 636.5 659 c 128,-1,7
 623 659 623 659 609 649 c 128,-1,8
 595 639 595 639 583 626 c 128,-1,9
 571 613 571 613 549 603 c 128,-1,10
 527 593 527 593 502 593 c 128,-1,11
 477 593 477 593 447 580.5 c 128,-1,12
 417 568 417 568 395 568 c 2,13,-1
 367 568 l 1,14,-1
 316 571 l 1,15,-1
 310 538 l 2,16,17
 304 504 304 504 282 427 c 0,18,19
 257 343 257 343 253 324 c 0,20,21
 242 270 242 270 168 123 c 0,22,23
 153 93 153 93 136.5 93 c 128,-1,24
 120 93 120 93 120 106 c 128,-1,25
 120 119 120 119 149.5 172 c 128,-1,26
 179 225 179 225 182.5 242.5 c 128,-1,27
 186 260 186 260 194 269.5 c 128,-1,28
 202 279 202 279 202 294.5 c 128,-1,29
 202 310 202 310 210 320 c 0,30,31
 217 329 217 329 220 340 c 0,32,33
 221 347 221 347 236 399 c 0,34,35
 253 460 253 460 257 510 c 2,36,-1
 262 584 l 1,37,-1
 237 600 l 2,38,39
 222 610 222 610 174 618 c 0,40,41
 127 625 127 625 93 633.5 c 128,-1,42
 59 642 59 642 59 658 c 0,43,44
 59 662 59 662 90 662 c 2,45,-1
 133 662 l 1,46,47
 186 660 186 660 213 652.5 c 128,-1,48
 240 645 240 645 317 612 c 0,49,50
 343 601 343 601 380.5 601 c 128,-1,51
 418 601 418 601 472 617.5 c 128,-1,52
 526 634 526 634 537 646.5 c 128,-1,53
 548 659 548 659 571.5 659 c 128,-1,54
 595 659 595 659 626 691.5 c 128,-1,55
 657 724 657 724 674 724 c 1,0,1
EndSplineSet
Validated: 1
EndChar

StartChar: U
Encoding: 85 85 56
Width: 694
GlyphClass: 2
Flags: W
LayerCount: 2
Fore
SplineSet
545 259 m 0,0,1
 557 267 557 267 560 290 c 128,-1,2
 563 313 563 313 564 505.5 c 128,-1,3
 565 698 565 698 566 704.5 c 128,-1,4
 567 711 567 711 579 712 c 1,5,-1
 580 712 l 1,6,-1
 601 706 l 1,7,8
 613 700 613 700 617 693 c 0,9,10
 626 677 626 677 627 477 c 1,11,-1
 627 276 l 1,12,-1
 589 232 l 2,13,14
 517 149 517 149 471 125.5 c 128,-1,15
 425 102 425 102 336 102 c 2,16,-1
 329 102 l 2,17,18
 239 102 239 102 199 116 c 128,-1,19
 159 130 159 130 116 178.5 c 128,-1,20
 73 227 73 227 68.5 251.5 c 128,-1,21
 64 276 64 276 64 310.5 c 128,-1,22
 64 345 64 345 68 411.5 c 128,-1,23
 72 478 72 478 82 490 c 0,24,25
 100 512 100 512 143 621 c 0,26,27
 151 641 151 641 157.5 646 c 128,-1,28
 164 651 164 651 178.5 649.5 c 128,-1,29
 193 648 193 648 198.5 642.5 c 128,-1,30
 204 637 204 637 205.5 621 c 128,-1,31
 207 605 207 605 198.5 592 c 128,-1,32
 190 579 190 579 181.5 571 c 128,-1,33
 173 563 173 563 173 557 c 128,-1,34
 173 551 173 551 159 532 c 128,-1,35
 145 513 145 513 143 499 c 0,36,37
 140 460 140 460 132.5 425.5 c 128,-1,38
 125 391 125 391 119 383.5 c 128,-1,39
 113 376 113 376 113 366 c 2,40,-1
 113 353 l 1,41,42
 114 331 114 331 120.5 321.5 c 128,-1,43
 127 312 127 312 129 294 c 0,44,45
 133 242 133 242 177 194 c 1,46,-1
 214 151 l 1,47,-1
 403 146 l 1,48,-1
 445 177 l 1,49,50
 485 205 485 205 497 210.5 c 128,-1,51
 509 216 509 216 517 221 c 128,-1,52
 525 226 525 226 525 236.5 c 128,-1,53
 525 247 525 247 545 259 c 0,0,1
EndSplineSet
Validated: 1
EndChar

StartChar: V
Encoding: 86 86 57
Width: 787
GlyphClass: 2
Flags: W
LayerCount: 2
Fore
SplineSet
94 403.5 m 128,-1,1
 85 391 85 391 72.5 391 c 128,-1,2
 60 391 60 391 60 421 c 128,-1,3
 60 451 60 451 73 476.5 c 128,-1,4
 86 502 86 502 86.5 529.5 c 128,-1,5
 87 557 87 557 101 557 c 128,-1,6
 115 557 115 557 152 517.5 c 128,-1,7
 189 478 189 478 205 438.5 c 128,-1,8
 221 399 221 399 221 336 c 128,-1,9
 221 273 221 273 210 258 c 1,10,11
 201 240 201 240 205.5 228 c 128,-1,12
 210 216 210 216 226.5 216.5 c 128,-1,13
 243 217 243 217 259 231 c 1,14,15
 322 292 322 292 333.5 299.5 c 128,-1,16
 345 307 345 307 369.5 338.5 c 128,-1,17
 394 370 394 370 420.5 397.5 c 128,-1,18
 447 425 447 425 460 439.5 c 128,-1,19
 473 454 473 454 473 463 c 128,-1,20
 473 472 473 472 506.5 510.5 c 128,-1,21
 540 549 540 549 543.5 567.5 c 128,-1,22
 547 586 547 586 557.5 593.5 c 128,-1,23
 568 601 568 601 589.5 613.5 c 128,-1,24
 611 626 611 626 636 652 c 0,25,26
 660 677 660 677 674 677 c 0,27,-1
 675 676 l 0,28,29
 690 676 690 676 695 685 c 128,-1,30
 700 694 700 694 705 694 c 0,31,32
 706 694 706 694 707 694 c 128,-1,33
 708 694 708 694 709 694 c 128,-1,34
 710 694 710 694 711 694 c 0,35,-1
 712 694 l 0,36,37
 713 694 713 694 714 694 c 0,38,-1
 715 694 l 0,39,40
 724 694 724 694 729 664 c 0,41,42
 731 652 731 652 731 644 c 0,43,44
 731 634 731 634 725.5 627.5 c 128,-1,45
 720 621 720 621 688.5 610.5 c 128,-1,46
 657 600 657 600 602 540 c 128,-1,47
 547 480 547 480 547 471 c 128,-1,48
 547 462 547 462 531 451 c 128,-1,49
 515 440 515 440 515 433 c 128,-1,50
 515 426 515 426 477 377 c 2,51,-1
 444 333 l 1,52,53
 419 296 419 296 395 283.5 c 128,-1,54
 371 271 371 271 371 263 c 0,55,56
 371 245 371 245 280.5 163 c 128,-1,57
 190 81 190 81 171 81 c 0,58,59
 162 81 162 81 150.5 98.5 c 128,-1,60
 139 116 139 116 139 132.5 c 128,-1,61
 139 149 139 149 153.5 228.5 c 128,-1,62
 168 308 168 308 168 332 c 2,63,-1
 168 358 l 2,64,65
 168 398 168 398 160 405 c 128,-1,66
 152 412 152 412 152.5 425.5 c 128,-1,67
 153 439 153 439 137 450 c 128,-1,68
 121 461 121 461 112 456.5 c 128,-1,69
 103 452 103 452 103 434 c 128,-1,0
 103 416 103 416 94 403.5 c 128,-1,1
EndSplineSet
Validated: 1
EndChar

StartChar: W
Encoding: 87 87 58
Width: 1029
GlyphClass: 2
Flags: W
LayerCount: 2
Fore
SplineSet
972 490 m 0,0,1
 972 477 972 477 956 477 c 0,2,3
 947 477 947 477 926 489 c 128,-1,4
 905 501 905 501 896.5 501 c 128,-1,5
 888 501 888 501 870 516 c 1,6,7
 849 537 849 537 811 537 c 0,8,9
 795 537 795 537 795 525.5 c 128,-1,10
 795 514 795 514 813 504.5 c 128,-1,11
 831 495 831 495 858 460 c 1,12,13
 921 386 921 386 921 290 c 0,14,15
 921 256 921 256 882.5 209 c 128,-1,16
 844 162 844 162 815 143 c 2,17,-1
 761 108 l 2,18,19
 735 92 735 92 717.5 86.5 c 128,-1,20
 700 81 700 81 670 81 c 128,-1,21
 640 81 640 81 625.5 85 c 128,-1,22
 611 89 611 89 587.5 108 c 128,-1,23
 564 127 564 127 564 135 c 0,24,25
 564 147 564 147 547.5 166 c 128,-1,26
 531 185 531 185 530 218 c 0,27,28
 530 223 530 223 531 229 c 1,29,-1
 531 250 l 2,30,31
 531 270 531 270 528 267 c 1,32,33
 509 261 509 261 489 246.5 c 128,-1,34
 469 232 469 232 459.5 214 c 128,-1,35
 450 196 450 196 423.5 171.5 c 128,-1,36
 397 147 397 147 381.5 147 c 128,-1,37
 366 147 366 147 345 133 c 1,38,39
 312 108 312 108 278 95 c 128,-1,40
 244 82 244 82 230.5 82 c 128,-1,41
 217 82 217 82 213 83 c 0,42,43
 110 96 110 96 98 132 c 0,44,45
 96 139 96 139 96 153.5 c 128,-1,46
 96 168 96 168 105.5 209 c 128,-1,47
 115 250 115 250 129.5 263 c 128,-1,48
 144 276 144 276 144 303 c 128,-1,49
 144 330 144 330 154 366 c 0,50,51
 163 402 163 402 170.5 411 c 128,-1,52
 178 420 178 420 178 450.5 c 128,-1,53
 178 481 178 481 173.5 485 c 128,-1,54
 169 489 169 489 153.5 471.5 c 128,-1,55
 138 454 138 454 123 428.5 c 128,-1,56
 108 403 108 403 105 391 c 0,57,58
 98 353 98 353 79 351 c 1,59,60
 63 356 63 356 60 387 c 1,61,62
 60 416 60 416 69.5 437 c 128,-1,63
 79 458 79 458 105.5 485.5 c 128,-1,64
 132 513 132 513 144 541 c 128,-1,65
 156 569 156 569 164.5 605 c 128,-1,66
 173 641 173 641 186 668 c 128,-1,67
 199 695 199 695 206.5 698 c 128,-1,68
 214 701 214 701 219.5 701 c 128,-1,69
 225 701 225 701 235 691 c 128,-1,70
 245 681 245 681 245 596.5 c 128,-1,71
 245 512 245 512 238 504.5 c 128,-1,72
 231 497 231 497 216.5 434 c 128,-1,73
 202 371 202 371 198.5 334 c 128,-1,74
 195 297 195 297 190 281 c 128,-1,75
 185 265 185 265 165 221 c 1,76,77
 155 195 155 195 155 185 c 0,78,79
 155 155 155 155 174.5 140.5 c 128,-1,80
 194 126 194 126 202 126 c 1,81,82
 202 125 l 1,83,84
 210 125 210 125 236 136 c 128,-1,85
 262 147 262 147 283 147 c 128,-1,86
 304 147 304 147 387 215 c 128,-1,87
 470 283 470 283 481 305.5 c 128,-1,88
 492 328 492 328 508 348 c 128,-1,89
 524 368 524 368 547 416 c 128,-1,90
 570 464 570 464 580.5 480.5 c 128,-1,91
 591 497 591 497 605.5 499 c 128,-1,92
 620 501 620 501 629 490 c 1,93,94
 633 483 633 483 633 459.5 c 128,-1,95
 633 436 633 436 629 381 c 128,-1,96
 625 326 625 326 611 293 c 128,-1,97
 597 260 597 260 597 221.5 c 128,-1,98
 597 183 597 183 602 169.5 c 128,-1,99
 607 156 607 156 631 144 c 128,-1,100
 655 132 655 132 661 132 c 2,101,-1
 668 132 l 1,102,103
 679 133 679 133 708 142 c 128,-1,104
 737 151 737 151 758 166.5 c 128,-1,105
 779 182 779 182 814 217 c 128,-1,106
 849 252 849 252 859.5 266.5 c 128,-1,107
 870 281 870 281 869.5 285.5 c 128,-1,108
 869 290 869 290 863.5 301 c 128,-1,109
 858 312 858 312 858 332 c 128,-1,110
 858 352 858 352 850 362.5 c 128,-1,111
 842 373 842 373 837 398 c 128,-1,112
 832 423 832 423 804 439 c 0,113,114
 785 451 785 451 754.5 489.5 c 128,-1,115
 724 528 724 528 724 542 c 0,116,117
 724 546 724 546 717 552 c 0,118,119
 699 567 699 567 699 590 c 128,-1,120
 699 613 699 613 706 618 c 0,121,122
 711 621 711 621 721 621 c 0,123,124
 769 621 769 621 840.5 587 c 128,-1,125
 912 553 912 553 939 529 c 128,-1,126
 966 505 966 505 969 499.5 c 128,-1,127
 972 494 972 494 972 490 c 0,0,1
EndSplineSet
Validated: 1
EndChar

StartChar: X
Encoding: 88 88 59
Width: 764
GlyphClass: 2
Flags: W
LayerCount: 2
Fore
SplineSet
246 710 m 0,0,1
 256 710 256 710 286 682 c 0,2,3
 318 652 318 652 326 634 c 0,4,5
 335 613 335 613 354.5 585.5 c 128,-1,6
 374 558 374 558 386 541.5 c 128,-1,7
 398 525 398 525 398 516.5 c 128,-1,8
 398 508 398 508 419 495.5 c 128,-1,9
 440 483 440 483 458 483 c 128,-1,10
 476 483 476 483 491.5 496 c 128,-1,11
 507 509 507 509 519 521.5 c 128,-1,12
 531 534 531 534 541.5 534 c 128,-1,13
 552 534 552 534 568.5 554.5 c 128,-1,14
 585 575 585 575 596 575 c 128,-1,15
 607 575 607 575 633.5 599 c 128,-1,16
 660 623 660 623 668 624.5 c 128,-1,17
 676 626 676 626 691.5 610 c 128,-1,18
 707 594 707 594 707 583.5 c 128,-1,19
 707 573 707 573 691.5 560.5 c 128,-1,20
 676 548 676 548 652 525 c 128,-1,21
 628 502 628 502 618 502 c 0,22,23
 606 501 606 501 599 493 c 128,-1,24
 592 485 592 485 545 454 c 2,25,-1
 498 423 l 1,26,-1
 496 270 l 2,27,28
 494 133 494 133 489.5 126 c 128,-1,29
 485 119 485 119 478 119 c 0,30,31
 466 119 466 119 463.5 133 c 128,-1,32
 461 147 461 147 459 208.5 c 128,-1,33
 457 270 457 270 453.5 293 c 128,-1,34
 450 316 450 316 440 328 c 0,35,36
 429 340 429 340 417.5 340 c 128,-1,37
 406 340 406 340 388.5 331 c 128,-1,38
 371 322 371 322 342.5 290.5 c 128,-1,39
 314 259 314 259 314 251.5 c 128,-1,40
 314 244 314 244 302 237 c 128,-1,41
 290 230 290 230 272 220.5 c 128,-1,42
 254 211 254 211 243 200 c 1,43,44
 228 182 228 182 219.5 181.5 c 128,-1,45
 211 181 211 181 203.5 171 c 128,-1,46
 196 161 196 161 180 136.5 c 128,-1,47
 164 112 164 112 148 94 c 0,48,49
 103 43 103 43 97 32 c 1,50,51
 73 0 73 0 64 0 c 2,52,-1
 63 0 l 2,53,54
 62 0 62 0 58 3 c 128,-1,55
 54 6 54 6 54 14 c 0,56,57
 54 43 54 43 70.5 65 c 128,-1,58
 87 87 87 87 87.5 92.5 c 128,-1,59
 88 98 88 98 134 147.5 c 128,-1,60
 180 197 180 197 180 206 c 0,61,62
 180 211 180 211 218 235.5 c 128,-1,63
 256 260 256 260 256 266 c 0,64,65
 256 278 256 278 284 309.5 c 128,-1,66
 312 341 312 341 323 342 c 0,67,68
 344 345 344 345 349 370.5 c 128,-1,69
 354 396 354 396 373.5 405 c 128,-1,70
 393 414 393 414 397 430 c 128,-1,71
 401 446 401 446 391.5 452.5 c 128,-1,72
 382 459 382 459 382 473 c 128,-1,73
 382 487 382 487 365 500 c 128,-1,74
 348 513 348 513 348 518.5 c 128,-1,75
 348 524 348 524 324 549 c 128,-1,76
 300 574 300 574 289 596 c 0,77,78
 265 642 265 642 250 668.5 c 128,-1,79
 235 695 235 695 235 700 c 0,80,81
 235 709 235 709 246 710 c 0,0,1
EndSplineSet
Validated: 1
EndChar

StartChar: Y
Encoding: 89 89 60
Width: 522
GlyphClass: 2
Flags: W
LayerCount: 2
Fore
SplineSet
229 308 m 0,0,1
 210 291 210 291 166.5 291 c 128,-1,2
 123 291 123 291 115 295 c 128,-1,3
 107 299 107 299 94.5 329 c 128,-1,4
 82 359 82 359 82 393 c 128,-1,5
 82 427 82 427 96 485.5 c 128,-1,6
 110 544 110 544 110 559 c 0,7,8
 111 574 111 574 106 574 c 128,-1,9
 101 574 101 574 89.5 558.5 c 128,-1,10
 78 543 78 543 69.5 547 c 128,-1,11
 61 551 61 551 61 558 c 128,-1,12
 61 565 61 565 65.5 577 c 128,-1,13
 70 589 70 589 82.5 606 c 128,-1,14
 95 623 95 623 107.5 639.5 c 128,-1,15
 120 656 120 656 120 666 c 128,-1,16
 120 676 120 676 133.5 702 c 128,-1,17
 147 728 147 728 157 728 c 128,-1,18
 167 728 167 728 167 713 c 1,19,20
 167 711 l 0,21,22
 167 710 167 710 167 709 c 0,23,-1
 167 708 l 0,24,-1
 167 707 l 0,25,-1
 167 706 l 0,26,-1
 167 705 l 0,27,-1
 167 704 l 0,28,-1
 167 703 l 0,29,-1
 167 702 l 0,30,31
 167 701 l 0,32,33
 167 694 167 694 157 656 c 0,34,35
 145 611 145 611 145 587 c 0,36,37
 145 566 145 566 129.5 518 c 128,-1,38
 114 470 114 470 113 408 c 1,39,-1
 113 400 l 2,40,41
 113 344 113 344 126 330 c 1,42,43
 137 320 137 320 153 320 c 0,44,45
 210 320 210 320 244 346 c 0,46,47
 299 388 299 388 350 449.5 c 128,-1,48
 401 511 401 511 420.5 557 c 128,-1,49
 440 603 440 603 452.5 606.5 c 128,-1,50
 465 610 465 610 465 596 c 0,51,52
 465 564 465 564 427 499 c 128,-1,53
 389 434 389 434 389 422 c 128,-1,54
 389 410 389 410 381 392 c 0,55,56
 357 340 357 340 352 278 c 0,57,58
 344 167 344 167 337.5 130 c 128,-1,59
 331 93 331 93 322 93 c 0,60,61
 310 93 310 93 308 124 c 1,62,-1
 308 138 l 2,63,64
 308 195 308 195 319 272 c 1,65,66
 322 335 322 335 328.5 342 c 128,-1,67
 335 349 335 349 337.5 358.5 c 128,-1,68
 340 368 340 368 338.5 375.5 c 128,-1,69
 337 383 337 383 332 383 c 128,-1,70
 327 383 327 383 296.5 353.5 c 128,-1,71
 266 324 266 324 257.5 324 c 128,-1,72
 249 324 249 324 229 308 c 0,0,1
EndSplineSet
Validated: 1
EndChar

StartChar: Z
Encoding: 90 90 61
Width: 669
GlyphClass: 2
Flags: W
LayerCount: 2
Fore
SplineSet
136 455 m 2,0,1
 86 455 86 455 86 480 c 0,2,3
 86 491 86 491 99 499 c 1,4,5
 118 509 118 509 154 509 c 128,-1,6
 190 509 190 509 215.5 522.5 c 128,-1,7
 241 536 241 536 262 537.5 c 128,-1,8
 283 539 283 539 310.5 553 c 128,-1,9
 338 567 338 567 365.5 571.5 c 128,-1,10
 393 576 393 576 413 588 c 256,11,12
 433 600 433 600 436 612 c 0,13,14
 441 632 441 632 464.5 642.5 c 128,-1,15
 488 653 488 653 498.5 660.5 c 128,-1,16
 509 668 509 668 511.5 672 c 128,-1,17
 514 676 514 676 517.5 676 c 128,-1,18
 521 676 521 676 524 676 c 0,19,20
 525 677 l 0,21,22
 528 677 528 677 538 672 c 0,23,24
 550 667 550 667 551.5 657.5 c 128,-1,25
 553 648 553 648 546.5 636.5 c 128,-1,26
 540 625 540 625 532 613.5 c 128,-1,27
 524 602 524 602 517.5 592 c 128,-1,28
 511 582 511 582 511 579 c 128,-1,29
 511 576 511 576 477 541.5 c 128,-1,30
 443 507 443 507 438.5 488.5 c 128,-1,31
 434 470 434 470 405 434 c 128,-1,32
 376 398 376 398 372 382 c 128,-1,33
 368 366 368 366 334.5 323.5 c 128,-1,34
 301 281 301 281 301 275 c 128,-1,35
 301 269 301 269 286 248 c 0,36,37
 270 226 270 226 270 218 c 0,38,39
 270 215 270 215 271 214 c 1,40,41
 273 210 273 210 298 210 c 2,42,-1
 333 210 l 2,43,44
 487 210 487 210 528 232 c 0,45,46
 558 247 558 247 571.5 247.5 c 128,-1,47
 585 248 585 248 595.5 236 c 128,-1,48
 606 224 606 224 606 218.5 c 128,-1,49
 606 213 606 213 585 193 c 128,-1,50
 564 173 564 173 551.5 173 c 128,-1,51
 539 173 539 173 522.5 161.5 c 128,-1,52
 506 150 506 150 345 146 c 2,53,-1
 184 143 l 1,54,-1
 152 113 l 2,55,56
 124 86 124 86 116 84 c 128,-1,57
 108 82 108 82 100.5 82 c 128,-1,58
 93 82 93 82 75 94.5 c 128,-1,59
 57 107 57 107 57 118.5 c 128,-1,60
 57 130 57 130 68 142.5 c 128,-1,61
 79 155 79 155 91 168.5 c 128,-1,62
 103 182 103 182 113.5 198.5 c 128,-1,63
 124 215 124 215 148 215 c 2,64,-1
 157 215 l 2,65,66
 176 215 176 215 220.5 262.5 c 128,-1,67
 265 310 265 310 266.5 325.5 c 128,-1,68
 268 341 268 341 274.5 345 c 128,-1,69
 281 349 281 349 306.5 385.5 c 128,-1,70
 332 422 332 422 346 434 c 128,-1,71
 360 446 360 446 361.5 467.5 c 128,-1,72
 363 489 363 489 356.5 494 c 128,-1,73
 350 499 350 499 318 499 c 128,-1,74
 286 499 286 499 244 478.5 c 128,-1,75
 202 458 202 458 149 455 c 1,76,-1
 136 455 l 2,0,1
EndSplineSet
Validated: 1
EndChar

StartChar: bracketleft
Encoding: 91 91 62
Width: 577
GlyphClass: 2
Flags: W
LayerCount: 2
Fore
SplineSet
258 630 m 0,0,1
 258 652 258 652 286 658 c 0,2,3
 293 660 293 660 305.5 660 c 128,-1,4
 318 660 318 660 334 646 c 1,5,6
 355 631 355 631 407 631 c 128,-1,7
 459 631 459 631 469 638 c 1,8,9
 478 643 478 643 493 643 c 0,10,11
 497 643 l 0,12,13
 502 644 502 644 506 644 c 0,14,15
 507 644 507 644 508 644 c 128,-1,16
 509 644 509 644 510 644 c 0,17,18
 524 644 524 644 528 620 c 0,19,20
 529 614 529 614 529 609 c 0,21,22
 529 603 529 603 525.5 597.5 c 128,-1,23
 522 592 522 592 510 589 c 128,-1,24
 498 586 498 586 484 585 c 0,25,26
 433 581 433 581 408.5 575 c 128,-1,27
 384 569 384 569 378.5 578 c 128,-1,28
 373 587 373 587 357.5 586.5 c 128,-1,29
 342 586 342 586 341 586 c 0,30,31
 310 586 310 586 300.5 576.5 c 128,-1,32
 291 567 291 567 291 527 c 128,-1,33
 291 487 291 487 275 461.5 c 128,-1,34
 259 436 259 436 255 414.5 c 128,-1,35
 251 393 251 393 238.5 374.5 c 128,-1,36
 226 356 226 356 217.5 306 c 128,-1,37
 209 256 209 256 197 234.5 c 128,-1,38
 185 213 185 213 180.5 190.5 c 128,-1,39
 176 168 176 168 168 156.5 c 128,-1,40
 160 145 160 145 153.5 111 c 128,-1,41
 147 77 147 77 139.5 56 c 128,-1,42
 132 35 132 35 129.5 23.5 c 128,-1,43
 127 12 127 12 129 -8 c 2,44,-1
 131 -40 l 1,45,-1
 325 -41 l 1,46,-1
 337 -64 l 2,47,48
 344 -78 344 -78 344 -86 c 128,-1,49
 344 -94 344 -94 340 -98 c 0,50,51
 330 -111 330 -111 308.5 -117 c 128,-1,52
 287 -123 287 -123 278 -123 c 128,-1,53
 269 -123 269 -123 260.5 -117 c 128,-1,54
 252 -111 252 -111 215 -105 c 128,-1,55
 178 -99 178 -99 165 -99 c 128,-1,56
 152 -99 152 -99 147.5 -102.5 c 128,-1,57
 143 -106 143 -106 128 -106 c 0,58,59
 64 -106 64 -106 51 -94 c 0,60,61
 49 -92 49 -92 49 -79.5 c 128,-1,62
 49 -67 49 -67 56 -25.5 c 128,-1,63
 63 16 63 16 70.5 25.5 c 128,-1,64
 78 35 78 35 82.5 62.5 c 128,-1,65
 87 90 87 90 97 111 c 0,66,67
 108 132 108 132 120 182.5 c 128,-1,68
 132 233 132 233 136 238.5 c 128,-1,69
 140 244 140 244 152.5 293.5 c 128,-1,70
 165 343 165 343 175 351 c 128,-1,71
 185 359 185 359 185 384 c 128,-1,72
 185 409 185 409 201.5 452 c 128,-1,73
 218 495 218 495 222 526.5 c 128,-1,74
 226 558 226 558 235 579 c 128,-1,75
 244 600 244 600 251 611 c 128,-1,76
 258 622 258 622 258 630 c 0,0,1
EndSplineSet
Validated: 1
EndChar

StartChar: backslash
Encoding: 92 92 63
Width: 322
GlyphClass: 2
Flags: W
LayerCount: 2
Fore
SplineSet
146.5 345 m 128,-1,1
 129 381 129 381 129 391.5 c 128,-1,2
 129 402 129 402 120.5 411 c 128,-1,3
 112 420 112 420 112 434 c 128,-1,4
 112 448 112 448 101.5 481.5 c 128,-1,5
 91 515 91 515 82 533 c 128,-1,6
 73 551 73 551 64 590.5 c 128,-1,7
 55 630 55 630 55 649.5 c 128,-1,8
 55 669 55 669 66 669 c 0,9,10
 82 669 82 669 100.5 614.5 c 128,-1,11
 119 560 119 560 135 499 c 128,-1,12
 151 438 151 438 160.5 429 c 128,-1,13
 170 420 170 420 170 399 c 128,-1,14
 170 378 170 378 173.5 368.5 c 128,-1,15
 177 359 177 359 186 341.5 c 128,-1,16
 195 324 195 324 202.5 300 c 128,-1,17
 210 276 210 276 218.5 257 c 128,-1,18
 227 238 227 238 232 218 c 128,-1,19
 237 198 237 198 250.5 183 c 128,-1,20
 264 168 264 168 266 136 c 0,21,22
 266 131 266 131 266 117 c 128,-1,23
 266 103 266 103 258 96 c 0,24,25
 250 90 250 90 243 90 c 0,26,27
 239 90 239 90 236 92 c 1,28,29
 228 98 228 98 227.5 116 c 128,-1,30
 227 134 227 134 216 150 c 0,31,32
 180 207 180 207 172 258 c 128,-1,0
 164 309 164 309 146.5 345 c 128,-1,1
EndSplineSet
Validated: 1
EndChar

StartChar: bracketright
Encoding: 93 93 64
Width: 540
GlyphClass: 2
Flags: W
LayerCount: 2
Fore
SplineSet
361 211 m 1,0,-1
 363 172 l 2,1,2
 363 158 363 158 357 155 c 128,-1,3
 351 152 351 152 351 124.5 c 128,-1,4
 351 97 351 97 341.5 68.5 c 128,-1,5
 332 40 332 40 332 -20.5 c 128,-1,6
 332 -81 332 -81 324 -91 c 128,-1,7
 316 -101 316 -101 291.5 -101 c 128,-1,8
 267 -101 267 -101 243.5 -90.5 c 128,-1,9
 220 -80 220 -80 176 -80 c 0,10,11
 173 -80 173 -80 151.5 -80 c 128,-1,12
 130 -80 130 -80 116.5 -86 c 128,-1,13
 103 -92 103 -92 92 -92 c 2,14,-1
 76 -92 l 1,15,16
 58 -89 58 -89 50 -74 c 0,17,18
 49 -72 49 -72 49 -64 c 128,-1,19
 49 -56 49 -56 56.5 -43 c 128,-1,20
 64 -30 64 -30 83.5 -28 c 128,-1,21
 103 -26 103 -26 164 -25 c 2,22,-1
 259 -24 l 1,23,-1
 255 19 l 2,24,25
 254 31 254 31 254 48.5 c 128,-1,26
 254 66 254 66 263 76 c 128,-1,27
 272 86 272 86 284 134 c 128,-1,28
 296 182 296 182 297.5 210.5 c 128,-1,29
 299 239 299 239 314 274 c 128,-1,30
 329 309 329 309 340.5 344.5 c 128,-1,31
 352 380 352 380 353.5 395.5 c 128,-1,32
 355 411 355 411 355.5 424.5 c 128,-1,33
 356 438 356 438 354 440 c 128,-1,34
 352 442 352 442 359 451.5 c 128,-1,35
 366 461 366 461 373.5 494 c 128,-1,36
 381 527 381 527 381 535.5 c 128,-1,37
 381 544 381 544 378.5 549 c 128,-1,38
 376 554 376 554 325 554 c 1,39,-1
 258 552 l 1,40,41
 197 552 197 552 197 564 c 0,42,43
 197 572 197 572 220.5 593.5 c 128,-1,44
 244 615 244 615 256 615 c 0,45,46
 259 615 259 615 265 612.5 c 128,-1,47
 271 610 271 610 296 610 c 0,48,49
 412 610 412 610 423 624 c 1,50,51
 428 628 428 628 435 628 c 0,52,53
 459 628 459 628 475 614.5 c 128,-1,54
 491 601 491 601 491 566.5 c 128,-1,55
 491 532 491 532 468.5 499 c 128,-1,56
 446 466 446 466 434.5 428 c 128,-1,57
 423 390 423 390 422 365 c 0,58,59
 418 300 418 300 368 239 c 0,60,61
 361 230 361 230 361 211 c 1,0,-1
EndSplineSet
Validated: 1
EndChar

StartChar: asciicircum
Encoding: 94 94 65
Width: 350
GlyphClass: 2
Flags: W
LayerCount: 2
Fore
SplineSet
142 639.5 m 128,-1,1
 157 666 157 666 174 684 c 0,2,3
 189 700 189 700 199 700 c 0,4,5
 200 700 200 700 201 700 c 1,6,-1
 202 700 l 1,7,8
 212 698 212 698 220 678 c 0,9,10
 233 646 233 646 242 639.5 c 128,-1,11
 251 633 251 633 251 617 c 128,-1,12
 251 601 251 601 264 585.5 c 128,-1,13
 277 570 277 570 282 548 c 0,14,15
 288 524 288 524 288 515 c 128,-1,16
 288 506 288 506 282 500 c 128,-1,17
 276 494 276 494 272 494 c 0,18,19
 271 493 l 0,20,21
 270 493 l 0,22,23
 267 493 267 493 262 500 c 0,24,25
 256 508 256 508 228 562.5 c 128,-1,26
 200 617 200 617 187 618 c 0,27,28
 182 618 182 618 176 608.5 c 128,-1,29
 170 599 170 599 134 552 c 128,-1,30
 98 505 98 505 80.5 505 c 128,-1,31
 63 505 63 505 63 514 c 0,32,33
 63 519 63 519 95 566 c 128,-1,0
 127 613 127 613 142 639.5 c 128,-1,1
EndSplineSet
Validated: 1
EndChar

StartChar: a
Encoding: 97 97 66
Width: 457
GlyphClass: 2
Flags: W
LayerCount: 2
Fore
SplineSet
306 524 m 0,0,1
 341 524 341 524 363 508.5 c 128,-1,2
 385 493 385 493 385.5 484 c 128,-1,3
 386 475 386 475 372 468 c 0,4,5
 351 457 351 457 344 468 c 1,6,7
 340 472 340 472 334.5 478.5 c 128,-1,8
 329 485 329 485 316 485 c 0,9,10
 267 485 267 485 210 446.5 c 128,-1,11
 153 408 153 408 146 383 c 1,12,13
 142 365 142 365 132 348 c 0,14,15
 110 313 110 313 110 246.5 c 128,-1,16
 110 180 110 180 123 163.5 c 128,-1,17
 136 147 136 147 179.5 147 c 128,-1,18
 223 147 223 147 238 152 c 128,-1,19
 253 157 253 157 274 172.5 c 128,-1,20
 295 188 295 188 314.5 227 c 128,-1,21
 334 266 334 266 334 277 c 128,-1,22
 334 288 334 288 331.5 294.5 c 128,-1,23
 329 301 329 301 331 302 c 128,-1,24
 333 303 333 303 339 318.5 c 128,-1,25
 345 334 345 334 346.5 357.5 c 128,-1,26
 348 381 348 381 351 388 c 128,-1,27
 354 395 354 395 365 395 c 0,28,29
 390 395 390 395 390 350.5 c 128,-1,30
 390 306 390 306 379 230 c 128,-1,31
 368 154 368 154 363.5 149 c 128,-1,32
 359 144 359 144 349 144.5 c 128,-1,33
 339 145 339 145 326.5 145 c 128,-1,34
 314 145 314 145 289.5 132.5 c 128,-1,35
 265 120 265 120 229 108.5 c 128,-1,36
 193 97 193 97 171.5 97 c 128,-1,37
 150 97 150 97 111.5 126 c 128,-1,38
 73 155 73 155 67 175.5 c 128,-1,39
 61 196 61 196 61 216 c 2,40,-1
 61 242 l 1,41,42
 64 356 64 356 137 440 c 128,-1,43
 210 524 210 524 306 524 c 0,0,1
EndSplineSet
Validated: 1
EndChar

StartChar: b
Encoding: 98 98 67
Width: 460
GlyphClass: 2
Flags: W
LayerCount: 2
Fore
SplineSet
142.5 204 m 128,-1,1
 132 200 132 200 113 181.5 c 128,-1,2
 94 163 94 163 94 154 c 128,-1,3
 94 145 94 145 124 144 c 0,4,5
 128 144 l 0,6,7
 156 144 156 144 161 153 c 128,-1,8
 166 162 166 162 191.5 173 c 128,-1,9
 217 184 217 184 270 237.5 c 128,-1,10
 323 291 323 291 342 328 c 128,-1,11
 361 365 361 365 361 395.5 c 128,-1,12
 361 426 361 426 356 434 c 128,-1,13
 351 442 351 442 325 459.5 c 128,-1,14
 299 477 299 477 269 478 c 1,15,-1
 260 478 l 2,16,17
 238 478 238 478 231.5 473.5 c 128,-1,18
 225 469 225 469 213.5 443 c 128,-1,19
 202 417 202 417 192 370 c 0,20,21
 182 324 182 324 167 294 c 0,22,23
 153 266 153 266 153 256 c 0,24,25
 153 255 l 1,26,27
 153 243 153 243 174 243 c 128,-1,28
 195 243 195 243 207.5 227.5 c 128,-1,29
 220 212 220 212 198 206 c 0,30,31
 186 202 186 202 169.5 205 c 128,-1,0
 153 208 153 208 142.5 204 c 128,-1,1
57 141 m 0,32,33
 57 144 57 144 57 147 c 0,34,35
 57 166 57 166 73.5 181 c 128,-1,36
 90 196 90 196 90 207.5 c 128,-1,37
 90 219 90 219 106.5 243 c 128,-1,38
 123 267 123 267 123 281 c 128,-1,39
 123 295 123 295 135 320.5 c 128,-1,40
 147 346 147 346 151.5 373 c 128,-1,41
 156 400 156 400 169.5 424 c 128,-1,42
 183 448 183 448 189.5 506 c 128,-1,43
 196 564 196 564 207 594 c 128,-1,44
 218 624 218 624 236 645 c 0,45,46
 257 670 257 670 276 670 c 128,-1,47
 295 670 295 670 300 660 c 0,48,49
 301 659 301 659 301 658 c 0,50,51
 301 650 301 650 277.5 626.5 c 128,-1,52
 254 603 254 603 254 595 c 128,-1,53
 254 587 254 587 248 576 c 0,54,55
 231 546 231 546 231 537 c 0,56,57
 231 521 231 521 277 521 c 2,58,-1
 282 521 l 2,59,60
 313 521 313 521 324 516 c 128,-1,61
 335 511 335 511 363 479 c 0,62,63
 398 439 398 439 398 413.5 c 128,-1,64
 398 388 398 388 388 348 c 128,-1,65
 378 308 378 308 367.5 291 c 128,-1,66
 357 274 357 274 297 215 c 128,-1,67
 237 156 237 156 203 143 c 0,68,69
 189 137 189 137 189 129 c 128,-1,70
 189 121 189 121 164.5 108 c 128,-1,71
 140 95 140 95 124.5 95 c 128,-1,72
 109 95 109 95 84 108 c 1,73,74
 60 119 60 119 57 141 c 0,32,33
EndSplineSet
Validated: 1
EndChar

StartChar: c
Encoding: 99 99 68
Width: 507
GlyphClass: 2
Flags: W
LayerCount: 2
Fore
SplineSet
241 126 m 1,0,-1
 264 128 l 1,1,2
 281 128 281 128 291.5 116 c 128,-1,3
 302 104 302 104 302.5 100 c 128,-1,4
 303 96 303 96 288.5 88.5 c 128,-1,5
 274 81 274 81 246 81 c 2,6,-1
 215 81 l 1,7,8
 157 82 157 82 141 90 c 128,-1,9
 125 98 125 98 114.5 112.5 c 128,-1,10
 104 127 104 127 98 137 c 128,-1,11
 92 147 92 147 87 147 c 0,12,13
 79 147 79 147 69.5 169.5 c 128,-1,14
 60 192 60 192 60 216.5 c 128,-1,15
 60 241 60 241 63 264 c 0,16,17
 70 326 70 326 87 350 c 128,-1,18
 104 374 104 374 104 391.5 c 128,-1,19
 104 409 104 409 121 429 c 128,-1,20
 138 449 138 449 138 455.5 c 128,-1,21
 138 462 138 462 146 468 c 128,-1,22
 154 474 154 474 169 481 c 128,-1,23
 184 488 184 488 192.5 494 c 128,-1,24
 201 500 201 500 235 515 c 128,-1,25
 269 530 269 530 288 530 c 0,26,27
 344 530 344 530 390 494 c 128,-1,28
 436 458 436 458 444 434 c 0,29,30
 446 426 446 426 446 413 c 128,-1,31
 446 400 446 400 431 370 c 128,-1,32
 416 340 416 340 415.5 328.5 c 128,-1,33
 415 317 415 317 385 290.5 c 128,-1,34
 355 264 355 264 347 261.5 c 128,-1,35
 339 259 339 259 329 259 c 0,36,37
 273 259 273 259 232 284 c 0,38,39
 215 294 215 294 210 302.5 c 128,-1,40
 205 311 205 311 205 336.5 c 128,-1,41
 205 362 205 362 218 386 c 1,42,43
 229 410 229 410 233.5 433 c 128,-1,44
 238 456 238 456 226 456 c 0,45,46
 197 456 197 456 139 341 c 0,47,48
 103 269 103 269 103 230.5 c 128,-1,49
 103 192 103 192 121.5 172 c 128,-1,50
 140 152 140 152 180 139 c 128,-1,51
 220 126 220 126 241 126 c 1,0,-1
403 413 m 128,-1,53
 403 421 403 421 383 449 c 128,-1,54
 363 477 363 477 332 477 c 0,55,56
 315 477 315 477 309.5 461.5 c 128,-1,57
 304 446 304 446 288.5 408 c 128,-1,58
 273 370 273 370 273 357 c 128,-1,59
 273 344 273 344 275.5 337 c 128,-1,60
 278 330 278 330 288.5 324.5 c 128,-1,61
 299 319 299 319 312.5 319 c 128,-1,62
 326 319 326 319 351 334 c 128,-1,63
 376 349 376 349 389.5 377 c 128,-1,52
 403 405 403 405 403 413 c 128,-1,53
EndSplineSet
Validated: 1
EndChar

StartChar: d
Encoding: 100 100 69
Width: 742
GlyphClass: 2
Flags: W
LayerCount: 2
Fore
SplineSet
357 43 m 1,0,-1
 367 108 l 1,1,2
 367 122 367 122 361.5 126.5 c 128,-1,3
 356 131 356 131 348 122.5 c 128,-1,4
 340 114 340 114 326 114 c 0,5,6
 302 114 302 114 297.5 106.5 c 128,-1,7
 293 99 293 99 234 89 c 2,8,-1
 175 79 l 1,9,-1
 133 105 l 1,10,11
 91 133 91 133 74.5 155 c 128,-1,12
 58 177 58 177 58 206 c 128,-1,13
 58 235 58 235 77 257 c 1,14,-1
 110 298 l 2,15,16
 120 312 120 312 164.5 330.5 c 128,-1,17
 209 349 209 349 233 349 c 128,-1,18
 257 349 257 349 279.5 335.5 c 128,-1,19
 302 322 302 322 293.5 313 c 128,-1,20
 285 304 285 304 268.5 313.5 c 128,-1,21
 252 323 252 323 240.5 323 c 128,-1,22
 229 323 229 323 222 320 c 0,23,24
 200 312 200 312 159 272.5 c 128,-1,25
 118 233 118 233 110 211 c 1,26,27
 109 205 109 205 109 193.5 c 128,-1,28
 109 182 109 182 122.5 165.5 c 128,-1,29
 136 149 136 149 170 142 c 128,-1,30
 204 135 204 135 218 135 c 128,-1,31
 232 135 232 135 246.5 135.5 c 128,-1,32
 261 136 261 136 266.5 139.5 c 128,-1,33
 272 143 272 143 322 152 c 2,34,-1
 372 161 l 1,35,-1
 398 236 l 2,36,37
 408 265 408 265 421 298.5 c 128,-1,38
 434 332 434 332 446 367.5 c 128,-1,39
 458 403 458 403 478.5 482.5 c 128,-1,40
 499 562 499 562 516.5 598.5 c 128,-1,41
 534 635 534 635 558.5 664.5 c 128,-1,42
 583 694 583 694 595 702 c 128,-1,43
 607 710 607 710 629 710 c 128,-1,44
 651 710 651 710 666 699 c 128,-1,45
 681 688 681 688 683.5 680 c 128,-1,46
 686 672 686 672 686 662 c 2,47,-1
 686 644 l 1,48,49
 684 620 684 620 677.5 609 c 128,-1,50
 671 598 671 598 664 606 c 128,-1,51
 657 614 657 614 652.5 644.5 c 128,-1,52
 648 675 648 675 629 676 c 0,53,54
 620 676 620 676 608 663 c 0,55,56
 553 600 553 600 553 573 c 0,57,58
 553 557 553 557 532 507.5 c 128,-1,59
 511 458 511 458 511 443 c 128,-1,60
 511 428 511 428 504 420 c 128,-1,61
 497 412 497 412 487.5 376.5 c 128,-1,62
 478 341 478 341 478 325.5 c 128,-1,63
 478 310 478 310 469 293 c 128,-1,64
 460 276 460 276 458.5 234.5 c 128,-1,65
 457 193 457 193 441 160 c 128,-1,66
 425 127 425 127 415.5 79.5 c 128,-1,67
 406 32 406 32 400 18.5 c 128,-1,68
 394 5 394 5 380 5 c 128,-1,69
 366 5 366 5 360 24 c 0,70,71
 357 32 357 32 357 43 c 1,0,-1
EndSplineSet
Validated: 1
EndChar

StartChar: e
Encoding: 101 101 70
Width: 550
GlyphClass: 2
Flags: W
LayerCount: 2
Fore
SplineSet
150 418 m 128,-1,1
 160 428 160 428 186 441.5 c 128,-1,2
 212 455 212 455 237 475 c 128,-1,3
 262 495 262 495 279 501.5 c 128,-1,4
 296 508 296 508 318 508 c 2,5,-1
 345 508 l 2,6,7
 377 508 377 508 389.5 504 c 128,-1,8
 402 500 402 500 431 476 c 0,9,10
 489 427 489 427 489 391 c 0,11,12
 489 370 489 370 435 327 c 128,-1,13
 381 284 381 284 352 275 c 128,-1,14
 323 266 323 266 310 266 c 128,-1,15
 297 266 297 266 283.5 269 c 128,-1,16
 270 272 270 272 238 299 c 128,-1,17
 206 326 206 326 191 333.5 c 128,-1,18
 176 341 176 341 161 339.5 c 128,-1,19
 146 338 146 338 139 330 c 128,-1,20
 132 322 132 322 121.5 289 c 128,-1,21
 111 256 111 256 111 247 c 128,-1,22
 111 238 111 238 121 215 c 128,-1,23
 131 192 131 192 138.5 182.5 c 128,-1,24
 146 173 146 173 151 170 c 128,-1,25
 156 167 156 167 168.5 162.5 c 128,-1,26
 181 158 181 158 190.5 153.5 c 128,-1,27
 200 149 200 149 214 148.5 c 128,-1,28
 228 148 228 148 245 143 c 1,29,30
 267 140 267 140 271 141.5 c 128,-1,31
 275 143 275 143 298 152 c 128,-1,32
 321 161 321 161 344.5 161 c 128,-1,33
 368 161 368 161 374.5 153.5 c 128,-1,34
 381 146 381 146 381 141 c 0,35,36
 381 129 381 129 357 122 c 0,37,38
 303 105 303 105 281 104 c 128,-1,39
 259 103 259 103 221.5 103 c 128,-1,40
 184 103 184 103 158.5 113 c 128,-1,41
 133 123 133 123 96 161 c 128,-1,42
 59 199 59 199 59 243 c 0,43,44
 59 267 59 267 70 303 c 128,-1,45
 81 339 81 339 99.5 357.5 c 128,-1,46
 118 376 118 376 129 392 c 128,-1,0
 140 408 140 408 150 418 c 128,-1,1
420 422 m 0,47,48
 402 445 402 445 327 446 c 0,49,50
 326 446 326 446 325 446 c 0,51,52
 268 446 268 446 242 425 c 0,53,54
 233 418 233 418 221 409 c 128,-1,55
 209 400 209 400 209 394 c 0,56,57
 209 366 209 366 233 354 c 2,58,-1
 282 329 l 2,59,60
 299 321 299 321 307.5 321 c 128,-1,61
 316 321 316 321 326 323 c 128,-1,62
 336 325 336 325 401 356 c 0,63,64
 433 372 433 372 433 393 c 0,65,66
 433 406 433 406 420 422 c 0,47,48
EndSplineSet
Validated: 1
EndChar

StartChar: f
Encoding: 102 102 71
Width: 466
GlyphClass: 2
Flags: W
LayerCount: 2
Fore
SplineSet
56 464 m 0,0,1
 56 473 56 473 78 473 c 0,2,3
 85 473 85 473 102 460 c 0,4,5
 120 444 120 444 142 434 c 0,6,7
 171 421 171 421 176 421 c 0,8,9
 177 420 177 420 178 421 c 1,10,11
 182 430 182 430 182 448 c 2,12,-1
 180 504 l 1,13,-1
 180 542 l 1,14,15
 182 591 182 591 194 618.5 c 128,-1,16
 206 646 206 646 206 656 c 0,17,18
 206 675 206 675 241 702 c 1,19,20
 277 728 277 728 305 728 c 2,21,-1
 308 728 l 1,22,23
 336 726 336 726 368 694 c 0,24,25
 408 654 408 654 408 618 c 0,26,27
 408 611 408 611 401 610 c 0,28,29
 400 610 400 610 398 611 c 0,30,31
 387 615 387 615 384 632 c 128,-1,32
 381 649 381 649 350 675 c 128,-1,33
 319 701 319 701 301.5 701 c 128,-1,34
 284 701 284 701 252 675 c 1,35,36
 233 658 233 658 225 644 c 0,37,38
 209 612 209 612 209 523.5 c 128,-1,39
 209 435 209 435 219 426 c 0,40,41
 225 420 225 420 238 420 c 128,-1,42
 251 420 251 420 282 428.5 c 128,-1,43
 313 437 313 437 337 460 c 1,44,45
 350 471 350 471 358 471 c 0,46,47
 373 471 373 471 373 437 c 2,48,-1
 373 426 l 1,49,50
 372 416 372 416 372 400.5 c 128,-1,51
 372 385 372 385 376.5 364 c 128,-1,52
 381 343 381 343 387 335.5 c 128,-1,53
 393 328 393 328 396 318.5 c 128,-1,54
 399 309 399 309 392 306 c 1,55,56
 387 300 387 300 377 309.5 c 128,-1,57
 367 319 367 319 357 338 c 128,-1,58
 347 357 347 357 342.5 382.5 c 128,-1,59
 338 408 338 408 334.5 410 c 128,-1,60
 331 412 331 412 321 412 c 128,-1,61
 311 412 311 412 273 405 c 128,-1,62
 235 398 235 398 228 391 c 128,-1,63
 221 384 221 384 232 365 c 128,-1,64
 243 346 243 346 268 268 c 128,-1,65
 293 190 293 190 298 179.5 c 128,-1,66
 303 169 303 169 307 122.5 c 128,-1,67
 311 76 311 76 311 62 c 128,-1,68
 311 48 311 48 309.5 36 c 128,-1,69
 308 24 308 24 287 -21 c 128,-1,70
 266 -66 266 -66 243.5 -85.5 c 128,-1,71
 221 -105 221 -105 212 -108 c 128,-1,72
 203 -111 203 -111 194 -111 c 0,73,74
 145 -111 145 -111 108.5 -69.5 c 128,-1,75
 72 -28 72 -28 72 35 c 0,76,77
 72 63 72 63 78.5 113.5 c 128,-1,78
 85 164 85 164 97 178.5 c 128,-1,79
 109 193 109 193 117 180 c 1,80,81
 121 171 121 171 113 156 c 128,-1,82
 105 141 105 141 105 70 c 128,-1,83
 105 -1 105 -1 108.5 -18 c 128,-1,84
 112 -35 112 -35 126 -52 c 0,85,86
 153 -84 153 -84 184 -84 c 128,-1,87
 215 -84 215 -84 256 -27 c 0,88,89
 273 -3 273 -3 277 14 c 128,-1,90
 281 31 281 31 281 86.5 c 128,-1,91
 281 142 281 142 274 168 c 128,-1,92
 267 194 267 194 225 295 c 1,93,94
 214 326 214 326 210 347.5 c 128,-1,95
 206 369 206 369 200 378.5 c 128,-1,96
 194 388 194 388 180 394.5 c 128,-1,97
 166 401 166 401 132.5 412.5 c 128,-1,98
 99 424 99 424 77.5 441.5 c 128,-1,99
 56 459 56 459 56 464 c 0,0,1
EndSplineSet
Validated: 1
EndChar

StartChar: g
Encoding: 103 103 72
Width: 434
GlyphClass: 2
Flags: W
LayerCount: 2
Fore
SplineSet
151 291 m 8,0,1
 117 298 117 298 94 319 c 1,2,3
 78 332 78 332 75 358 c 1,4,-1
 75 376 l 2,5,6
 75 389 75 389 85 408.5 c 128,-1,7
 95 428 95 428 139.5 469.5 c 128,-1,8
 184 511 184 511 212 526 c 128,-1,9
 240 541 240 541 269.5 541 c 128,-1,10
 299 541 299 541 313 531 c 128,-1,11
 327 521 327 521 336 521 c 128,-1,12
 345 521 345 521 349 522 c 0,13,14
 369 526 369 526 372 514 c 0,15,16
 373 510 373 510 373 500 c 0,17,18
 373 486 373 486 369 467 c 2,19,-1
 345 353 l 2,20,21
 334 301 334 301 321 262 c 0,22,23
 311 233 311 233 302 178 c 0,24,25
 293 124 293 124 286 104 c 0,26,27
 278 82 278 82 246 36 c 0,28,29
 215 -10 215 -10 203.5 -14.5 c 128,-1,30
 192 -19 192 -19 192 -30.5 c 128,-1,31
 192 -42 192 -42 135.5 -84 c 128,-1,32
 79 -126 79 -126 68 -126 c 0,33,34
 67 -126 67 -126 62 -123 c 128,-1,35
 57 -120 57 -120 57 -113 c 0,36,37
 57 -87 57 -87 89 -72 c 1,38,39
 126 -51 126 -51 169.5 0 c 128,-1,40
 213 51 213 51 246 120 c 0,41,42
 274 175 274 175 287 269 c 0,43,44
 288 278 288 278 288 282 c 0,45,46
 286 300 286 300 278 308 c 0,47,48
 272 314 272 314 250 302 c 0,49,50
 225 288 225 288 188 288 c 0,51,52
 186 288 186 288 183 288 c 0,53,54
 159 288 159 288 151 291 c 8,0,1
324 464 m 128,-1,56
 324 473 324 473 307.5 490.5 c 128,-1,57
 291 508 291 508 272 508 c 128,-1,58
 253 508 253 508 204.5 472 c 128,-1,59
 156 436 156 436 137.5 414 c 128,-1,60
 119 392 119 392 119 368.5 c 128,-1,61
 119 345 119 345 134.5 330 c 128,-1,62
 150 315 150 315 175 315 c 0,63,64
 212 315 212 315 221 324 c 128,-1,65
 230 333 230 333 254 343.5 c 128,-1,66
 278 354 278 354 288.5 369 c 128,-1,67
 299 384 299 384 311.5 419.5 c 128,-1,55
 324 455 324 455 324 464 c 128,-1,56
EndSplineSet
Validated: 1
EndChar

StartChar: h
Encoding: 104 104 73
Width: 386
GlyphClass: 2
Flags: W
LayerCount: 2
Fore
SplineSet
232.5 518 m 128,-1,1
 239 529 239 529 239 554 c 128,-1,2
 239 579 239 579 247.5 588.5 c 128,-1,3
 256 598 256 598 256 609 c 128,-1,4
 256 620 256 620 270 660 c 128,-1,5
 284 700 284 700 293 712 c 1,6,7
 298 727 298 727 312.5 727 c 128,-1,8
 327 727 327 727 327 714 c 0,9,10
 327 705 327 705 316.5 681 c 128,-1,11
 306 657 306 657 306 645 c 128,-1,12
 306 633 306 633 289 595 c 128,-1,13
 272 557 272 557 272 549.5 c 128,-1,14
 272 542 272 542 259.5 519.5 c 128,-1,15
 247 497 247 497 243 475.5 c 128,-1,16
 239 454 239 454 235 444 c 128,-1,17
 231 434 231 434 221 420.5 c 128,-1,18
 211 407 211 407 198 371 c 128,-1,19
 185 335 185 335 178 319 c 128,-1,20
 171 303 171 303 165 293 c 0,21,22
 156 277 156 277 154 274 c 0,23,24
 142 249 142 249 142 243 c 0,25,26
 142 241 142 241 143 241 c 0,27,28
 146 238 146 238 148 238 c 0,29,30
 159 238 159 238 194.5 268.5 c 128,-1,31
 230 299 230 299 230 313 c 0,32,33
 230 320 230 320 251 337 c 128,-1,34
 272 354 272 354 272 371 c 128,-1,35
 272 388 272 388 289 404 c 128,-1,36
 306 420 306 420 316 410 c 0,37,38
 318 408 318 408 318 397.5 c 128,-1,39
 318 387 318 387 300 349.5 c 128,-1,40
 282 312 282 312 277 291 c 128,-1,41
 272 270 272 270 272 220.5 c 128,-1,42
 272 171 272 171 275 158 c 128,-1,43
 278 145 278 145 294 136 c 1,44,45
 311 125 311 125 313.5 111.5 c 128,-1,46
 316 98 316 98 302 92 c 0,47,48
 299 91 299 91 292 91 c 128,-1,49
 285 91 285 91 270.5 104.5 c 128,-1,50
 256 118 256 118 256 132 c 128,-1,51
 256 146 256 146 247.5 161 c 128,-1,52
 239 176 239 176 236.5 212.5 c 128,-1,53
 234 249 234 249 224 249 c 0,54,55
 223 249 223 249 222 249 c 0,56,57
 216 248 216 248 208 234 c 128,-1,58
 200 220 200 220 149 168 c 128,-1,59
 98 116 98 116 83.5 105 c 128,-1,60
 69 94 69 94 63 100.5 c 128,-1,61
 57 107 57 107 57 121 c 128,-1,62
 57 135 57 135 81 161 c 0,63,64
 92 173 92 173 101.5 219 c 128,-1,65
 111 265 111 265 121 276.5 c 128,-1,66
 131 288 131 288 142 312 c 128,-1,67
 153 336 153 336 168 372.5 c 128,-1,68
 183 409 183 409 198 440.5 c 128,-1,69
 213 472 213 472 213.5 483 c 128,-1,70
 214 494 214 494 220 500.5 c 128,-1,0
 226 507 226 507 232.5 518 c 128,-1,1
EndSplineSet
Validated: 1
EndChar

StartChar: i
Encoding: 105 105 74
Width: 197
GlyphClass: 2
Flags: W
LayerCount: 2
Fore
SplineSet
83 107 m 0,0,1
 65 107 65 107 65 197 c 2,2,-1
 65 254 l 1,3,4
 68 371 68 371 70.5 398.5 c 128,-1,5
 73 426 73 426 89 482 c 0,6,7
 92 493 92 493 101.5 489.5 c 128,-1,8
 111 486 111 486 111 463 c 128,-1,9
 111 440 111 440 106 408 c 128,-1,10
 101 376 101 376 101 303.5 c 128,-1,11
 101 231 101 231 99.5 172.5 c 128,-1,12
 98 114 98 114 92 110.5 c 128,-1,13
 86 107 86 107 83 107 c 0,0,1
138 601 m 0,14,15
 138 589 138 589 124 589 c 0,16,17
 119 589 119 589 110.5 593 c 128,-1,18
 102 597 102 597 102 607 c 128,-1,19
 102 617 102 617 113.5 617 c 128,-1,20
 125 617 125 617 131.5 611.5 c 128,-1,21
 138 606 138 606 138 601 c 0,14,15
EndSplineSet
Validated: 1
EndChar

StartChar: j
Encoding: 106 106 75
Width: 383
GlyphClass: 2
Flags: W
LayerCount: 2
Fore
SplineSet
252 337 m 1,0,1
 255 463 255 463 263.5 473 c 128,-1,2
 272 483 272 483 283.5 482.5 c 128,-1,3
 295 482 295 482 303 472.5 c 128,-1,4
 311 463 311 463 311 422.5 c 128,-1,5
 311 382 311 382 309 341 c 0,6,7
 303 224 303 224 290.5 214.5 c 128,-1,8
 278 205 278 205 278 176.5 c 128,-1,9
 278 148 278 148 270.5 135 c 128,-1,10
 263 122 263 122 257 60 c 0,11,12
 246 -59 246 -59 209 -92 c 1,13,14
 184 -112 184 -112 168 -112 c 128,-1,15
 152 -112 152 -112 125.5 -90.5 c 128,-1,16
 99 -69 99 -69 79 -43 c 128,-1,17
 59 -17 59 -17 57 -8.5 c 128,-1,18
 55 0 55 0 55 10 c 0,19,20
 55 68 55 68 78 90 c 1,21,22
 87 97 87 97 97 97 c 128,-1,23
 107 97 107 97 118 90 c 0,24,25
 125 85 125 85 124.5 79 c 128,-1,26
 124 73 124 73 108.5 52 c 128,-1,27
 93 31 93 31 93 16 c 128,-1,28
 93 1 93 1 95 -6 c 0,29,30
 103 -34 103 -34 140 -45 c 0,31,32
 158 -51 158 -51 169.5 -51 c 128,-1,33
 181 -51 181 -51 189 -45.5 c 128,-1,34
 197 -40 197 -40 205.5 -13 c 128,-1,35
 214 14 214 14 219.5 81 c 128,-1,36
 225 148 225 148 236 188.5 c 128,-1,37
 247 229 247 229 252 337 c 1,0,1
280 616 m 0,38,39
 280 634 280 634 299.5 634 c 128,-1,40
 319 634 319 634 319 612 c 0,41,42
 319 605 319 605 312 596.5 c 128,-1,43
 305 588 305 588 301 588 c 128,-1,44
 297 588 297 588 288 596 c 0,45,46
 280 604 280 604 280 616 c 0,38,39
EndSplineSet
Validated: 1
EndChar

StartChar: k
Encoding: 107 107 76
Width: 552
GlyphClass: 2
Flags: W
LayerCount: 2
Fore
SplineSet
211.5 557.5 m 128,-1,1
 219 584 219 584 220.5 638 c 128,-1,2
 222 692 222 692 226 698.5 c 128,-1,3
 230 705 230 705 235 705 c 128,-1,4
 240 705 240 705 253 693.5 c 128,-1,5
 266 682 266 682 266 632 c 128,-1,6
 266 582 266 582 249.5 545 c 128,-1,7
 233 508 233 508 233 495 c 128,-1,8
 233 482 233 482 254 466.5 c 128,-1,9
 275 451 275 451 299 451 c 0,10,11
 382 451 382 451 435 510 c 0,12,13
 461 538 461 538 476 538 c 128,-1,14
 491 538 491 538 491 516 c 0,15,16
 491 472 491 472 389 426 c 1,17,-1
 348 408 l 1,18,-1
 376 373 l 2,19,20
 389 358 389 358 404 342 c 0,21,22
 437 303 437 303 458 263 c 1,23,24
 473 230 473 230 473 214 c 128,-1,25
 473 198 473 198 466 162 c 0,26,27
 448 56 448 56 420 55 c 0,28,29
 407 55 407 55 403.5 67.5 c 128,-1,30
 400 80 400 80 404.5 98 c 128,-1,31
 409 116 409 116 414.5 136.5 c 128,-1,32
 420 157 420 157 424.5 172.5 c 128,-1,33
 429 188 429 188 423.5 199.5 c 128,-1,34
 418 211 418 211 413 233.5 c 128,-1,35
 408 256 408 256 368.5 306 c 128,-1,36
 329 356 329 356 301 371 c 128,-1,37
 273 386 273 386 234 386 c 2,38,-1
 195 387 l 1,39,-1
 190 349 l 1,40,41
 181 299 181 299 138 219 c 1,42,43
 116 174 116 174 95 142 c 128,-1,44
 74 110 74 110 67 110 c 0,45,46
 66 110 66 110 61.5 113 c 128,-1,47
 57 116 57 116 57 125 c 128,-1,48
 57 134 57 134 60.5 146 c 128,-1,49
 64 158 64 158 72 173 c 0,50,51
 132 293 132 293 147 354.5 c 128,-1,52
 162 416 162 416 176 442 c 128,-1,53
 190 468 190 468 190 485.5 c 128,-1,54
 190 503 190 503 197 517 c 128,-1,0
 204 531 204 531 211.5 557.5 c 128,-1,1
EndSplineSet
Validated: 1
EndChar

StartChar: l
Encoding: 108 108 77
Width: 236
GlyphClass: 2
Flags: W
LayerCount: 2
Fore
SplineSet
144 685 m 0,0,1
 175 685 175 685 175 604 c 0,2,3
 175 586 175 586 169.5 493 c 128,-1,4
 164 400 164 400 153 389 c 1,5,6
 148 382 148 382 138.5 333.5 c 128,-1,7
 129 285 129 285 120.5 253 c 128,-1,8
 112 221 112 221 107.5 192.5 c 128,-1,9
 103 164 103 164 102 150.5 c 128,-1,10
 101 137 101 137 98.5 126.5 c 128,-1,11
 96 116 96 116 91.5 113 c 128,-1,12
 87 110 87 110 74 110 c 128,-1,13
 61 110 61 110 59 118 c 1,14,-1
 59 125 l 2,15,16
 59 144 59 144 63.5 193 c 128,-1,17
 68 242 68 242 77.5 262.5 c 128,-1,18
 87 283 87 283 94 328 c 0,19,20
 106 402 106 402 121 486 c 128,-1,21
 136 570 136 570 136 588.5 c 128,-1,22
 136 607 136 607 134 619 c 128,-1,23
 132 631 132 631 123.5 644 c 128,-1,24
 115 657 115 657 121 671 c 128,-1,25
 127 685 127 685 144 685 c 0,0,1
EndSplineSet
Validated: 1
EndChar

StartChar: m
Encoding: 109 109 78
Width: 764
GlyphClass: 2
Flags: W
LayerCount: 2
Fore
SplineSet
128 422 m 1,0,-1
 125 357 l 1,1,2
 125 325 125 325 128 257 c 128,-1,3
 131 189 131 189 137 189 c 0,4,5
 149 189 149 189 186 231 c 128,-1,6
 223 273 223 273 226.5 292 c 128,-1,7
 230 311 230 311 238 320 c 128,-1,8
 246 329 246 329 246 340 c 128,-1,9
 246 351 246 351 267 394.5 c 128,-1,10
 288 438 288 438 288 451 c 128,-1,11
 288 464 288 464 303 478 c 0,12,13
 314 487 314 487 319.5 486.5 c 128,-1,14
 325 486 325 486 336.5 473.5 c 128,-1,15
 348 461 348 461 351 438.5 c 128,-1,16
 354 416 354 416 356 339.5 c 128,-1,17
 358 263 358 263 362 236.5 c 128,-1,18
 366 210 366 210 376 196 c 1,19,20
 390 173 390 173 400.5 173 c 128,-1,21
 411 173 411 173 417 178 c 0,22,23
 464 214 464 214 497 229 c 0,24,25
 560 258 560 258 572 339 c 0,26,27
 579 384 579 384 588.5 404.5 c 128,-1,28
 598 425 598 425 603 441 c 0,29,30
 611 471 611 471 629 474 c 0,31,32
 631 475 631 475 633 475 c 0,33,34
 649 475 649 475 659 456.5 c 128,-1,35
 669 438 669 438 669 429.5 c 128,-1,36
 669 421 669 421 666 417 c 0,37,38
 644 373 644 373 641 318 c 0,39,40
 641 311 641 311 641 304 c 0,41,42
 641 259 641 259 657 237.5 c 128,-1,43
 673 216 673 216 673.5 192 c 128,-1,44
 674 168 674 168 686.5 152 c 128,-1,45
 699 136 699 136 699 126.5 c 128,-1,46
 699 117 699 117 680.5 117 c 128,-1,47
 662 117 662 117 643 134 c 128,-1,48
 624 151 624 151 624 163.5 c 128,-1,49
 624 176 624 176 615.5 185.5 c 128,-1,50
 607 195 607 195 607 216.5 c 128,-1,51
 607 238 607 238 592 238 c 0,52,53
 574 238 574 238 546 210 c 0,54,55
 455 123 455 123 387 123 c 0,56,57
 386 123 386 123 385 123 c 0,58,59
 336 123 336 123 319 182 c 0,60,61
 311 208 311 208 307 257 c 128,-1,62
 303 306 303 306 294 308 c 0,63,64
 288 309 288 309 288 291 c 128,-1,65
 288 273 288 273 272.5 252 c 128,-1,66
 257 231 257 231 217 193 c 1,67,-1
 147 122 l 1,68,-1
 66 127 l 1,69,-1
 68 181 l 2,70,71
 69 212 69 212 69.5 345 c 128,-1,72
 70 478 70 478 80 489 c 0,73,74
 86 497 86 497 94 497 c 128,-1,75
 102 497 102 497 115 475.5 c 128,-1,76
 128 454 128 454 128 422 c 1,0,-1
EndSplineSet
Validated: 1
EndChar

StartChar: n
Encoding: 110 110 79
Width: 491
GlyphClass: 2
Flags: W
LayerCount: 2
Fore
SplineSet
119 447 m 0,0,1
 140 447 140 447 140 402.5 c 128,-1,2
 140 358 140 358 133 346 c 0,3,4
 117 319 117 319 112 218 c 0,5,6
 111 198 111 198 115 194 c 0,7,8
 122 186 122 186 136 186 c 0,9,10
 140 186 140 186 143 186 c 0,11,12
 157 186 157 186 170 194 c 0,13,14
 186 205 186 205 187 209 c 1,15,-1
 228 265 l 1,16,17
 255 291 255 291 282.5 316.5 c 128,-1,18
 310 342 310 342 310 356 c 128,-1,19
 310 370 310 370 335 405.5 c 128,-1,20
 360 441 360 441 374 441 c 128,-1,21
 388 441 388 441 400 422 c 128,-1,22
 412 403 412 403 412 373.5 c 128,-1,23
 412 344 412 344 418 340 c 0,24,25
 420 338 420 338 420 310.5 c 128,-1,26
 420 283 420 283 416 215 c 1,27,-1
 406 93 l 1,28,29
 392 93 392 93 377.5 93 c 128,-1,30
 363 93 363 93 358.5 99.5 c 128,-1,31
 354 106 354 106 354 141.5 c 128,-1,32
 354 177 354 177 362 185.5 c 128,-1,33
 370 194 370 194 370 246.5 c 128,-1,34
 370 299 370 299 359 299 c 128,-1,35
 348 299 348 299 310 258.5 c 128,-1,36
 272 218 272 218 259 208 c 0,37,38
 188 153 188 153 162 141 c 1,39,40
 141 133 141 133 128 126 c 128,-1,41
 115 119 115 119 100 119 c 128,-1,42
 85 119 85 119 71 141 c 1,43,44
 63 156 63 156 63 184 c 1,45,46
 62 187 62 187 62 201 c 128,-1,47
 62 215 62 215 66 242 c 128,-1,48
 70 269 70 269 75 313 c 128,-1,49
 80 357 80 357 81 392 c 128,-1,50
 82 427 82 427 96.5 437 c 128,-1,51
 111 447 111 447 119 447 c 0,0,1
EndSplineSet
Validated: 1
EndChar

StartChar: o
Encoding: 111 111 80
Width: 433
GlyphClass: 2
Flags: W
LayerCount: 2
Fore
SplineSet
267 497 m 1,0,1
 284 506 284 506 289 506 c 2,2,-1
 296 506 l 2,3,4
 305 506 305 506 322.5 494 c 128,-1,5
 340 482 340 482 343.5 475 c 128,-1,6
 347 468 347 468 340.5 455.5 c 128,-1,7
 334 443 334 443 341 434 c 0,8,9
 356 417 356 417 361.5 360.5 c 128,-1,10
 367 304 367 304 367 277 c 128,-1,11
 367 250 367 250 359 245 c 128,-1,12
 351 240 351 240 350.5 215.5 c 128,-1,13
 350 191 350 191 343.5 178 c 128,-1,14
 337 165 337 165 312.5 139 c 128,-1,15
 288 113 288 113 280.5 113 c 128,-1,16
 273 113 273 113 251.5 97.5 c 128,-1,17
 230 82 230 82 219 81 c 1,18,-1
 218 81 l 2,19,20
 207 81 207 81 165 92 c 128,-1,21
 123 103 123 103 106.5 113 c 128,-1,22
 90 123 90 123 90 137 c 128,-1,23
 90 151 90 151 74 167.5 c 128,-1,24
 58 184 58 184 58 196 c 0,25,26
 58 224 58 224 76 274 c 256,27,28
 81 288 81 288 85 292 c 128,-1,29
 89 296 89 296 89.5 330 c 128,-1,30
 90 364 90 364 129 411.5 c 128,-1,31
 168 459 168 459 202 459 c 0,32,33
 217 459 217 459 237 474.5 c 128,-1,34
 257 490 257 490 267 497 c 1,0,1
297 434 m 1,35,36
 292 448 292 448 272 448 c 0,37,38
 262 448 262 448 248 444 c 0,39,40
 236 441 236 441 217 430 c 0,41,42
 177 408 177 408 161 377 c 1,43,-1
 147 356 l 1,44,45
 131 334 131 334 126.5 297.5 c 128,-1,46
 122 261 122 261 110.5 243.5 c 128,-1,47
 99 226 99 226 99 204 c 128,-1,48
 99 182 99 182 132 153 c 128,-1,49
 165 124 165 124 201 124 c 0,50,51
 211 124 211 124 226.5 127.5 c 128,-1,52
 242 131 242 131 270.5 157.5 c 128,-1,53
 299 184 299 184 299 196 c 0,54,55
 299 214 299 214 311.5 222.5 c 128,-1,56
 324 231 324 231 330 286 c 1,57,58
 332 326 332 326 332 332 c 128,-1,59
 332 338 332 338 328 352 c 128,-1,60
 324 366 324 366 321 373.5 c 128,-1,61
 318 381 318 381 310 398.5 c 128,-1,62
 302 416 302 416 297 434 c 1,35,36
EndSplineSet
Validated: 1
EndChar

StartChar: p
Encoding: 112 112 81
Width: 632
GlyphClass: 2
Flags: W
LayerCount: 2
Fore
SplineSet
241 475 m 0,0,1
 311 520 311 520 370 520 c 0,2,3
 452 520 452 520 479 500 c 128,-1,4
 506 480 506 480 512.5 480 c 128,-1,5
 519 480 519 480 542.5 456 c 128,-1,6
 566 432 566 432 571 397 c 1,7,-1
 571 384 l 2,8,9
 571 359 571 359 555 344.5 c 128,-1,10
 539 330 539 330 539 311.5 c 128,-1,11
 539 293 539 293 492.5 251.5 c 128,-1,12
 446 210 446 210 426 210 c 128,-1,13
 406 210 406 210 393.5 198.5 c 128,-1,14
 381 187 381 187 359.5 183.5 c 128,-1,15
 338 180 338 180 297 179.5 c 128,-1,16
 256 179 256 179 246 178 c 128,-1,17
 236 177 236 177 191 108.5 c 128,-1,18
 146 40 146 40 128 0 c 0,19,20
 98 -67 98 -67 75 -67 c 2,21,-1
 68 -67 l 1,22,23
 59 -64 59 -64 58 -53 c 128,-1,24
 57 -42 57 -42 57 -28.5 c 128,-1,25
 57 -15 57 -15 59.5 37.5 c 128,-1,26
 62 90 62 90 74 158.5 c 128,-1,27
 86 227 86 227 102 276.5 c 128,-1,28
 118 326 118 326 135.5 365 c 128,-1,29
 153 404 153 404 168 424 c 128,-1,30
 183 444 183 444 190 445.5 c 128,-1,31
 197 447 197 447 241 475 c 0,0,1
509 420 m 1,32,33
 505 437 505 437 471 461 c 128,-1,34
 437 485 437 485 395 485 c 128,-1,35
 353 485 353 485 321 466.5 c 128,-1,36
 289 448 289 448 270 448 c 128,-1,37
 251 448 251 448 223 421.5 c 128,-1,38
 195 395 195 395 195 379 c 0,39,40
 195 372 195 372 187 364 c 0,41,42
 161 336 161 336 157 308 c 128,-1,43
 153 280 153 280 142 255 c 0,44,45
 109 183 109 183 99 97 c 0,46,47
 98 84 98 84 98 70 c 128,-1,48
 98 56 98 56 104 56 c 0,49,50
 114 56 114 56 127.5 79 c 128,-1,51
 141 102 141 102 150 112.5 c 128,-1,52
 159 123 159 123 181 164.5 c 128,-1,53
 203 206 203 206 203 212 c 128,-1,54
 203 218 203 218 209 232 c 128,-1,55
 215 246 215 246 227.5 273.5 c 128,-1,56
 240 301 240 301 249 322 c 0,57,58
 268 370 268 370 287 370 c 0,59,60
 292 370 292 370 298 365 c 128,-1,61
 304 360 304 360 303.5 352 c 128,-1,62
 303 344 303 344 295 322.5 c 128,-1,63
 287 301 287 301 277 285 c 128,-1,64
 267 269 267 269 264 260.5 c 128,-1,65
 261 252 261 252 262.5 237 c 128,-1,66
 264 222 264 222 272 217 c 128,-1,67
 280 212 280 212 293 212 c 0,68,69
 318 212 l 0,70,71
 319 211 319 211 320 211 c 0,72,73
 331 211 331 211 350 218 c 0,74,75
 372 226 372 226 386 234 c 0,76,77
 403 243 403 243 413.5 243 c 128,-1,78
 424 243 424 243 457 273.5 c 128,-1,79
 490 304 490 304 490 318 c 128,-1,80
 490 332 490 332 497.5 336.5 c 128,-1,81
 505 341 505 341 508.5 364 c 128,-1,82
 512 387 512 387 512 399.5 c 128,-1,83
 512 412 512 412 509 420 c 1,32,33
EndSplineSet
Validated: 1
EndChar

StartChar: q
Encoding: 113 113 82
Width: 490
GlyphClass: 2
Flags: W
LayerCount: 2
Fore
SplineSet
60 326 m 0,0,1
 60 389 60 389 131 465 c 0,2,3
 147 483 147 483 159.5 487.5 c 128,-1,4
 172 492 172 492 216 492 c 128,-1,5
 260 492 260 492 277.5 477 c 128,-1,6
 295 462 295 462 295 454 c 128,-1,7
 295 446 295 446 277 446 c 128,-1,8
 259 446 259 446 232 451 c 0,9,10
 200 457 200 457 188 457 c 0,11,12
 183 457 183 457 181 456 c 0,13,14
 175 452 175 452 164 430 c 0,15,16
 151 403 151 403 140 384 c 0,17,18
 127 363 127 363 127 341.5 c 128,-1,19
 127 320 127 320 141 305.5 c 128,-1,20
 155 291 155 291 173 291 c 0,21,22
 235 291 235 291 263.5 320 c 128,-1,23
 292 349 292 349 303 349 c 2,24,-1
 304 349 l 2,25,26
 316 349 316 349 347.5 381.5 c 128,-1,27
 379 414 379 414 379 426.5 c 128,-1,28
 379 439 379 439 391.5 449.5 c 128,-1,29
 404 460 404 460 417 456 c 0,30,31
 427 452 427 452 429 426 c 1,32,-1
 429 419 l 2,33,34
 429 400 429 400 421 395 c 128,-1,35
 413 390 413 390 413 372 c 128,-1,36
 413 354 413 354 407 336 c 0,37,38
 386 274 386 274 364 128 c 0,39,40
 361 104 361 104 353 93.5 c 128,-1,41
 345 83 345 83 345 68 c 0,42,43
 345 46 345 46 340 37.5 c 128,-1,44
 335 29 335 29 324 -6 c 1,45,46
 311 -40 311 -40 304.5 -50 c 128,-1,47
 298 -60 298 -60 285 -60 c 128,-1,48
 272 -60 272 -60 265 -50 c 1,49,50
 258 -37 258 -37 268 -27 c 128,-1,51
 278 -17 278 -17 278 16 c 128,-1,52
 278 49 278 49 291.5 74.5 c 128,-1,53
 305 100 305 100 333 276 c 0,54,55
 336 295 336 295 332.5 296 c 128,-1,56
 329 297 329 297 324 294.5 c 128,-1,57
 319 292 319 292 273 277.5 c 128,-1,58
 227 263 227 263 222 256 c 1,59,60
 219 249 219 249 201 249 c 2,61,-1
 177 249 l 1,62,63
 136 251 136 251 124 259.5 c 128,-1,64
 112 268 112 268 100.5 270.5 c 128,-1,65
 89 273 89 273 81.5 277.5 c 128,-1,66
 74 282 74 282 67 295.5 c 128,-1,67
 60 309 60 309 60 326 c 0,0,1
EndSplineSet
Validated: 1
EndChar

StartChar: r
Encoding: 114 114 83
Width: 632
GlyphClass: 2
Flags: W
LayerCount: 2
Fore
SplineSet
92 73 m 0,0,1
 58 73 58 73 58 124 c 0,2,3
 58 143 58 143 64 156 c 128,-1,4
 70 169 70 169 87 186.5 c 128,-1,5
 104 204 104 204 109.5 217.5 c 128,-1,6
 115 231 115 231 116.5 268 c 128,-1,7
 118 305 118 305 124.5 327 c 128,-1,8
 131 349 131 349 131 363 c 0,9,10
 131 372 131 372 129 392 c 0,11,12
 128 409 l 0,13,14
 127 426 127 426 135 429 c 0,15,16
 145 434 145 434 139.5 448 c 128,-1,17
 134 462 134 462 142.5 471.5 c 128,-1,18
 151 481 151 481 151 496 c 128,-1,19
 151 511 151 511 160.5 522.5 c 128,-1,20
 170 534 170 534 184 534 c 0,21,22
 208 534 208 534 216 506 c 0,23,24
 219 498 219 498 219 485.5 c 128,-1,25
 219 473 219 473 207 459.5 c 128,-1,26
 195 446 195 446 190 407 c 128,-1,27
 185 368 185 368 185 356 c 0,28,29
 185 335 185 335 203 335 c 0,30,31
 213 335 213 335 228 347.5 c 128,-1,32
 243 360 243 360 243 375.5 c 128,-1,33
 243 391 243 391 255 391 c 128,-1,34
 267 391 267 391 297 422 c 128,-1,35
 327 453 327 453 327 463.5 c 128,-1,36
 327 474 327 474 340.5 499.5 c 128,-1,37
 354 525 354 525 359 525 c 0,38,39
 376 525 376 525 392.5 488.5 c 128,-1,40
 409 452 409 452 409 440 c 128,-1,41
 409 428 409 428 401 420.5 c 128,-1,42
 393 413 393 413 393 400 c 0,43,44
 393 355 393 355 411.5 336 c 128,-1,45
 430 317 430 317 445.5 317 c 128,-1,46
 461 317 461 317 496.5 335.5 c 128,-1,47
 532 354 532 354 540.5 355 c 128,-1,48
 549 356 549 356 560 345.5 c 128,-1,49
 571 335 571 335 571 321 c 128,-1,50
 571 307 571 307 552 290 c 0,51,52
 515 257 515 257 453 257 c 0,53,54
 419 257 419 257 408.5 260.5 c 128,-1,55
 398 264 398 264 383.5 285 c 128,-1,56
 369 306 369 306 369 321 c 128,-1,57
 369 336 369 336 354.5 351 c 128,-1,58
 340 366 340 366 326 366 c 128,-1,59
 312 366 312 366 286 348 c 128,-1,60
 260 330 260 330 260 322 c 256,61,62
 260 314 260 314 244 298 c 0,63,64
 197 252 197 252 190 222 c 128,-1,65
 183 192 183 192 158 154 c 128,-1,66
 133 116 133 116 126 103 c 0,67,68
 111 73 111 73 92 73 c 0,0,1
EndSplineSet
Validated: 1
EndChar

StartChar: s
Encoding: 115 115 84
Width: 435
GlyphClass: 2
Flags: W
LayerCount: 2
Fore
SplineSet
96 308 m 0,0,1
 64 308 64 308 64 375 c 0,2,3
 64 410 64 410 68.5 422.5 c 128,-1,4
 73 435 73 435 88.5 451.5 c 128,-1,5
 104 468 104 468 149.5 487.5 c 128,-1,6
 195 507 195 507 208 507 c 128,-1,7
 221 507 221 507 223 506 c 1,8,-1
 225 506 l 2,9,10
 230 506 230 506 254 504 c 1,11,12
 277 494 277 494 312 486.5 c 128,-1,13
 347 479 347 479 356 473.5 c 128,-1,14
 365 468 365 468 369.5 452 c 128,-1,15
 374 436 374 436 374 427 c 128,-1,16
 374 418 374 418 365 409 c 128,-1,17
 356 400 356 400 351 400 c 128,-1,18
 346 400 346 400 332 413 c 128,-1,19
 318 426 318 426 322.5 434 c 128,-1,20
 327 442 327 442 321 448 c 0,21,22
 300 470 300 470 236 470 c 0,23,24
 193 470 193 470 131 424 c 0,25,26
 104 404 104 404 104 380 c 0,27,28
 104 368 104 368 111 354 c 0,29,30
 132 315 132 315 194 305 c 0,31,32
 227 300 227 300 284 267.5 c 128,-1,33
 341 235 341 235 347 218 c 0,34,35
 349 212 349 212 349 201.5 c 128,-1,36
 349 191 349 191 345 169 c 0,37,38
 334 110 334 110 166 110 c 0,39,40
 93 110 93 110 70 127 c 0,41,42
 66 130 66 130 69.5 136.5 c 128,-1,43
 73 143 73 143 84 147 c 128,-1,44
 95 151 95 151 104 151 c 128,-1,45
 113 151 113 151 118.5 144 c 128,-1,46
 124 137 124 137 150 137 c 0,47,48
 218 137 218 137 240.5 145.5 c 128,-1,49
 263 154 263 154 282 168 c 128,-1,50
 301 182 301 182 301 193 c 128,-1,51
 301 204 301 204 267 227.5 c 128,-1,52
 233 251 233 251 218.5 251 c 128,-1,53
 204 251 204 251 167 268 c 128,-1,54
 130 285 130 285 121 296.5 c 128,-1,55
 112 308 112 308 96 308 c 0,0,1
EndSplineSet
Validated: 1
EndChar

StartChar: t
Encoding: 116 116 85
Width: 647
GlyphClass: 2
Flags: W
LayerCount: 2
Fore
SplineSet
296 140 m 0,0,1
 308 140 308 140 326 171.5 c 128,-1,2
 344 203 344 203 344 211.5 c 128,-1,3
 344 220 344 220 343 222 c 0,4,5
 338 234 338 234 330 233 c 128,-1,6
 322 232 322 232 305 215 c 1,7,8
 288 194 288 194 285 160 c 1,9,10
 286 157 286 157 286 154 c 0,11,12
 288 140 288 140 296 140 c 0,0,1
191 494 m 0,13,14
 241 468 241 468 253.5 468 c 128,-1,15
 266 468 266 468 266 476 c 0,16,17
 266 488 266 488 240 525 c 0,18,19
 191 593 191 593 139 595 c 1,20,21
 136 595 l 2,22,23
 109 595 109 595 109 573 c 0,24,25
 109 537 109 537 191 494 c 0,13,14
388 337 m 1,26,-1
 394 291 l 1,27,28
 394 238 394 238 370.5 186 c 128,-1,29
 347 134 347 134 332.5 120 c 128,-1,30
 318 106 318 106 291 93 c 128,-1,31
 264 80 264 80 257 80 c 2,32,-1
 256 80 l 2,33,34
 250 80 250 80 242 89 c 128,-1,35
 234 98 234 98 233 102.5 c 128,-1,36
 232 107 232 107 235.5 110 c 128,-1,37
 239 113 239 113 243 124 c 128,-1,38
 247 135 247 135 247 152 c 128,-1,39
 247 169 247 169 254.5 183 c 128,-1,40
 262 197 262 197 295 232 c 128,-1,41
 328 267 328 267 335 291 c 128,-1,42
 342 315 342 315 342 337 c 0,43,44
 342 358 342 358 335 386 c 0,45,46
 332 398 332 398 330 408 c 0,47,48
 329 415 329 415 304 415 c 128,-1,49
 279 415 279 415 263 427 c 128,-1,50
 247 439 247 439 224.5 443 c 128,-1,51
 202 447 202 447 190.5 454.5 c 128,-1,52
 179 462 179 462 174 467 c 128,-1,53
 169 472 169 472 160.5 472 c 128,-1,54
 152 472 152 472 113 508 c 128,-1,55
 74 544 74 544 68 554.5 c 128,-1,56
 62 565 62 565 62 574 c 2,57,-1
 62 587 l 1,58,59
 64 606 64 606 77 621.5 c 128,-1,60
 90 637 90 637 96.5 632.5 c 128,-1,61
 103 628 103 628 139 626 c 0,62,63
 237 619 237 619 250 583 c 0,64,65
 253 575 253 575 287 550.5 c 128,-1,66
 321 526 321 526 329 507 c 0,67,68
 362 425 362 425 401 425 c 0,69,70
 430 425 430 425 452 476 c 0,71,72
 461 497 461 497 480 527.5 c 128,-1,73
 499 558 499 558 512.5 580 c 128,-1,74
 526 602 526 602 526 611 c 128,-1,75
 526 620 526 620 545 646 c 128,-1,76
 564 672 564 672 575 672 c 0,77,78
 579 672 579 672 583.5 667.5 c 128,-1,79
 588 663 588 663 588 652 c 128,-1,80
 588 641 588 641 576 618 c 1,81,82
 500 494 500 494 477 465 c 128,-1,83
 454 436 454 436 454 423 c 128,-1,84
 454 410 454 410 488 410 c 0,85,86
 494 410 494 410 505 410.5 c 128,-1,87
 516 411 516 411 527 411.5 c 128,-1,88
 538 412 538 412 544 410 c 0,89,90
 554 408 554 408 565 390.5 c 128,-1,91
 576 373 576 373 576 361 c 0,92,93
 576 346 576 346 559 346 c 0,94,95
 546 346 546 346 515 360 c 0,96,97
 471 380 471 380 443 380 c 0,98,99
 442 380 442 380 441 380 c 0,100,101
 389 361 389 361 388 342 c 1,102,-1
 388 337 l 1,26,-1
EndSplineSet
EndChar

StartChar: u
Encoding: 117 117 86
Width: 611
GlyphClass: 2
Flags: W
LayerCount: 2
Fore
SplineSet
472 171 m 2,0,-1
 503 172 l 2,1,2
 528 172 528 172 538.5 161.5 c 128,-1,3
 549 151 549 151 549 144 c 0,4,5
 549 131 549 131 519 131 c 0,6,7
 507 131 507 131 491 127 c 128,-1,8
 475 123 475 123 466 120 c 0,9,10
 461 119 461 119 453 119 c 0,11,12
 452 119 l 0,13,14
 451 119 451 119 450 119 c 128,-1,15
 449 119 449 119 448 119 c 128,-1,16
 447 119 447 119 446 119 c 128,-1,17
 445 119 445 119 444 119 c 128,-1,18
 443 119 443 119 442 119 c 0,19,-1
 404 164 l 0,20,21
 386 206 386 206 385.5 214.5 c 128,-1,22
 385 223 385 223 381 223 c 0,23,24
 373 223 373 223 348 185 c 128,-1,25
 323 147 323 147 300.5 131.5 c 128,-1,26
 278 116 278 116 243.5 107.5 c 128,-1,27
 209 99 209 99 199 99 c 0,28,29
 172 99 172 99 137 108 c 1,30,31
 101 115 101 115 92.5 121.5 c 128,-1,32
 84 128 84 128 73.5 156.5 c 128,-1,33
 63 185 63 185 63 266 c 2,34,-1
 63 279 l 1,35,36
 64 370 64 370 76 398.5 c 128,-1,37
 88 427 88 427 96.5 431 c 128,-1,38
 105 435 105 435 116 421 c 0,39,40
 121 416 121 416 121 396 c 128,-1,41
 121 376 121 376 111.5 332 c 128,-1,42
 102 288 102 288 102 273 c 128,-1,43
 102 258 102 258 109.5 240 c 128,-1,44
 117 222 117 222 117 204 c 0,45,46
 117 166 117 166 149 140 c 0,47,48
 162 129 162 129 175 129 c 0,49,50
 217 129 217 129 255 157 c 128,-1,51
 293 185 293 185 293 196 c 128,-1,52
 293 207 293 207 310 214 c 128,-1,53
 327 221 327 221 327 249 c 128,-1,54
 327 277 327 277 344 313.5 c 128,-1,55
 361 350 361 350 361 359 c 0,56,57
 361 371 361 371 372 382 c 1,58,59
 384 391 384 391 390.5 465 c 128,-1,60
 397 539 397 539 420 539 c 2,61,-1
 421 539 l 1,62,63
 437 536 437 536 437 505 c 0,64,65
 437 451 437 451 428.5 360 c 128,-1,66
 420 269 420 269 420 257 c 2,67,-1
 420 240 l 1,68,69
 422 221 422 221 432 200 c 128,-1,70
 442 179 442 179 450 175 c 128,-1,71
 458 171 458 171 472 171 c 2,0,-1
EndSplineSet
Validated: 1
EndChar

StartChar: v
Encoding: 118 118 87
Width: 457
GlyphClass: 2
Flags: W
LayerCount: 2
Fore
SplineSet
311 373 m 128,-1,1
 311 365 311 365 277 333 c 128,-1,2
 243 301 243 301 243 296.5 c 128,-1,3
 243 292 243 292 230 274.5 c 128,-1,4
 217 257 217 257 196.5 232 c 128,-1,5
 176 207 176 207 169 198 c 0,6,7
 151 174 151 174 130 174 c 2,8,-1
 127 174 l 1,9,10
 112 176 112 176 107.5 185 c 128,-1,11
 103 194 103 194 99 231 c 0,12,13
 82 396 82 396 65 431 c 0,14,15
 61 440 61 440 61 447 c 128,-1,16
 61 454 61 454 65 459 c 0,17,18
 70 464 70 464 76 464 c 0,19,20
 82 464 82 464 100 446 c 0,21,22
 118 428 118 428 122.5 412 c 128,-1,23
 127 396 127 396 131.5 324.5 c 128,-1,24
 136 253 136 253 144 247 c 0,25,26
 148 243 148 243 170.5 258.5 c 128,-1,27
 193 274 193 274 193 283 c 128,-1,28
 193 292 193 292 207 307 c 128,-1,29
 221 322 221 322 239.5 342 c 128,-1,30
 258 362 258 362 268.5 383 c 128,-1,31
 279 404 279 404 321 448 c 0,32,33
 363 492 363 492 372.5 495.5 c 128,-1,34
 382 499 382 499 385 499 c 128,-1,35
 388 499 388 499 393 496.5 c 128,-1,36
 398 494 398 494 398 483 c 128,-1,37
 398 472 398 472 357 428 c 1,38,0
 311 381 311 381 311 373 c 128,-1,1
EndSplineSet
Validated: 1
EndChar

StartChar: w
Encoding: 119 119 88
Width: 750
GlyphClass: 2
Flags: W
LayerCount: 2
Fore
SplineSet
673 315 m 1,0,-1
 682 212 l 1,1,2
 681 196 681 196 679 178 c 0,3,4
 674 140 674 140 629 119 c 1,5,6
 596 105 596 105 514 105 c 128,-1,7
 432 105 432 105 405 118 c 1,8,9
 388 125 388 125 381.5 133.5 c 128,-1,10
 375 142 375 142 372 165 c 128,-1,11
 369 188 369 188 369 199 c 128,-1,12
 369 210 369 210 370.5 217 c 128,-1,13
 372 224 372 224 367.5 227 c 128,-1,14
 363 230 363 230 355.5 230 c 128,-1,15
 348 230 348 230 323.5 216.5 c 128,-1,16
 299 203 299 203 272 174 c 1,17,18
 208 112 208 112 118 112 c 0,19,20
 115 112 115 112 93 111.5 c 128,-1,21
 71 111 71 111 64 119 c 0,22,23
 58 127 58 127 58 139 c 0,24,25
 58 185 58 185 76 206 c 0,26,27
 84 215 84 215 93 245 c 128,-1,28
 102 275 102 275 110 282 c 128,-1,29
 118 289 118 289 124 311 c 128,-1,30
 130 333 130 333 138 363.5 c 128,-1,31
 146 394 146 394 155.5 417.5 c 128,-1,32
 165 441 165 441 165 469.5 c 128,-1,33
 165 498 165 498 170.5 503.5 c 128,-1,34
 176 509 176 509 184 509 c 128,-1,35
 192 509 192 509 204.5 499 c 128,-1,36
 217 489 217 489 217 481 c 128,-1,37
 217 473 217 473 213.5 465 c 128,-1,38
 210 457 210 457 198.5 408.5 c 128,-1,39
 187 360 187 360 182 349 c 0,40,41
 128 245 128 245 128 188 c 0,42,43
 128 184 128 184 128 180 c 0,44,45
 130 155 130 155 145 155 c 0,46,47
 153 155 153 155 167.5 164 c 128,-1,48
 182 173 182 173 196 173 c 128,-1,49
 210 173 210 173 227 194 c 128,-1,50
 244 215 244 215 250 215 c 0,51,52
 261 215 261 215 398 336 c 0,53,54
 410 346 410 346 416.5 346 c 128,-1,55
 423 346 423 346 427 342 c 0,56,57
 436 333 436 333 421.5 316 c 128,-1,58
 407 299 407 299 407 237.5 c 128,-1,59
 407 176 407 176 423 163 c 1,60,61
 448 140 448 140 504 140 c 2,62,-1
 517 140 l 1,63,64
 584 143 584 143 619 172 c 1,65,-1
 646 196 l 1,66,-1
 636 241 l 2,67,68
 633 253 633 253 628 275 c 0,69,70
 621 310 621 310 614.5 326.5 c 128,-1,71
 608 343 608 343 583 376 c 128,-1,72
 558 409 558 409 555.5 422.5 c 128,-1,73
 553 436 553 436 572 440 c 1,74,-1
 577 440 l 2,75,76
 602 440 602 440 637 397 c 128,-1,77
 672 354 672 354 673 315 c 1,0,-1
EndSplineSet
Validated: 1
EndChar

StartChar: x
Encoding: 120 120 89
Width: 529
GlyphClass: 2
Flags: W
LayerCount: 2
Fore
SplineSet
113 101 m 0,0,1
 95 102 95 102 95 118.5 c 128,-1,2
 95 135 95 135 116 159 c 128,-1,3
 137 183 137 183 165 230 c 0,4,5
 173 243 173 243 181.5 246 c 128,-1,6
 190 249 190 249 210 274 c 1,7,8
 222 291 222 291 222 298.5 c 128,-1,9
 222 306 222 306 220 310 c 0,10,11
 215 322 215 322 190.5 327.5 c 128,-1,12
 166 333 166 333 121.5 377.5 c 128,-1,13
 77 422 77 422 68.5 444.5 c 128,-1,14
 60 467 60 467 60 496 c 128,-1,15
 60 525 60 525 77 525 c 0,16,17
 82 525 82 525 89.5 518.5 c 128,-1,18
 97 512 97 512 99.5 491.5 c 128,-1,19
 102 471 102 471 110.5 456.5 c 128,-1,20
 119 442 119 442 127 434 c 128,-1,21
 135 426 135 426 135 421 c 0,22,23
 135 412 135 412 185.5 378 c 128,-1,24
 236 344 236 344 269 344 c 0,25,26
 278 344 278 344 288 346 c 0,27,28
 311 352 311 352 311 366 c 0,29,30
 311 371 311 371 321.5 377.5 c 128,-1,31
 332 384 332 384 354 397.5 c 128,-1,32
 376 411 376 411 392 424.5 c 128,-1,33
 408 438 408 438 427 445 c 128,-1,34
 446 452 446 452 458 450.5 c 128,-1,35
 470 449 470 449 470 440 c 128,-1,36
 470 431 470 431 443.5 411 c 128,-1,37
 417 391 417 391 408.5 391 c 128,-1,38
 400 391 400 391 383.5 370 c 128,-1,39
 367 349 367 349 358.5 349 c 128,-1,40
 350 349 350 349 331.5 335.5 c 128,-1,41
 313 322 313 322 312 316.5 c 128,-1,42
 311 311 311 311 324 294 c 1,43,44
 339 270 339 270 363 248 c 128,-1,45
 387 226 387 226 392 160 c 0,46,47
 393 150 393 150 393 142 c 0,48,49
 393 106 393 106 378 106 c 0,50,51
 375 106 375 106 372 109 c 1,52,53
 365 112 365 112 357 142 c 0,54,55
 323 260 323 260 277 260 c 0,56,57
 245 260 245 260 204 203 c 128,-1,58
 163 146 163 146 144 123.5 c 128,-1,59
 125 101 125 101 113 101 c 0,0,1
EndSplineSet
Validated: 1
EndChar

StartChar: y
Encoding: 121 121 90
Width: 395
GlyphClass: 2
Flags: W
LayerCount: 2
Fore
SplineSet
72.5 370.5 m 128,-1,1
 81 409 81 409 92 421.5 c 128,-1,2
 103 434 103 434 110 434 c 128,-1,3
 117 434 117 434 117 414 c 0,4,5
 117 396 117 396 106 361 c 0,6,7
 94 323 94 323 94 304 c 0,8,9
 94 246 94 246 118 218 c 0,10,11
 132 202 132 202 152 202 c 0,12,13
 158 202 158 202 165 204 c 0,14,15
 208 214 208 214 241.5 258 c 128,-1,16
 275 302 275 302 284 361 c 0,17,18
 287 380 287 380 291.5 387.5 c 128,-1,19
 296 395 296 395 306 395 c 128,-1,20
 316 395 316 395 320 386 c 0,21,22
 325 376 325 376 325 325.5 c 128,-1,23
 325 275 325 275 305 122 c 0,24,25
 285 -35 285 -35 285 -50 c 0,26,27
 285 -93 285 -93 269 -108 c 0,28,29
 260 -116 260 -116 254 -116 c 128,-1,30
 248 -116 248 -116 248 -101 c 128,-1,31
 248 -86 248 -86 253 -52 c 128,-1,32
 258 -18 258 -18 267.5 76 c 128,-1,33
 277 170 277 170 280.5 186.5 c 128,-1,34
 284 203 284 203 284 212.5 c 128,-1,35
 284 222 284 222 282 228 c 0,36,37
 278 236 278 236 272 234.5 c 128,-1,38
 266 233 266 233 243.5 215.5 c 128,-1,39
 221 198 221 198 189.5 185.5 c 128,-1,40
 158 173 158 173 135 173 c 0,41,42
 96 173 96 173 79 206.5 c 128,-1,43
 62 240 62 240 62 279 c 2,44,-1
 62 288 l 1,45,0
 64 332 64 332 72.5 370.5 c 128,-1,1
EndSplineSet
Validated: 1
EndChar

StartChar: z
Encoding: 122 122 91
Width: 711
GlyphClass: 2
Flags: W
LayerCount: 2
Fore
SplineSet
112 450 m 0,0,1
 112 463 112 463 171.5 463.5 c 128,-1,2
 231 464 231 464 278.5 471 c 128,-1,3
 326 478 326 478 335 489.5 c 128,-1,4
 344 501 344 501 381 501 c 128,-1,5
 418 501 418 501 442 513 c 0,6,7
 445 515 445 515 449 515 c 2,8,-1
 454 515 l 1,9,10
 461 514 461 514 468.5 504.5 c 128,-1,11
 476 495 476 495 475 490 c 128,-1,12
 474 485 474 485 458.5 475 c 128,-1,13
 443 465 443 465 442.5 456 c 128,-1,14
 442 447 442 447 412.5 415 c 128,-1,15
 383 383 383 383 362 369 c 1,16,17
 342 357 342 357 342 345 c 128,-1,18
 342 333 342 333 331.5 333 c 128,-1,19
 321 333 321 333 285.5 287 c 128,-1,20
 250 241 250 241 250 228 c 0,21,22
 250 211 250 211 300 197.5 c 128,-1,23
 350 184 350 184 439 177 c 0,24,25
 453 176 453 176 482 167 c 128,-1,26
 511 158 511 158 540 158 c 1,27,-1
 586 160 l 1,28,29
 618 160 618 160 632.5 151 c 128,-1,30
 647 142 647 142 647 134.5 c 128,-1,31
 647 127 647 127 633 123.5 c 128,-1,32
 619 120 619 120 590.5 115.5 c 128,-1,33
 562 111 562 111 550 104.5 c 128,-1,34
 538 98 538 98 531 104.5 c 128,-1,35
 524 111 524 111 431.5 121.5 c 128,-1,36
 339 132 339 132 333.5 135 c 128,-1,37
 328 138 328 138 267 148 c 2,38,-1
 206 158 l 1,39,-1
 177 123 l 1,40,41
 147 89 147 89 137.5 89 c 128,-1,42
 128 89 128 89 106.5 77.5 c 128,-1,43
 85 66 85 66 78 66 c 0,44,45
 56 66 56 66 56 86 c 0,46,47
 56 101 56 101 70 126 c 0,48,49
 102 180 102 180 153 208 c 0,50,51
 178 221 178 221 199 244.5 c 128,-1,52
 220 268 220 268 246.5 302.5 c 128,-1,53
 273 337 273 337 310.5 370.5 c 128,-1,54
 348 404 348 404 352.5 418 c 128,-1,55
 357 432 357 432 353 433.5 c 128,-1,56
 349 435 349 435 340 437 c 0,57,58
 326 440 326 440 313 440 c 0,59,60
 275 440 275 440 242 414 c 0,61,62
 224 400 224 400 202 400 c 2,63,-1
 199 400 l 1,64,65
 176 401 176 401 144 420.5 c 128,-1,66
 112 440 112 440 112 450 c 0,0,1
EndSplineSet
Validated: 1
EndChar

StartChar: bar
Encoding: 124 124 92
Width: 255
GlyphClass: 2
Flags: W
LayerCount: 2
Fore
SplineSet
121.5 511 m 128,-1,1
 134 552 134 552 134 570.5 c 128,-1,2
 134 589 134 589 150 610.5 c 128,-1,3
 166 632 166 632 168 633 c 0,4,5
 170 634 170 634 173 634 c 0,6,7
 180 634 180 634 190 628 c 0,8,9
 204 620 204 620 204 613 c 128,-1,10
 204 606 204 606 199.5 595 c 128,-1,11
 195 584 195 584 184.5 539 c 128,-1,12
 174 494 174 494 174 473 c 128,-1,13
 174 452 174 452 160.5 435 c 128,-1,14
 147 418 147 418 132 416 c 1,15,-1
 129 416 l 1,16,17
 112 418 112 418 109 423 c 128,-1,18
 106 428 106 428 107.5 449 c 128,-1,0
 109 470 109 470 121.5 511 c 128,-1,1
64 120 m 0,19,20
 52 133 52 133 52 148.5 c 128,-1,21
 52 164 52 164 60 219 c 0,22,23
 67 272 67 272 88 305 c 0,24,25
 111 341 111 341 118 341 c 0,26,-1
 119 340 l 1,27,28
 126 340 126 340 130.5 331.5 c 128,-1,29
 135 323 135 323 135 310 c 128,-1,30
 135 297 135 297 128.5 266.5 c 128,-1,31
 122 236 122 236 112 226 c 0,32,33
 100 214 100 214 100 195 c 0,34,35
 100 191 100 191 100 185 c 0,36,37
 102 161 102 161 118 152 c 1,38,39
 132 146 132 146 133 126 c 0,40,41
 133 123 133 123 133 113.5 c 128,-1,42
 133 104 133 104 124.5 97.5 c 128,-1,43
 116 91 116 91 109 91 c 0,44,45
 91 91 91 91 64 120 c 0,19,20
EndSplineSet
Validated: 1
EndChar

StartChar: asciitilde
Encoding: 126 126 93
Width: 769
GlyphClass: 2
Flags: W
LayerCount: 2
Fore
SplineSet
684 311 m 1,0,-1
 686 290 l 1,1,2
 686 272 686 272 670 252 c 128,-1,3
 654 232 654 232 617 215 c 128,-1,4
 580 198 580 198 549 198 c 128,-1,5
 518 198 518 198 499.5 207 c 128,-1,6
 481 216 481 216 463 222 c 128,-1,7
 445 228 445 228 431.5 234 c 128,-1,8
 418 240 418 240 400.5 264.5 c 128,-1,9
 383 289 383 289 373 295 c 128,-1,10
 363 301 363 301 349 302.5 c 128,-1,11
 335 304 335 304 317.5 314 c 128,-1,12
 300 324 300 324 266.5 324 c 128,-1,13
 233 324 233 324 220 319 c 128,-1,14
 207 314 207 314 188.5 299 c 128,-1,15
 170 284 170 284 167 277 c 128,-1,16
 164 270 164 270 175 254 c 128,-1,17
 186 238 186 238 181 232.5 c 128,-1,18
 176 227 176 227 164 227 c 128,-1,19
 152 227 152 227 142 228 c 0,20,21
 57 238 57 238 57 269 c 0,22,23
 57 286 57 286 90 318 c 128,-1,24
 123 350 123 350 154.5 360 c 128,-1,25
 186 370 186 370 264 370 c 128,-1,26
 342 370 342 370 361.5 367 c 128,-1,27
 381 364 381 364 401 348.5 c 128,-1,28
 421 333 421 333 428 333 c 128,-1,29
 435 333 435 333 469.5 307.5 c 128,-1,30
 504 282 504 282 514 279.5 c 128,-1,31
 524 277 524 277 532 277 c 128,-1,32
 540 277 540 277 552 285.5 c 128,-1,33
 564 294 564 294 565 299 c 128,-1,34
 566 304 566 304 562 307 c 128,-1,35
 558 310 558 310 554 317.5 c 128,-1,36
 550 325 550 325 550 334.5 c 128,-1,37
 550 344 550 344 575 367 c 128,-1,38
 600 390 600 390 620 398 c 128,-1,39
 640 406 640 406 654 406 c 0,40,41
 655 406 655 406 656 406 c 0,42,43
 671 405 671 405 689 390 c 1,44,45
 705 374 705 374 705 358 c 128,-1,46
 705 342 705 342 694.5 333 c 128,-1,47
 684 324 684 324 684 311 c 1,0,-1
EndSplineSet
Validated: 1
EndChar

StartChar: exclamdown
Encoding: 161 161 94
Width: 349
GlyphClass: 2
Flags: W
LayerCount: 2
Fore
SplineSet
281 478 m 1,0,1
 294 478 294 478 294 457 c 128,-1,2
 294 436 294 436 279 434 c 1,3,4
 266 431 266 431 260 442.5 c 128,-1,5
 254 454 254 454 264 465.5 c 128,-1,6
 274 477 274 477 281 478 c 1,0,1
170 208 m 128,-1,8
 173 213 173 213 182 220.5 c 128,-1,9
 191 228 191 228 191 239.5 c 128,-1,10
 191 251 191 251 207.5 275.5 c 128,-1,11
 224 300 224 300 224 320.5 c 128,-1,12
 224 341 224 341 234 356.5 c 128,-1,13
 244 372 244 372 250.5 372 c 128,-1,14
 257 372 257 372 257 341 c 128,-1,15
 257 310 257 310 233 276 c 0,16,17
 225 264 225 264 224 257.5 c 128,-1,18
 223 251 223 251 213.5 232.5 c 128,-1,19
 204 214 204 214 187.5 185.5 c 128,-1,20
 171 157 171 157 161.5 136 c 128,-1,21
 152 115 152 115 128.5 84 c 128,-1,22
 105 53 105 53 91 24 c 128,-1,23
 77 -5 77 -5 77 -43.5 c 128,-1,24
 77 -82 77 -82 62 -85 c 0,25,26
 58 -85 58 -85 53.5 -80.5 c 128,-1,27
 49 -76 49 -76 49 -60 c 2,28,-1
 49 -38 l 1,29,30
 50 0 50 0 58.5 20 c 128,-1,31
 67 40 67 40 98 86.5 c 128,-1,32
 129 133 129 133 145 160 c 128,-1,33
 161 187 161 187 164 195 c 128,-1,7
 167 203 167 203 170 208 c 128,-1,8
EndSplineSet
Validated: 1
EndChar

StartChar: cent
Encoding: 162 162 95
Width: 470
GlyphClass: 2
Flags: W
LayerCount: 2
Fore
SplineSet
254 283 m 0,0,1
 270 283 270 283 289 323 c 128,-1,2
 308 363 308 363 308 374 c 0,3,4
 308 388 308 388 302 388 c 128,-1,5
 296 388 296 388 279 365.5 c 128,-1,6
 262 343 262 343 262 338 c 128,-1,7
 262 333 262 333 249.5 316 c 128,-1,8
 237 299 237 299 242.5 291 c 128,-1,9
 248 283 248 283 254 283 c 0,0,1
320 410.5 m 128,-1,11
 320 423 320 423 311.5 423 c 128,-1,12
 303 423 303 423 303 410.5 c 128,-1,13
 303 398 303 398 311.5 398 c 128,-1,10
 320 398 320 398 320 410.5 c 128,-1,11
187.5 295.5 m 128,-1,15
 246 405 246 405 246 419 c 0,16,17
 246 424 246 424 243 424 c 0,18,19
 237 424 237 424 221 409 c 0,20,21
 158 351 158 351 134 248 c 0,22,23
 130 231 130 231 123 208.5 c 128,-1,24
 116 186 116 186 121 185 c 1,25,14
 129 186 129 186 187.5 295.5 c 128,-1,15
152.5 148 m 128,-1,27
 150 138 150 138 161 127.5 c 128,-1,28
 172 117 172 117 227 117 c 0,29,30
 281 117 281 117 335 132 c 0,31,32
 385 146 385 146 401 146 c 0,33,34
 402 146 402 146 403 146 c 0,35,36
 418 148 418 148 418 134 c 0,37,38
 418 129 418 129 415 124 c 0,39,40
 409 111 409 111 397 111 c 128,-1,41
 385 111 385 111 365 98.5 c 128,-1,42
 345 86 345 86 294.5 80 c 128,-1,43
 244 74 244 74 217 74 c 0,44,45
 198 74 198 74 171 78 c 0,46,47
 151 81 151 81 137 81 c 0,48,49
 121 81 121 81 113 76 c 0,50,51
 100 67 100 67 90 21 c 0,52,53
 80 -24 80 -24 69 -24 c 0,54,55
 65 -24 65 -24 56 -13 c 128,-1,56
 47 -2 47 -2 47 22.5 c 128,-1,57
 47 47 47 47 58 69.5 c 128,-1,58
 69 92 69 92 70 110 c 1,59,60
 73 127 73 127 69.5 137.5 c 128,-1,61
 66 148 66 148 66 165.5 c 128,-1,62
 66 183 66 183 82.5 220.5 c 128,-1,63
 99 258 99 258 99 278.5 c 128,-1,64
 99 299 99 299 102 304.5 c 128,-1,65
 105 310 105 310 112.5 318 c 128,-1,66
 120 326 120 326 128.5 346 c 128,-1,67
 137 366 137 366 176 411 c 128,-1,68
 215 456 215 456 226 456 c 128,-1,69
 237 456 237 456 270 481.5 c 128,-1,70
 303 507 303 507 303 515 c 128,-1,71
 303 523 303 523 326 552 c 0,72,73
 353 586 353 586 364.5 586 c 128,-1,74
 376 586 376 586 383 577 c 128,-1,75
 390 568 390 568 390 563 c 0,76,77
 390 556 390 556 374 536 c 0,78,79
 357 516 357 516 347 498.5 c 128,-1,80
 337 481 337 481 337 474.5 c 128,-1,81
 337 468 337 468 348.5 456.5 c 128,-1,82
 360 445 360 445 360 424 c 128,-1,83
 360 403 360 403 342 349.5 c 128,-1,84
 324 296 324 296 296.5 270 c 128,-1,85
 269 244 269 244 243 244 c 0,86,87
 235 244 235 244 222 244 c 128,-1,88
 209 244 209 244 203 240 c 0,89,90
 195 234 195 234 175 196 c 128,-1,26
 155 158 155 158 152.5 148 c 128,-1,27
EndSplineSet
Validated: 1
EndChar

StartChar: sterling
Encoding: 163 163 96
Width: 480
GlyphClass: 2
Flags: W
LayerCount: 2
Fore
SplineSet
429 116 m 0,0,1
 429 105 429 105 407 105 c 0,2,3
 359 105 359 105 284 160 c 2,4,-1
 234 197 l 2,5,6
 223 205 223 205 210 205 c 0,7,8
 171 205 171 205 120 128 c 0,9,10
 92 86 92 86 82 79 c 128,-1,11
 72 72 72 72 65 72 c 128,-1,12
 58 72 58 72 52 79 c 0,13,14
 47 85 47 85 47 92 c 0,15,16
 47 104 47 104 56 120 c 0,17,18
 71 146 71 146 92 164 c 0,19,20
 132 198 132 198 132 206 c 0,21,22
 132 217 132 217 149.5 239.5 c 128,-1,23
 167 262 167 262 167.5 281.5 c 128,-1,24
 168 301 168 301 164.5 307 c 128,-1,25
 161 313 161 313 146 316 c 0,26,27
 128 320 128 320 120 335 c 0,28,29
 116 342 116 342 116 348 c 0,30,31
 116 362 116 362 138 362 c 0,32,33
 148 362 148 362 163 359 c 0,34,35
 168 358 168 358 176 358 c 0,36,37
 186 358 186 358 196.5 372 c 128,-1,38
 207 386 207 386 207 394 c 0,39,40
 207 409 207 409 187 402 c 1,41,42
 186 402 186 402 181 401 c 0,43,44
 172 400 172 400 156 411 c 0,45,46
 141 422 141 422 141 431 c 0,47,48
 140 434 140 434 142 437 c 0,49,50
 148 448 148 448 184 448 c 128,-1,51
 220 448 220 448 227.5 453 c 128,-1,52
 235 458 235 458 248 486 c 2,53,-1
 280 561 l 2,54,55
 296 596 296 596 296 609 c 128,-1,56
 296 622 296 622 306 629.5 c 128,-1,57
 316 637 316 637 326.5 642.5 c 128,-1,58
 337 648 337 648 337 657.5 c 128,-1,59
 337 667 337 667 354 679 c 128,-1,60
 371 691 371 691 381 691 c 0,61,62
 399 691 399 691 401 657 c 0,63,64
 401 651 401 651 401 645 c 0,65,66
 401 616 401 616 388 613 c 0,67,68
 383 612 383 612 376 618 c 1,69,70
 370 625 370 625 373.5 634 c 128,-1,71
 377 643 377 643 382 647 c 128,-1,72
 387 651 387 651 382 652 c 1,73,74
 375 652 375 652 356 638 c 128,-1,75
 337 624 337 624 337 619.5 c 128,-1,76
 337 615 337 615 317.5 582.5 c 128,-1,77
 298 550 298 550 285 513.5 c 128,-1,78
 272 477 272 477 272 468.5 c 128,-1,79
 272 460 272 460 284 447 c 128,-1,80
 296 434 296 434 296 425.5 c 128,-1,81
 296 417 296 417 298.5 417 c 128,-1,82
 301 417 301 417 310 424.5 c 128,-1,83
 319 432 319 432 329.5 425 c 128,-1,84
 340 418 340 418 335 409.5 c 128,-1,85
 330 401 330 401 320 401.5 c 128,-1,86
 310 402 310 402 295 404 c 128,-1,87
 280 406 280 406 268.5 414.5 c 128,-1,88
 257 423 257 423 243 406.5 c 128,-1,89
 229 390 229 390 233 378 c 0,90,91
 237 369 237 369 260.5 357.5 c 128,-1,92
 284 346 284 346 299.5 335 c 128,-1,93
 315 324 315 324 306 315 c 0,94,95
 302 311 302 311 294 311 c 128,-1,96
 286 311 286 311 262 321.5 c 128,-1,97
 238 332 238 332 232 332 c 128,-1,98
 226 332 226 332 217 320.5 c 128,-1,99
 208 309 208 309 200 284 c 128,-1,100
 192 259 192 259 181.5 246.5 c 128,-1,101
 171 234 171 234 174.5 233 c 128,-1,102
 178 232 178 232 198 232 c 0,103,104
 246 232 246 232 260.5 214 c 128,-1,105
 275 196 275 196 328.5 165 c 128,-1,106
 382 134 382 134 401 130 c 0,107,108
 429 124 429 124 429 116 c 0,0,1
EndSplineSet
Validated: 1
EndChar

StartChar: currency
Encoding: 164 164 97
Width: 755
GlyphClass: 2
Flags: W
LayerCount: 2
Fore
SplineSet
476 292 m 0,0,1
 476 325 476 325 454 352 c 128,-1,2
 432 379 432 379 421 384.5 c 128,-1,3
 410 390 410 390 388 390 c 128,-1,4
 366 390 366 390 355.5 386 c 128,-1,5
 345 382 345 382 331.5 364.5 c 128,-1,6
 318 347 318 347 318 336.5 c 128,-1,7
 318 326 318 326 303 313.5 c 128,-1,8
 288 301 288 301 276 265.5 c 128,-1,9
 264 230 264 230 264 211 c 2,10,11
 264 189 l 1,12,-1
 265 140 l 1,13,-1
 308 138 l 1,14,15
 319 137 319 137 323 137 c 0,16,17
 336 138 336 138 345 140 c 0,18,19
 358 143 358 143 381 160 c 0,20,21
 403 177 403 177 412 177 c 0,22,23
 422 177 422 177 444 206.5 c 128,-1,24
 466 236 466 236 474 276 c 0,25,26
 476 284 476 284 476 292 c 0,0,1
181.5 160.5 m 128,-1,28
 212 181 212 181 212 195 c 128,-1,29
 212 209 212 209 224 237 c 128,-1,30
 236 265 236 265 236 275 c 128,-1,31
 236 285 236 285 254 309 c 1,32,-1
 271 334 l 1,33,-1
 229 373 l 2,34,35
 204 397 204 397 189.5 406.5 c 128,-1,36
 175 416 175 416 159 419.5 c 128,-1,37
 143 423 143 423 138.5 425 c 128,-1,38
 134 427 134 427 126 427.5 c 128,-1,39
 118 428 118 428 102.5 410.5 c 128,-1,40
 87 393 87 393 73 393 c 2,41,-1
 70 393 l 1,42,43
 56 395 56 395 56 415 c 128,-1,44
 56 435 56 435 68.5 453.5 c 128,-1,45
 81 472 81 472 96.5 472 c 128,-1,46
 112 472 112 472 164 448 c 128,-1,47
 216 424 216 424 243 403 c 2,48,-1
 280 374 l 1,49,-1
 322 419 l 2,50,51
 364 464 364 464 379 464 c 128,-1,52
 394 464 394 464 427 441 c 128,-1,53
 460 418 460 418 480 392 c 128,-1,54
 500 366 500 366 505 366 c 128,-1,55
 510 366 510 366 551 401 c 128,-1,56
 592 436 592 436 630 455.5 c 128,-1,57
 668 475 668 475 684 476 c 1,58,-1
 685 476 l 2,59,60
 702 476 702 476 702 459 c 0,61,62
 702 449 702 449 684 440 c 1,63,64
 664 428 664 428 648 420 c 0,65,66
 603 397 603 397 566 358 c 128,-1,67
 529 319 529 319 520 304 c 128,-1,68
 511 289 511 289 509 264.5 c 128,-1,69
 507 240 507 240 501.5 220.5 c 128,-1,70
 496 201 496 201 496 199 c 0,71,72
 496 188 496 188 523 155 c 128,-1,73
 550 122 550 122 564.5 114 c 128,-1,74
 579 106 579 106 609 102 c 0,75,76
 626 99 626 99 628 81 c 128,-1,77
 630 63 630 63 626.5 58.5 c 128,-1,78
 623 54 623 54 609.5 54 c 128,-1,79
 596 54 596 54 554 86 c 0,80,81
 509 120 509 120 493 140 c 0,82,83
 475 163 475 163 465 163 c 0,84,85
 461 163 461 163 459 159 c 0,86,87
 451 144 451 144 438 144 c 0,88,89
 433 144 433 144 393 115.5 c 128,-1,90
 353 87 353 87 337.5 87 c 128,-1,91
 322 87 322 87 314.5 79.5 c 128,-1,92
 307 72 307 72 298 72 c 0,93,94
 276 72 276 72 236 109 c 2,95,-1
 204 138 l 1,96,-1
 167 120 l 2,97,98
 130 103 130 103 124 103 c 128,-1,99
 118 103 118 103 102 88 c 128,-1,100
 86 73 86 73 75 74 c 128,-1,101
 64 75 64 75 64 88.5 c 128,-1,102
 64 102 64 102 80.5 114.5 c 128,-1,103
 97 127 97 127 124 133.5 c 128,-1,27
 151 140 151 140 181.5 160.5 c 128,-1,28
EndSplineSet
Validated: 1
EndChar

StartChar: yen
Encoding: 165 165 98
Width: 385
GlyphClass: 2
Flags: W
LayerCount: 2
Fore
SplineSet
70 572 m 128,-1,1
 74 598 74 598 86 626 c 256,2,3
 98 654 98 654 115 673.5 c 128,-1,4
 132 693 132 693 146 693 c 2,5,-1
 147 693 l 2,6,7
 155 693 155 693 168.5 666 c 128,-1,8
 182 639 182 639 182 632 c 2,9,-1
 182 624 l 1,10,11
 174 605 174 605 162 619 c 0,12,13
 157 625 157 625 155 637.5 c 128,-1,14
 153 650 153 650 145 650 c 128,-1,15
 137 650 137 650 120 625 c 1,16,17
 106 611 106 611 101 584 c 0,18,19
 92 534 92 534 92 457 c 128,-1,20
 92 380 92 380 95 357 c 128,-1,21
 98 334 98 334 114 328 c 0,22,23
 117 327 117 327 121 328 c 1,24,25
 138 328 138 328 177 350.5 c 128,-1,26
 216 373 216 373 242.5 405 c 128,-1,27
 269 437 269 437 269 445 c 128,-1,28
 269 453 269 453 275.5 467.5 c 128,-1,29
 282 482 282 482 290.5 492.5 c 128,-1,30
 299 503 299 503 302 500 c 1,31,32
 306 498 306 498 306 488 c 0,33,34
 306 480 306 480 304 467 c 0,35,36
 298 436 298 436 288.5 423.5 c 128,-1,37
 279 411 279 411 268 360 c 0,38,39
 256 300 256 300 256 261 c 128,-1,40
 256 222 256 222 262 216 c 128,-1,41
 268 210 268 210 275.5 210 c 128,-1,42
 283 210 283 210 301.5 218.5 c 128,-1,43
 320 227 320 227 323.5 223.5 c 128,-1,44
 327 220 327 220 327 218 c 0,45,46
 327 207 327 207 292.5 194.5 c 128,-1,47
 258 182 258 182 250 168 c 0,48,49
 241 154 241 154 252 148 c 0,50,51
 267 140 267 140 289 140 c 0,52,53
 296 140 296 140 302 141 c 1,54,-1
 309 141 l 2,55,56
 330 141 330 141 330 124 c 0,57,58
 330 113 330 113 323 110 c 128,-1,59
 316 107 316 107 287 107 c 128,-1,60
 258 107 258 107 253.5 104 c 128,-1,61
 249 101 249 101 251 79.5 c 128,-1,62
 253 58 253 58 262.5 51 c 128,-1,63
 272 44 272 44 275 37 c 128,-1,64
 278 30 278 30 275.5 25.5 c 128,-1,65
 273 21 273 21 261 21 c 128,-1,66
 249 21 249 21 237 36 c 128,-1,67
 225 51 225 51 224 76.5 c 128,-1,68
 223 102 223 102 218.5 107 c 128,-1,69
 214 112 214 112 160 117 c 128,-1,70
 106 122 106 122 106 135 c 0,71,72
 106 139 106 139 109 144.5 c 128,-1,73
 112 150 112 150 132.5 150 c 128,-1,74
 153 150 153 150 167 149 c 2,75,-1
 220 146 l 1,76,-1
 220 173 l 2,77,78
 220 193 220 193 210.5 201.5 c 128,-1,79
 201 210 201 210 181 210 c 128,-1,80
 161 210 161 210 134 223.5 c 128,-1,81
 107 237 107 237 107 245 c 0,82,83
 106 255 106 255 132 252 c 128,-1,84
 158 249 158 249 181.5 238.5 c 128,-1,85
 205 228 205 228 210 228 c 128,-1,86
 215 228 215 228 217 229 c 0,87,88
 228 234 228 234 228 272 c 0,89,90
 228 283 228 283 227 294 c 0,91,92
 225 315 225 315 225 322 c 0,93,94
 224 340 224 340 219 340 c 0,95,96
 213 341 213 341 200 326 c 0,97,98
 181 304 181 304 133 304 c 0,99,100
 89 304 89 304 76 327.5 c 128,-1,101
 63 351 63 351 63 422 c 1,102,103
 64 436 64 436 65 491 c 128,-1,0
 66 546 66 546 70 572 c 128,-1,1
EndSplineSet
Validated: 1
EndChar

